<svg width="169" height="54" viewBox="0 0 169 54" fill="none" xmlns="http://www.w3.org/2000/svg">
<path d="M11.718 31.308C10.446 32.58 8.91 33.216 7.11 33.216C5.31 33.216 3.774 32.58 2.502 31.308C1.23 30.036 0.594 28.5 0.594 26.7C0.594 24.9 1.23 23.364 2.502 22.092C3.774 20.82 5.31 20.184 7.11 20.184C8.91 20.184 10.446 20.82 11.718 22.092C12.99 23.364 13.626 24.9 13.626 26.7C13.626 28.5 12.99 30.036 11.718 31.308ZM7.11 32.604C8.718 32.604 10.092 32.028 11.232 30.876C12.372 29.724 12.942 28.332 12.942 26.7C12.942 25.068 12.372 23.676 11.232 22.524C10.092 21.372 8.718 20.796 7.11 20.796C5.49 20.796 4.11 21.372 2.97 22.524C1.83 23.676 1.26 25.068 1.26 26.7C1.26 28.332 1.83 29.724 2.97 30.876C4.11 32.028 5.49 32.604 7.11 32.604ZM7.164 30.228C6.18 30.228 5.34 29.88 4.644 29.184C3.948 28.488 3.6 27.66 3.6 26.7C3.6 25.74 3.948 24.912 4.644 24.216C5.34 23.52 6.18 23.172 7.164 23.172C7.788 23.172 8.37 23.328 8.91 23.64C9.45 23.94 9.87 24.36 10.17 24.9L8.442 25.908C8.19 25.416 7.746 25.17 7.11 25.17C6.654 25.17 6.288 25.32 6.012 25.62C5.736 25.92 5.598 26.28 5.598 26.7C5.598 27.12 5.736 27.48 6.012 27.78C6.288 28.08 6.654 28.23 7.11 28.23C7.734 28.23 8.178 27.978 8.442 27.474L10.188 28.5C9.888 29.028 9.462 29.448 8.91 29.76C8.37 30.072 7.788 30.228 7.164 30.228ZM26.5871 20.4H28.9091V33H26.5871V31.938C25.9031 32.814 24.9311 33.252 23.6711 33.252C22.4591 33.252 21.4211 32.796 20.5571 31.884C19.7051 30.96 19.2791 29.832 19.2791 28.5C19.2791 27.168 19.7051 26.046 20.5571 25.134C21.4211 24.21 22.4591 23.748 23.6711 23.748C24.9311 23.748 25.9031 24.186 26.5871 25.062V20.4ZM22.3031 30.336C22.7831 30.804 23.3831 31.038 24.1031 31.038C24.8231 31.038 25.4171 30.804 25.8851 30.336C26.3531 29.856 26.5871 29.244 26.5871 28.5C26.5871 27.756 26.3531 27.15 25.8851 26.682C25.4171 26.202 24.8231 25.962 24.1031 25.962C23.3831 25.962 22.7831 26.202 22.3031 26.682C21.8351 27.15 21.6011 27.756 21.6011 28.5C21.6011 29.244 21.8351 29.856 22.3031 30.336ZM32.9947 29.454C33.3067 30.582 34.1527 31.146 35.5327 31.146C36.4207 31.146 37.0927 30.846 37.5487 30.246L39.4207 31.326C38.5327 32.61 37.2247 33.252 35.4967 33.252C34.0087 33.252 32.8147 32.802 31.9147 31.902C31.0147 31.002 30.5647 29.868 30.5647 28.5C30.5647 27.144 31.0087 26.016 31.8967 25.116C32.7847 24.204 33.9247 23.748 35.3167 23.748C36.6367 23.748 37.7227 24.204 38.5747 25.116C39.4387 26.028 39.8707 27.156 39.8707 28.5C39.8707 28.8 39.8407 29.118 39.7807 29.454H32.9947ZM32.9587 27.654H37.5487C37.4167 27.042 37.1407 26.586 36.7207 26.286C36.3127 25.986 35.8447 25.836 35.3167 25.836C34.6927 25.836 34.1767 25.998 33.7687 26.322C33.3607 26.634 33.0907 27.078 32.9587 27.654ZM43.2821 26.556C43.2821 26.796 43.4381 26.994 43.7501 27.15C44.0741 27.294 44.4641 27.426 44.9201 27.546C45.3761 27.654 45.8321 27.798 46.2881 27.978C46.7441 28.146 47.1281 28.434 47.4401 28.842C47.7641 29.25 47.9261 29.76 47.9261 30.372C47.9261 31.296 47.5781 32.01 46.8821 32.514C46.1981 33.006 45.3401 33.252 44.3081 33.252C42.4601 33.252 41.2001 32.538 40.5281 31.11L42.5441 29.976C42.8081 30.756 43.3961 31.146 44.3081 31.146C45.1361 31.146 45.5501 30.888 45.5501 30.372C45.5501 30.132 45.3881 29.94 45.0641 29.796C44.7521 29.64 44.3681 29.502 43.9121 29.382C43.4561 29.262 43.0001 29.112 42.5441 28.932C42.0881 28.752 41.6981 28.47 41.3741 28.086C41.0621 27.69 40.9061 27.198 40.9061 26.61C40.9061 25.722 41.2301 25.026 41.8781 24.522C42.5381 24.006 43.3541 23.748 44.3261 23.748C45.0581 23.748 45.7241 23.916 46.3241 24.252C46.9241 24.576 47.3981 25.044 47.7461 25.656L45.7661 26.736C45.4781 26.124 44.9981 25.818 44.3261 25.818C44.0261 25.818 43.7741 25.884 43.5701 26.016C43.3781 26.148 43.2821 26.328 43.2821 26.556ZM50.5714 22.92C50.1874 22.92 49.8514 22.782 49.5634 22.506C49.2874 22.218 49.1494 21.882 49.1494 21.498C49.1494 21.114 49.2874 20.778 49.5634 20.49C49.8514 20.202 50.1874 20.058 50.5714 20.058C50.9674 20.058 51.3034 20.202 51.5794 20.49C51.8674 20.778 52.0114 21.114 52.0114 21.498C52.0114 21.882 51.8674 22.218 51.5794 22.506C51.3034 22.782 50.9674 22.92 50.5714 22.92ZM49.4194 33V24H51.7414V33H49.4194ZM60.7607 24H63.0287V32.568C63.0287 33.96 62.5667 35.022 61.6427 35.754C60.7307 36.486 59.6267 36.852 58.3307 36.852C57.3587 36.852 56.5007 36.666 55.7567 36.294C55.0247 35.922 54.4607 35.376 54.0647 34.656L56.0447 33.522C56.5007 34.362 57.2867 34.782 58.4027 34.782C59.1347 34.782 59.7107 34.59 60.1307 34.206C60.5507 33.822 60.7607 33.276 60.7607 32.568V31.596C60.0767 32.508 59.1167 32.964 57.8807 32.964C56.6087 32.964 55.5407 32.52 54.6767 31.632C53.8247 30.732 53.3987 29.64 53.3987 28.356C53.3987 27.084 53.8307 25.998 54.6947 25.098C55.5587 24.198 56.6207 23.748 57.8807 23.748C59.1167 23.748 60.0767 24.204 60.7607 25.116V24ZM56.4227 30.138C56.9027 30.594 57.5087 30.822 58.2407 30.822C58.9727 30.822 59.5727 30.594 60.0407 30.138C60.5207 29.67 60.7607 29.076 60.7607 28.356C60.7607 27.648 60.5207 27.066 60.0407 26.61C59.5727 26.142 58.9727 25.908 58.2407 25.908C57.5087 25.908 56.9027 26.142 56.4227 26.61C55.9547 27.066 55.7207 27.648 55.7207 28.356C55.7207 29.076 55.9547 29.67 56.4227 30.138ZM70.1383 23.748C71.1223 23.748 71.9323 24.078 72.5683 24.738C73.2163 25.398 73.5403 26.31 73.5403 27.474V33H71.2183V27.762C71.2183 27.162 71.0563 26.706 70.7323 26.394C70.4083 26.07 69.9763 25.908 69.4363 25.908C68.8363 25.908 68.3563 26.094 67.9963 26.466C67.6363 26.838 67.4563 27.396 67.4563 28.14V33H65.1343V24H67.4563V25.008C68.0203 24.168 68.9143 23.748 70.1383 23.748ZM85.2609 23.748C86.4729 23.748 87.5049 24.21 88.3569 25.134C89.2209 26.046 89.6529 27.168 89.6529 28.5C89.6529 29.832 89.2209 30.96 88.3569 31.884C87.5049 32.796 86.4729 33.252 85.2609 33.252C84.0009 33.252 83.0289 32.814 82.3449 31.938V33H80.0229V20.4H82.3449V25.062C83.0289 24.186 84.0009 23.748 85.2609 23.748ZM83.0469 30.336C83.5149 30.804 84.1089 31.038 84.8289 31.038C85.5489 31.038 86.1429 30.804 86.6109 30.336C87.0909 29.856 87.3309 29.244 87.3309 28.5C87.3309 27.756 87.0909 27.15 86.6109 26.682C86.1429 26.202 85.5489 25.962 84.8289 25.962C84.1089 25.962 83.5149 26.202 83.0469 26.682C82.5789 27.15 82.3449 27.756 82.3449 28.5C82.3449 29.244 82.5789 29.856 83.0469 30.336ZM96.807 24H99.291L96.015 33C95.547 34.296 94.923 35.232 94.143 35.808C93.375 36.396 92.415 36.66 91.263 36.6V34.44C91.887 34.452 92.379 34.32 92.739 34.044C93.111 33.768 93.405 33.324 93.621 32.712L89.931 24H92.469L94.809 30.048L96.807 24ZM109.702 20.4C110.914 20.4 111.934 20.808 112.762 21.624C113.59 22.44 114.004 23.442 114.004 24.63C114.004 25.818 113.59 26.82 112.762 27.636C111.934 28.452 110.914 28.86 109.702 28.86H107.488V33H105.004V20.4H109.702ZM109.702 26.538C110.23 26.538 110.668 26.358 111.016 25.998C111.364 25.626 111.538 25.17 111.538 24.63C111.538 24.078 111.364 23.622 111.016 23.262C110.668 22.902 110.23 22.722 109.702 22.722H107.488V26.538H109.702ZM117.642 25.548C117.858 24.972 118.212 24.54 118.704 24.252C119.208 23.964 119.766 23.82 120.378 23.82V26.412C119.67 26.328 119.034 26.472 118.47 26.844C117.918 27.216 117.642 27.834 117.642 28.698V33H115.32V24H117.642V25.548ZM128.242 24H130.564V33H128.242V31.938C127.546 32.814 126.568 33.252 125.308 33.252C124.108 33.252 123.076 32.796 122.212 31.884C121.36 30.96 120.934 29.832 120.934 28.5C120.934 27.168 121.36 26.046 122.212 25.134C123.076 24.21 124.108 23.748 125.308 23.748C126.568 23.748 127.546 24.186 128.242 25.062V24ZM123.958 30.336C124.426 30.804 125.02 31.038 125.74 31.038C126.46 31.038 127.054 30.804 127.522 30.336C128.002 29.856 128.242 29.244 128.242 28.5C128.242 27.756 128.002 27.15 127.522 26.682C127.054 26.202 126.46 25.962 125.74 25.962C125.02 25.962 124.426 26.202 123.958 26.682C123.49 27.15 123.256 27.756 123.256 28.5C123.256 29.244 123.49 29.856 123.958 30.336ZM137.817 26.232H135.783V29.976C135.783 30.288 135.861 30.516 136.017 30.66C136.173 30.804 136.401 30.888 136.701 30.912C137.001 30.924 137.373 30.918 137.817 30.894V33C136.221 33.18 135.093 33.03 134.433 32.55C133.785 32.07 133.461 31.212 133.461 29.976V26.232H131.895V24H133.461V22.182L135.783 21.48V24H137.817V26.232ZM141.135 29.454C141.447 30.582 142.293 31.146 143.673 31.146C144.561 31.146 145.233 30.846 145.689 30.246L147.561 31.326C146.673 32.61 145.365 33.252 143.637 33.252C142.149 33.252 140.955 32.802 140.055 31.902C139.155 31.002 138.705 29.868 138.705 28.5C138.705 27.144 139.149 26.016 140.037 25.116C140.925 24.204 142.065 23.748 143.457 23.748C144.777 23.748 145.863 24.204 146.715 25.116C147.579 26.028 148.011 27.156 148.011 28.5C148.011 28.8 147.981 29.118 147.921 29.454H141.135ZM141.099 27.654H145.689C145.557 27.042 145.281 26.586 144.861 26.286C144.453 25.986 143.985 25.836 143.457 25.836C142.833 25.836 142.317 25.998 141.909 26.322C141.501 26.634 141.231 27.078 141.099 27.654ZM151.524 29.454C151.836 30.582 152.682 31.146 154.062 31.146C154.95 31.146 155.622 30.846 156.078 30.246L157.95 31.326C157.062 32.61 155.754 33.252 154.026 33.252C152.538 33.252 151.344 32.802 150.444 31.902C149.544 31.002 149.094 29.868 149.094 28.5C149.094 27.144 149.538 26.016 150.426 25.116C151.314 24.204 152.454 23.748 153.846 23.748C155.166 23.748 156.252 24.204 157.104 25.116C157.968 26.028 158.4 27.156 158.4 28.5C158.4 28.8 158.37 29.118 158.31 29.454H151.524ZM151.488 27.654H156.078C155.946 27.042 155.67 26.586 155.25 26.286C154.842 25.986 154.374 25.836 153.846 25.836C153.222 25.836 152.706 25.998 152.298 26.322C151.89 26.634 151.62 27.078 151.488 27.654ZM168.319 33H165.619L162.343 28.914V33H160.021V20.4H162.343V27.96L165.439 24H168.211L164.593 28.446L168.319 33Z" fill="#0D0D0D"/>
</svg>
