<svg width="1031" height="748" viewBox="0 0 1031 748" fill="none" xmlns="http://www.w3.org/2000/svg">
<path d="M931 0H1031V140H931V0Z" fill="#FFCC19"/>
<path d="M931 140H1031V280H931V140Z" fill="#FFD647"/>
<path d="M821 0H921V140H821V0Z" fill="#D656E4"/>
<path d="M821 140H921V280H821V140Z" fill="#DE78E9"/>
<path d="M821 280H921V420H821V280Z" fill="#EBABF1"/>
<path d="M838.542 112.2C839.419 112.2 840.152 112.494 840.74 113.082C841.328 113.67 841.622 114.403 841.622 115.28C841.622 116.157 841.328 116.89 840.74 117.478C840.152 118.066 839.419 118.36 838.542 118.36H836.022V122H835.042V112.2H838.542ZM838.542 117.436C839.149 117.436 839.648 117.235 840.04 116.834C840.441 116.423 840.642 115.905 840.642 115.28C840.642 114.655 840.441 114.141 840.04 113.74C839.648 113.329 839.149 113.124 838.542 113.124H836.022V117.436H838.542ZM844.098 113.32C843.967 113.451 843.808 113.516 843.622 113.516C843.435 113.516 843.276 113.451 843.146 113.32C843.015 113.189 842.95 113.031 842.95 112.844C842.95 112.657 843.015 112.499 843.146 112.368C843.276 112.237 843.435 112.172 843.622 112.172C843.808 112.172 843.967 112.237 844.098 112.368C844.228 112.499 844.294 112.657 844.294 112.844C844.294 113.031 844.228 113.189 844.098 113.32ZM843.16 122V115H844.084V122H843.16ZM849.32 114.832C850.17 114.832 850.837 115.093 851.322 115.616C851.817 116.129 852.064 116.825 852.064 117.702V122H851.14V117.702C851.14 117.077 850.972 116.591 850.636 116.246C850.31 115.901 849.843 115.728 849.236 115.728C848.564 115.728 848.018 115.943 847.598 116.372C847.178 116.792 846.968 117.445 846.968 118.332V122H846.044V115H846.968V116.092C847.491 115.252 848.275 114.832 849.32 114.832ZM859.507 122H858.275L854.775 118.626V122H853.851V112.2H854.775V118.094L858.107 115H859.367L855.755 118.36L859.507 122Z" fill="white"/>
<path d="M931 280H1031V420H931V280Z" fill="#FFE58C"/>
<path d="M951.823 112.2L948.281 117.982V122H947.301V117.954L943.773 112.2H944.879L947.805 117.002L950.717 112.2H951.823ZM954.778 114.832C955.814 114.832 956.65 115.201 957.284 115.938C957.928 116.666 958.25 117.529 958.25 118.528C958.25 118.631 958.241 118.775 958.222 118.962H952.076C952.17 119.671 952.468 120.236 952.972 120.656C953.486 121.067 954.116 121.272 954.862 121.272C955.394 121.272 955.852 121.165 956.234 120.95C956.626 120.726 956.92 120.437 957.116 120.082L957.928 120.558C957.62 121.053 957.2 121.445 956.668 121.734C956.136 122.023 955.53 122.168 954.848 122.168C953.747 122.168 952.851 121.823 952.16 121.132C951.47 120.441 951.124 119.564 951.124 118.5C951.124 117.455 951.465 116.582 952.146 115.882C952.828 115.182 953.705 114.832 954.778 114.832ZM954.778 115.728C954.05 115.728 953.439 115.947 952.944 116.386C952.459 116.815 952.17 117.375 952.076 118.066H957.298C957.205 117.329 956.92 116.755 956.444 116.344C955.968 115.933 955.413 115.728 954.778 115.728ZM959.72 122V111.78H960.644V122H959.72ZM962.605 122V111.78H963.529V122H962.605ZM971.356 121.118C970.646 121.818 969.778 122.168 968.752 122.168C967.725 122.168 966.852 121.818 966.134 121.118C965.424 120.409 965.07 119.536 965.07 118.5C965.07 117.464 965.424 116.596 966.134 115.896C966.852 115.187 967.725 114.832 968.752 114.832C969.778 114.832 970.646 115.187 971.356 115.896C972.074 116.596 972.434 117.464 972.434 118.5C972.434 119.536 972.074 120.409 971.356 121.118ZM966.792 120.474C967.324 121.006 967.977 121.272 968.752 121.272C969.526 121.272 970.18 121.006 970.712 120.474C971.244 119.933 971.51 119.275 971.51 118.5C971.51 117.725 971.244 117.072 970.712 116.54C970.18 115.999 969.526 115.728 968.752 115.728C967.977 115.728 967.324 115.999 966.792 116.54C966.26 117.072 965.994 117.725 965.994 118.5C965.994 119.275 966.26 119.933 966.792 120.474ZM982.135 115H983.087L980.931 122H979.923L978.117 116.358L976.311 122H975.303L973.147 115H974.099L975.821 120.81L977.655 115H978.579L980.413 120.81L982.135 115Z" fill="white"/>
<path d="M828 454V457.333H923.955L926.472 459L928.989 457.333H1024V454.278" stroke="#D8E1E1"/>
<path d="M890.909 493.192C889.885 493.192 889.005 492.952 888.269 492.472C887.544 491.981 887.037 491.309 886.749 490.456L887.709 489.896C887.912 490.589 888.285 491.133 888.829 491.528C889.373 491.912 890.072 492.104 890.925 492.104C891.757 492.104 892.403 491.923 892.861 491.56C893.331 491.187 893.565 490.696 893.565 490.088C893.565 489.501 893.352 489.059 892.925 488.76C892.499 488.461 891.795 488.152 890.813 487.832C889.651 487.448 888.883 487.139 888.509 486.904C887.656 486.392 887.229 485.651 887.229 484.68C887.229 483.731 887.56 482.984 888.221 482.44C888.883 481.885 889.699 481.608 890.669 481.608C891.544 481.608 892.301 481.837 892.941 482.296C893.581 482.744 894.056 483.32 894.365 484.024L893.421 484.552C892.909 483.315 891.992 482.696 890.669 482.696C889.976 482.696 889.416 482.867 888.989 483.208C888.563 483.549 888.349 484.024 888.349 484.632C888.349 485.187 888.541 485.603 888.925 485.88C889.309 486.157 889.944 486.44 890.829 486.728C891.235 486.867 891.523 486.968 891.693 487.032C891.875 487.085 892.131 487.181 892.461 487.32C892.803 487.448 893.053 487.565 893.213 487.672C893.373 487.768 893.565 487.907 893.789 488.088C894.024 488.259 894.189 488.435 894.285 488.616C894.392 488.787 894.483 489 894.557 489.256C894.643 489.501 894.685 489.768 894.685 490.056C894.685 491.005 894.339 491.768 893.645 492.344C892.952 492.909 892.04 493.192 890.909 493.192ZM900.3 484.808C901.484 484.808 902.439 485.229 903.164 486.072C903.9 486.904 904.268 487.891 904.268 489.032C904.268 489.149 904.258 489.315 904.236 489.528H897.212C897.319 490.339 897.66 490.984 898.236 491.464C898.823 491.933 899.543 492.168 900.396 492.168C901.004 492.168 901.527 492.045 901.964 491.8C902.412 491.544 902.748 491.213 902.972 490.808L903.9 491.352C903.548 491.917 903.068 492.365 902.46 492.696C901.852 493.027 901.159 493.192 900.38 493.192C899.122 493.192 898.098 492.797 897.308 492.008C896.519 491.219 896.124 490.216 896.124 489C896.124 487.805 896.514 486.808 897.292 486.008C898.071 485.208 899.074 484.808 900.3 484.808ZM900.3 485.832C899.468 485.832 898.77 486.083 898.204 486.584C897.65 487.075 897.319 487.715 897.212 488.504H903.18C903.074 487.661 902.748 487.005 902.204 486.536C901.66 486.067 901.026 485.832 900.3 485.832ZM909.676 493.192C908.471 493.192 907.468 492.792 906.668 491.992C905.868 491.181 905.468 490.184 905.468 489C905.468 487.816 905.868 486.824 906.668 486.024C907.468 485.213 908.471 484.808 909.676 484.808C910.465 484.808 911.175 485 911.804 485.384C912.433 485.757 912.892 486.264 913.18 486.904L912.316 487.4C912.103 486.92 911.756 486.541 911.276 486.264C910.807 485.976 910.273 485.832 909.676 485.832C908.791 485.832 908.044 486.141 907.436 486.76C906.828 487.368 906.524 488.115 906.524 489C906.524 489.885 906.828 490.637 907.436 491.256C908.044 491.864 908.791 492.168 909.676 492.168C910.273 492.168 910.807 492.029 911.276 491.752C911.745 491.464 912.113 491.08 912.38 490.6L913.26 491.112C912.929 491.752 912.444 492.259 911.804 492.632C911.164 493.005 910.455 493.192 909.676 493.192ZM921.402 491.992C920.591 492.792 919.599 493.192 918.426 493.192C917.253 493.192 916.255 492.792 915.434 491.992C914.623 491.181 914.218 490.184 914.218 489C914.218 487.816 914.623 486.824 915.434 486.024C916.255 485.213 917.253 484.808 918.426 484.808C919.599 484.808 920.591 485.213 921.402 486.024C922.223 486.824 922.634 487.816 922.634 489C922.634 490.184 922.223 491.181 921.402 491.992ZM916.186 491.256C916.794 491.864 917.541 492.168 918.426 492.168C919.311 492.168 920.058 491.864 920.666 491.256C921.274 490.637 921.578 489.885 921.578 489C921.578 488.115 921.274 487.368 920.666 486.76C920.058 486.141 919.311 485.832 918.426 485.832C917.541 485.832 916.794 486.141 916.186 486.76C915.578 487.368 915.274 488.115 915.274 489C915.274 489.885 915.578 490.637 916.186 491.256ZM928.145 484.808C929.116 484.808 929.879 485.107 930.433 485.704C930.999 486.291 931.281 487.085 931.281 488.088V493H930.225V488.088C930.225 487.373 930.033 486.819 929.649 486.424C929.276 486.029 928.743 485.832 928.049 485.832C927.281 485.832 926.657 486.077 926.177 486.568C925.697 487.048 925.457 487.795 925.457 488.808V493H924.401V485H925.457V486.248C926.055 485.288 926.951 484.808 928.145 484.808ZM940.203 481.8H941.259V493H940.203V491.432C939.467 492.605 938.39 493.192 936.971 493.192C935.83 493.192 934.854 492.787 934.043 491.976C933.243 491.165 932.843 490.173 932.843 489C932.843 487.827 933.243 486.835 934.043 486.024C934.854 485.213 935.83 484.808 936.971 484.808C938.39 484.808 939.467 485.395 940.203 486.568V481.8ZM934.811 491.256C935.419 491.864 936.166 492.168 937.051 492.168C937.936 492.168 938.683 491.864 939.291 491.256C939.899 490.637 940.203 489.885 940.203 489C940.203 488.115 939.899 487.368 939.291 486.76C938.683 486.141 937.936 485.832 937.051 485.832C936.166 485.832 935.419 486.141 934.811 486.76C934.203 487.368 933.899 488.115 933.899 489C933.899 489.885 934.203 490.637 934.811 491.256ZM950.375 485H951.431V493H950.375V491.432C949.639 492.605 948.562 493.192 947.143 493.192C946.002 493.192 945.026 492.787 944.215 491.976C943.415 491.165 943.015 490.173 943.015 489C943.015 487.827 943.415 486.835 944.215 486.024C945.026 485.213 946.002 484.808 947.143 484.808C948.562 484.808 949.639 485.395 950.375 486.568V485ZM944.983 491.256C945.591 491.864 946.338 492.168 947.223 492.168C948.108 492.168 948.855 491.864 949.463 491.256C950.071 490.637 950.375 489.885 950.375 489C950.375 488.115 950.071 487.368 949.463 486.76C948.855 486.141 948.108 485.832 947.223 485.832C946.338 485.832 945.591 486.141 944.983 486.76C944.375 487.368 944.071 488.115 944.071 489C944.071 489.885 944.375 490.637 944.983 491.256ZM954.723 486.328C955.214 485.357 956.056 484.872 957.251 484.872V485.896C956.526 485.896 955.923 486.109 955.443 486.536C954.963 486.963 954.723 487.635 954.723 488.552V493H953.667V485H954.723V486.328ZM964.614 485H965.734L962.31 493.736C962.001 494.525 961.558 495.144 960.982 495.592C960.417 496.051 959.782 496.253 959.078 496.2V495.208C960.038 495.315 960.769 494.76 961.27 493.544L961.478 493.048L957.894 485H959.014L962.022 491.704L964.614 485Z" fill="#D8E1E1"/>
<path d="M584 0H684V134H584V0Z" fill="#181C20"/>
<path d="M600.552 112.918C601.028 113.123 601.406 113.436 601.686 113.856C601.975 114.267 602.12 114.738 602.12 115.27C602.12 116.026 601.854 116.67 601.322 117.202C600.79 117.734 600.146 118 599.39 118H595.12V108.2H599.068C599.796 108.2 600.417 108.461 600.93 108.984C601.443 109.497 601.7 110.113 601.7 110.832C601.7 111.747 601.317 112.442 600.552 112.918ZM599.068 109.124H596.1V112.54H599.068C599.525 112.54 599.913 112.377 600.23 112.05C600.557 111.714 600.72 111.308 600.72 110.832C600.72 110.365 600.557 109.964 600.23 109.628C599.913 109.292 599.525 109.124 599.068 109.124ZM599.39 117.076C599.875 117.076 600.286 116.903 600.622 116.558C600.967 116.203 601.14 115.774 601.14 115.27C601.14 114.775 600.967 114.351 600.622 113.996C600.286 113.641 599.875 113.464 599.39 113.464H596.1V117.076H599.39ZM603.662 118V107.78H604.586V118H603.662ZM612.566 111H613.49V118H612.566V116.628C611.922 117.655 610.98 118.168 609.738 118.168C608.74 118.168 607.886 117.813 607.176 117.104C606.476 116.395 606.126 115.527 606.126 114.5C606.126 113.473 606.476 112.605 607.176 111.896C607.886 111.187 608.74 110.832 609.738 110.832C610.98 110.832 611.922 111.345 612.566 112.372V111ZM607.848 116.474C608.38 117.006 609.034 117.272 609.808 117.272C610.583 117.272 611.236 117.006 611.768 116.474C612.3 115.933 612.566 115.275 612.566 114.5C612.566 113.725 612.3 113.072 611.768 112.54C611.236 111.999 610.583 111.728 609.808 111.728C609.034 111.728 608.38 111.999 607.848 112.54C607.316 113.072 607.05 113.725 607.05 114.5C607.05 115.275 607.316 115.933 607.848 116.474ZM618.709 118.168C617.654 118.168 616.777 117.818 616.077 117.118C615.377 116.409 615.027 115.536 615.027 114.5C615.027 113.464 615.377 112.596 616.077 111.896C616.777 111.187 617.654 110.832 618.709 110.832C619.399 110.832 620.02 111 620.571 111.336C621.121 111.663 621.523 112.106 621.775 112.666L621.019 113.1C620.832 112.68 620.529 112.349 620.109 112.106C619.698 111.854 619.231 111.728 618.709 111.728C617.934 111.728 617.281 111.999 616.749 112.54C616.217 113.072 615.951 113.725 615.951 114.5C615.951 115.275 616.217 115.933 616.749 116.474C617.281 117.006 617.934 117.272 618.709 117.272C619.231 117.272 619.698 117.151 620.109 116.908C620.519 116.656 620.841 116.32 621.075 115.9L621.845 116.348C621.555 116.908 621.131 117.351 620.571 117.678C620.011 118.005 619.39 118.168 618.709 118.168ZM628.827 118H627.595L624.095 114.626V118H623.171V108.2H624.095V114.094L627.427 111H628.687L625.075 114.36L628.827 118Z" fill="white"/>
<path d="M584 134H684V268H584V134Z" fill="#343D44"/>
<path d="M584 268H684V402H584V268Z" fill="#424E57"/>
<path d="M584 402H684V536H584V402Z" fill="#52616B"/>
<path d="M584 536H684V670H584V536Z" fill="#8F9091"/>
<path d="M612.48 731.8H613.6V743H612.64L606.4 733.88V743H605.28V731.8H606.24L612.48 740.92V731.8ZM619.691 734.808C620.875 734.808 621.83 735.229 622.555 736.072C623.291 736.904 623.659 737.891 623.659 739.032C623.659 739.149 623.648 739.315 623.627 739.528H616.603C616.71 740.339 617.051 740.984 617.627 741.464C618.214 741.933 618.934 742.168 619.787 742.168C620.395 742.168 620.918 742.045 621.355 741.8C621.803 741.544 622.139 741.213 622.363 740.808L623.291 741.352C622.939 741.917 622.459 742.365 621.851 742.696C621.243 743.027 620.55 743.192 619.771 743.192C618.512 743.192 617.488 742.797 616.699 742.008C615.91 741.219 615.515 740.216 615.515 739C615.515 737.805 615.904 736.808 616.683 736.008C617.462 735.208 618.464 734.808 619.691 734.808ZM619.691 735.832C618.859 735.832 618.16 736.083 617.595 736.584C617.04 737.075 616.71 737.715 616.603 738.504H622.571C622.464 737.661 622.139 737.005 621.595 736.536C621.051 736.067 620.416 735.832 619.691 735.832ZM630.971 735H632.027V743H630.971V741.752C630.373 742.712 629.477 743.192 628.283 743.192C627.312 743.192 626.544 742.899 625.979 742.312C625.424 741.715 625.147 740.915 625.147 739.912V735H626.203V739.912C626.203 740.627 626.389 741.181 626.763 741.576C627.147 741.971 627.685 742.168 628.379 742.168C629.147 742.168 629.771 741.928 630.251 741.448C630.731 740.957 630.971 740.205 630.971 739.192V735ZM638.501 736.024H636.197V740.872C636.197 741.309 636.282 741.624 636.453 741.816C636.623 741.997 636.879 742.093 637.221 742.104C637.562 742.104 637.989 742.093 638.501 742.072V743C637.381 743.171 636.538 743.091 635.973 742.76C635.418 742.429 635.141 741.8 635.141 740.872V736.024H633.461V735H635.141V733.08L636.197 732.76V735H638.501V736.024ZM641.317 736.328C641.807 735.357 642.65 734.872 643.845 734.872V735.896C643.119 735.896 642.517 736.109 642.037 736.536C641.557 736.963 641.317 737.635 641.317 738.552V743H640.261V735H641.317V736.328ZM651.688 735H652.744V743H651.688V741.432C650.952 742.605 649.874 743.192 648.456 743.192C647.314 743.192 646.338 742.787 645.528 741.976C644.728 741.165 644.328 740.173 644.328 739C644.328 737.827 644.728 736.835 645.528 736.024C646.338 735.213 647.314 734.808 648.456 734.808C649.874 734.808 650.952 735.395 651.688 736.568V735ZM646.296 741.256C646.904 741.864 647.65 742.168 648.536 742.168C649.421 742.168 650.168 741.864 650.776 741.256C651.384 740.637 651.688 739.885 651.688 739C651.688 738.115 651.384 737.368 650.776 736.76C650.168 736.141 649.421 735.832 648.536 735.832C647.65 735.832 646.904 736.141 646.296 736.76C645.688 737.368 645.384 738.115 645.384 739C645.384 739.885 645.688 740.637 646.296 741.256ZM654.979 743V731.32H656.035V743H654.979ZM659.108 737.096C659.108 737.459 659.268 737.747 659.588 737.96C659.908 738.173 660.298 738.339 660.756 738.456C661.215 738.573 661.674 738.707 662.132 738.856C662.591 738.995 662.98 739.235 663.3 739.576C663.62 739.907 663.78 740.344 663.78 740.888C663.78 741.571 663.508 742.125 662.964 742.552C662.431 742.979 661.738 743.192 660.884 743.192C660.116 743.192 659.46 743.021 658.916 742.68C658.383 742.339 658.01 741.896 657.796 741.352L658.692 740.824C658.842 741.24 659.108 741.571 659.492 741.816C659.887 742.051 660.351 742.168 660.884 742.168C661.407 742.168 661.844 742.067 662.196 741.864C662.548 741.651 662.724 741.325 662.724 740.888C662.724 740.525 662.564 740.237 662.244 740.024C661.924 739.811 661.535 739.645 661.076 739.528C660.618 739.411 660.159 739.283 659.7 739.144C659.242 738.995 658.852 738.755 658.532 738.424C658.212 738.083 658.052 737.64 658.052 737.096C658.052 736.445 658.308 735.901 658.82 735.464C659.343 735.027 659.999 734.808 660.788 734.808C661.439 734.808 662.01 734.957 662.5 735.256C662.991 735.544 663.354 735.939 663.588 736.44L662.708 736.952C662.399 736.205 661.759 735.832 660.788 735.832C660.33 735.832 659.935 735.944 659.604 736.168C659.274 736.381 659.108 736.691 659.108 737.096Z" fill="#D8E1E1"/>
<path d="M585 702V708H631L635 711L639 708H683V703" stroke="#D8E1E1"/>
<path d="M347 0H447V159H347V0Z" fill="#513980"/>
<path d="M347 159H447V318H347V159Z" fill="#746199"/>
<path d="M347 318H447V477H347V318Z" fill="#A89CBF"/>
<path d="M347 477H447V636H347V477Z" fill="#E0E1FF"/>
<path d="M359.968 118.152H364.126V120H357.504V118.46L361.578 112.048H357.602V110.2H364.042V111.726L359.968 118.152ZM367.334 118.152H371.464V120H365.402V110.2H371.394V112.048H367.334V114.134H371.044V115.954H367.334V118.152ZM382.376 114.736V115.492C382.376 116.892 381.928 118.026 381.032 118.894C380.136 119.762 378.978 120.196 377.56 120.196C376.048 120.196 374.792 119.706 373.794 118.726C372.804 117.737 372.31 116.533 372.31 115.114C372.31 113.686 372.8 112.477 373.78 111.488C374.769 110.499 375.992 110.004 377.448 110.004C378.362 110.004 379.198 110.214 379.954 110.634C380.71 111.045 381.298 111.595 381.718 112.286L380.066 113.238C379.832 112.837 379.478 112.51 379.002 112.258C378.535 112.006 378.012 111.88 377.434 111.88C376.5 111.88 375.73 112.188 375.124 112.804C374.526 113.411 374.228 114.181 374.228 115.114C374.228 116.038 374.531 116.803 375.138 117.41C375.754 118.007 376.566 118.306 377.574 118.306C378.32 118.306 378.936 118.143 379.422 117.816C379.916 117.48 380.252 117.023 380.43 116.444H377.462V114.736H382.376ZM361.732 134.832C362.731 134.832 363.58 135.187 364.28 135.896C364.989 136.605 365.344 137.473 365.344 138.5C365.344 139.527 364.989 140.395 364.28 141.104C363.58 141.813 362.731 142.168 361.732 142.168C360.491 142.168 359.548 141.655 358.904 140.628V144.8H357.98V135H358.904V136.372C359.548 135.345 360.491 134.832 361.732 134.832ZM359.702 140.474C360.234 141.006 360.887 141.272 361.662 141.272C362.437 141.272 363.09 141.006 363.622 140.474C364.154 139.933 364.42 139.275 364.42 138.5C364.42 137.725 364.154 137.072 363.622 136.54C363.09 135.999 362.437 135.728 361.662 135.728C360.887 135.728 360.234 135.999 359.702 136.54C359.17 137.072 358.904 137.725 358.904 138.5C358.904 139.275 359.17 139.933 359.702 140.474ZM371.808 135H372.732V142H371.808V140.908C371.286 141.748 370.502 142.168 369.456 142.168C368.607 142.168 367.935 141.911 367.44 141.398C366.955 140.875 366.712 140.175 366.712 139.298V135H367.636V139.298C367.636 139.923 367.8 140.409 368.126 140.754C368.462 141.099 368.934 141.272 369.54 141.272C370.212 141.272 370.758 141.062 371.178 140.642C371.598 140.213 371.808 139.555 371.808 138.668V135ZM375.611 136.162C376.04 135.313 376.778 134.888 377.823 134.888V135.784C377.188 135.784 376.661 135.971 376.241 136.344C375.821 136.717 375.611 137.305 375.611 138.108V142H374.687V135H375.611V136.162ZM382.841 134.832C383.84 134.832 384.689 135.187 385.389 135.896C386.099 136.605 386.453 137.473 386.453 138.5C386.453 139.527 386.099 140.395 385.389 141.104C384.689 141.813 383.84 142.168 382.841 142.168C381.6 142.168 380.657 141.655 380.013 140.628V144.8H379.089V135H380.013V136.372C380.657 135.345 381.6 134.832 382.841 134.832ZM380.811 140.474C381.343 141.006 381.997 141.272 382.771 141.272C383.546 141.272 384.199 141.006 384.731 140.474C385.263 139.933 385.529 139.275 385.529 138.5C385.529 137.725 385.263 137.072 384.731 136.54C384.199 135.999 383.546 135.728 382.771 135.728C381.997 135.728 381.343 135.999 380.811 136.54C380.279 137.072 380.013 137.725 380.013 138.5C380.013 139.275 380.279 139.933 380.811 140.474ZM387.99 142V131.78H388.914V142H387.99ZM394.109 134.832C395.145 134.832 395.98 135.201 396.615 135.938C397.259 136.666 397.581 137.529 397.581 138.528C397.581 138.631 397.571 138.775 397.553 138.962H391.407C391.5 139.671 391.799 140.236 392.303 140.656C392.816 141.067 393.446 141.272 394.193 141.272C394.725 141.272 395.182 141.165 395.565 140.95C395.957 140.726 396.251 140.437 396.447 140.082L397.259 140.558C396.951 141.053 396.531 141.445 395.999 141.734C395.467 142.023 394.86 142.168 394.179 142.168C393.077 142.168 392.181 141.823 391.491 141.132C390.8 140.441 390.455 139.564 390.455 138.5C390.455 137.455 390.795 136.582 391.477 135.882C392.158 135.182 393.035 134.832 394.109 134.832ZM394.109 135.728C393.381 135.728 392.769 135.947 392.275 136.386C391.789 136.815 391.5 137.375 391.407 138.066H396.629C396.535 137.329 396.251 136.755 395.775 136.344C395.299 135.933 394.743 135.728 394.109 135.728Z" fill="white"/>
<path d="M374.28 697.8C375.283 697.8 376.12 698.136 376.792 698.808C377.464 699.48 377.8 700.317 377.8 701.32C377.8 702.323 377.464 703.16 376.792 703.832C376.12 704.504 375.283 704.84 374.28 704.84H371.4V709H370.28V697.8H374.28ZM374.28 703.784C374.973 703.784 375.544 703.555 375.992 703.096C376.451 702.627 376.68 702.035 376.68 701.32C376.68 700.605 376.451 700.019 375.992 699.56C375.544 699.091 374.973 698.856 374.28 698.856H371.4V703.784H374.28ZM380.457 702.328C380.948 701.357 381.791 700.872 382.985 700.872V701.896C382.26 701.896 381.657 702.109 381.177 702.536C380.697 702.963 380.457 703.635 380.457 704.552V709H379.401V701H380.457V702.328ZM385.505 699.08C385.355 699.229 385.174 699.304 384.961 699.304C384.747 699.304 384.566 699.229 384.417 699.08C384.267 698.931 384.193 698.749 384.193 698.536C384.193 698.323 384.267 698.141 384.417 697.992C384.566 697.843 384.747 697.768 384.961 697.768C385.174 697.768 385.355 697.843 385.505 697.992C385.654 698.141 385.729 698.323 385.729 698.536C385.729 698.749 385.654 698.931 385.505 699.08ZM384.433 709V701H385.489V709H384.433ZM396.257 700.808C397.153 700.808 397.873 701.096 398.417 701.672C398.972 702.248 399.249 703.027 399.249 704.008V709H398.193V704.008C398.193 703.315 398.012 702.781 397.649 702.408C397.297 702.024 396.828 701.832 396.241 701.832C395.58 701.832 395.041 702.056 394.625 702.504C394.22 702.941 394.017 703.629 394.017 704.568V709H392.961V704.008C392.961 703.304 392.791 702.765 392.449 702.392C392.119 702.019 391.665 701.832 391.089 701.832C390.449 701.832 389.905 702.056 389.457 702.504C389.009 702.952 388.785 703.64 388.785 704.568V709H387.729V701H388.785V702.168C389.361 701.261 390.177 700.808 391.233 700.808C392.385 700.808 393.196 701.293 393.665 702.264C394.241 701.293 395.105 700.808 396.257 700.808ZM408.172 701H409.228V709H408.172V707.432C407.436 708.605 406.359 709.192 404.94 709.192C403.799 709.192 402.823 708.787 402.012 707.976C401.212 707.165 400.812 706.173 400.812 705C400.812 703.827 401.212 702.835 402.012 702.024C402.823 701.213 403.799 700.808 404.94 700.808C406.359 700.808 407.436 701.395 408.172 702.568V701ZM402.78 707.256C403.388 707.864 404.135 708.168 405.02 708.168C405.905 708.168 406.652 707.864 407.26 707.256C407.868 706.637 408.172 705.885 408.172 705C408.172 704.115 407.868 703.368 407.26 702.76C406.652 702.141 405.905 701.832 405.02 701.832C404.135 701.832 403.388 702.141 402.78 702.76C402.172 703.368 401.868 704.115 401.868 705C401.868 705.885 402.172 706.637 402.78 707.256ZM412.52 702.328C413.01 701.357 413.853 700.872 415.048 700.872V701.896C414.322 701.896 413.72 702.109 413.24 702.536C412.76 702.963 412.52 703.635 412.52 704.552V709H411.464V701H412.52V702.328ZM422.411 701H423.531L420.107 709.736C419.798 710.525 419.355 711.144 418.779 711.592C418.214 712.051 417.579 712.253 416.875 712.2V711.208C417.835 711.315 418.566 710.76 419.067 709.544L419.275 709.048L415.691 701H416.811L419.819 707.704L422.411 701Z" fill="#D8E1E1"/>
<path d="M348 668V674H394L398 677L402 674H446V669" stroke="#D8E1E1"/>
<rect x="111" y="1" width="98" height="125.276" fill="#0D0D0D" stroke="#1E222A" stroke-width="2"/>
<path d="M128.552 103.918C129.028 104.123 129.406 104.436 129.686 104.856C129.975 105.267 130.12 105.738 130.12 106.27C130.12 107.026 129.854 107.67 129.322 108.202C128.79 108.734 128.146 109 127.39 109H123.12V99.2H127.068C127.796 99.2 128.417 99.4613 128.93 99.984C129.443 100.497 129.7 101.113 129.7 101.832C129.7 102.747 129.317 103.442 128.552 103.918ZM127.068 100.124H124.1V103.54H127.068C127.525 103.54 127.913 103.377 128.23 103.05C128.557 102.714 128.72 102.308 128.72 101.832C128.72 101.365 128.557 100.964 128.23 100.628C127.913 100.292 127.525 100.124 127.068 100.124ZM127.39 108.076C127.875 108.076 128.286 107.903 128.622 107.558C128.967 107.203 129.14 106.774 129.14 106.27C129.14 105.775 128.967 105.351 128.622 104.996C128.286 104.641 127.875 104.464 127.39 104.464H124.1V108.076H127.39ZM131.662 109V98.78H132.586V109H131.662ZM140.566 102H141.49V109H140.566V107.628C139.922 108.655 138.98 109.168 137.738 109.168C136.74 109.168 135.886 108.813 135.176 108.104C134.476 107.395 134.126 106.527 134.126 105.5C134.126 104.473 134.476 103.605 135.176 102.896C135.886 102.187 136.74 101.832 137.738 101.832C138.98 101.832 139.922 102.345 140.566 103.372V102ZM135.848 107.474C136.38 108.006 137.034 108.272 137.808 108.272C138.583 108.272 139.236 108.006 139.768 107.474C140.3 106.933 140.566 106.275 140.566 105.5C140.566 104.725 140.3 104.072 139.768 103.54C139.236 102.999 138.583 102.728 137.808 102.728C137.034 102.728 136.38 102.999 135.848 103.54C135.316 104.072 135.05 104.725 135.05 105.5C135.05 106.275 135.316 106.933 135.848 107.474ZM146.709 109.168C145.654 109.168 144.777 108.818 144.077 108.118C143.377 107.409 143.027 106.536 143.027 105.5C143.027 104.464 143.377 103.596 144.077 102.896C144.777 102.187 145.654 101.832 146.709 101.832C147.399 101.832 148.02 102 148.571 102.336C149.121 102.663 149.523 103.106 149.775 103.666L149.019 104.1C148.832 103.68 148.529 103.349 148.109 103.106C147.698 102.854 147.231 102.728 146.709 102.728C145.934 102.728 145.281 102.999 144.749 103.54C144.217 104.072 143.951 104.725 143.951 105.5C143.951 106.275 144.217 106.933 144.749 107.474C145.281 108.006 145.934 108.272 146.709 108.272C147.231 108.272 147.698 108.151 148.109 107.908C148.519 107.656 148.841 107.32 149.075 106.9L149.845 107.348C149.555 107.908 149.131 108.351 148.571 108.678C148.011 109.005 147.39 109.168 146.709 109.168ZM156.827 109H155.595L152.095 105.626V109H151.171V99.2H152.095V105.094L155.427 102H156.687L153.075 105.36L156.827 109Z" fill="white"/>
<rect width="100" height="127.276" fill="white"/>
<path d="M15.262 109L12.42 99.2H13.456L15.878 107.67L18.426 99.2H19.574L22.122 107.67L24.544 99.2H25.58L22.738 109H21.562L19 100.488L16.438 109H15.262ZM29.9826 101.832C30.8319 101.832 31.4992 102.093 31.9846 102.616C32.4792 103.129 32.7266 103.825 32.7266 104.702V109H31.8026V104.702C31.8026 104.077 31.6346 103.591 31.2986 103.246C30.9719 102.901 30.5052 102.728 29.8986 102.728C29.2266 102.728 28.6806 102.943 28.2606 103.372C27.8406 103.792 27.6306 104.445 27.6306 105.332V109H26.7066V99.2H27.6306V103.092C28.1532 102.252 28.9372 101.832 29.9826 101.832ZM35.4512 100.32C35.3205 100.451 35.1619 100.516 34.9752 100.516C34.7885 100.516 34.6299 100.451 34.4992 100.32C34.3685 100.189 34.3032 100.031 34.3032 99.844C34.3032 99.6573 34.3685 99.4987 34.4992 99.368C34.6299 99.2373 34.7885 99.172 34.9752 99.172C35.1619 99.172 35.3205 99.2373 35.4512 99.368C35.5819 99.4987 35.6472 99.6573 35.6472 99.844C35.6472 100.031 35.5819 100.189 35.4512 100.32ZM34.5132 109V102H35.4372V109H34.5132ZM41.108 102.896H39.092V107.138C39.092 107.521 39.1666 107.796 39.316 107.964C39.4653 108.123 39.6893 108.207 39.988 108.216C40.2866 108.216 40.66 108.207 41.108 108.188V109C40.128 109.149 39.3906 109.079 38.896 108.79C38.4106 108.501 38.168 107.95 38.168 107.138V102.896H36.698V102H38.168V100.32L39.092 100.04V102H41.108V102.896ZM45.4581 101.832C46.4941 101.832 47.3295 102.201 47.9641 102.938C48.6081 103.666 48.9301 104.529 48.9301 105.528C48.9301 105.631 48.9208 105.775 48.9021 105.962H42.7561C42.8495 106.671 43.1481 107.236 43.6521 107.656C44.1655 108.067 44.7955 108.272 45.5421 108.272C46.0741 108.272 46.5315 108.165 46.9141 107.95C47.3061 107.726 47.6001 107.437 47.7961 107.082L48.6081 107.558C48.3001 108.053 47.8801 108.445 47.3481 108.734C46.8161 109.023 46.2095 109.168 45.5281 109.168C44.4268 109.168 43.5308 108.823 42.8401 108.132C42.1495 107.441 41.8041 106.564 41.8041 105.5C41.8041 104.455 42.1448 103.582 42.8261 102.882C43.5075 102.182 44.3848 101.832 45.4581 101.832ZM45.4581 102.728C44.7301 102.728 44.1188 102.947 43.6241 103.386C43.1388 103.815 42.8495 104.375 42.7561 105.066H47.9781C47.8848 104.329 47.6001 103.755 47.1241 103.344C46.6481 102.933 46.0928 102.728 45.4581 102.728Z" fill="#0B0C0F"/>
<path d="M3 159V165H100.5L105 168.5L109 165H207.5V159.5" stroke="#D8E1E1"/>
<path d="M94.488 195.192C95.032 195.427 95.464 195.784 95.784 196.264C96.1147 196.733 96.28 197.272 96.28 197.88C96.28 198.744 95.976 199.48 95.368 200.088C94.76 200.696 94.024 201 93.16 201H88.28V189.8H92.792C93.624 189.8 94.3333 190.099 94.92 190.696C95.5067 191.283 95.8 191.987 95.8 192.808C95.8 193.853 95.3627 194.648 94.488 195.192ZM92.792 190.856H89.4V194.76H92.792C93.3147 194.76 93.7573 194.573 94.12 194.2C94.4933 193.816 94.68 193.352 94.68 192.808C94.68 192.275 94.4933 191.816 94.12 191.432C93.7573 191.048 93.3147 190.856 92.792 190.856ZM93.16 199.944C93.7147 199.944 94.184 199.747 94.568 199.352C94.9627 198.947 95.16 198.456 95.16 197.88C95.16 197.315 94.9627 196.829 94.568 196.424C94.184 196.019 93.7147 195.816 93.16 195.816H89.4V199.944H93.16ZM104.922 193H105.978V201H104.922V199.432C104.186 200.605 103.109 201.192 101.69 201.192C100.549 201.192 99.5725 200.787 98.7619 199.976C97.9619 199.165 97.5619 198.173 97.5619 197C97.5619 195.827 97.9619 194.835 98.7619 194.024C99.5725 193.213 100.549 192.808 101.69 192.808C103.109 192.808 104.186 193.395 104.922 194.568V193ZM99.5299 199.256C100.138 199.864 100.885 200.168 101.77 200.168C102.655 200.168 103.402 199.864 104.01 199.256C104.618 198.637 104.922 197.885 104.922 197C104.922 196.115 104.618 195.368 104.01 194.76C103.402 194.141 102.655 193.832 101.77 193.832C100.885 193.832 100.138 194.141 99.5299 194.76C98.9219 195.368 98.6179 196.115 98.6179 197C98.6179 197.885 98.9219 198.637 99.5299 199.256ZM109.046 195.096C109.046 195.459 109.206 195.747 109.526 195.96C109.846 196.173 110.235 196.339 110.694 196.456C111.152 196.573 111.611 196.707 112.07 196.856C112.528 196.995 112.918 197.235 113.238 197.576C113.558 197.907 113.718 198.344 113.718 198.888C113.718 199.571 113.446 200.125 112.902 200.552C112.368 200.979 111.675 201.192 110.822 201.192C110.054 201.192 109.398 201.021 108.854 200.68C108.32 200.339 107.947 199.896 107.734 199.352L108.63 198.824C108.779 199.24 109.046 199.571 109.43 199.816C109.824 200.051 110.288 200.168 110.822 200.168C111.344 200.168 111.782 200.067 112.134 199.864C112.486 199.651 112.662 199.325 112.662 198.888C112.662 198.525 112.502 198.237 112.182 198.024C111.862 197.811 111.472 197.645 111.014 197.528C110.555 197.411 110.096 197.283 109.638 197.144C109.179 196.995 108.79 196.755 108.47 196.424C108.15 196.083 107.99 195.64 107.99 195.096C107.99 194.445 108.246 193.901 108.758 193.464C109.28 193.027 109.936 192.808 110.726 192.808C111.376 192.808 111.947 192.957 112.438 193.256C112.928 193.544 113.291 193.939 113.526 194.44L112.646 194.952C112.336 194.205 111.696 193.832 110.726 193.832C110.267 193.832 109.872 193.944 109.542 194.168C109.211 194.381 109.046 194.691 109.046 195.096ZM118.941 192.808C120.125 192.808 121.08 193.229 121.805 194.072C122.541 194.904 122.909 195.891 122.909 197.032C122.909 197.149 122.898 197.315 122.877 197.528H115.853C115.96 198.339 116.301 198.984 116.877 199.464C117.464 199.933 118.184 200.168 119.037 200.168C119.645 200.168 120.168 200.045 120.605 199.8C121.053 199.544 121.389 199.213 121.613 198.808L122.541 199.352C122.189 199.917 121.709 200.365 121.101 200.696C120.493 201.027 119.8 201.192 119.021 201.192C117.762 201.192 116.738 200.797 115.949 200.008C115.16 199.219 114.765 198.216 114.765 197C114.765 195.805 115.154 194.808 115.933 194.008C116.712 193.208 117.714 192.808 118.941 192.808ZM118.941 193.832C118.109 193.832 117.41 194.083 116.845 194.584C116.29 195.075 115.96 195.715 115.853 196.504H121.821C121.714 195.661 121.389 195.005 120.845 194.536C120.301 194.067 119.666 193.832 118.941 193.832Z" fill="white"/>
</svg>
