<svg width="718" height="459" viewBox="0 0 718 459" fill="none" xmlns="http://www.w3.org/2000/svg">
<path d="M121.792 124.2V132.648H109.696V169H100.864V132.648H88.832V124.2H121.792ZM142.64 137H151.472L139.824 169C138.16 173.608 135.941 176.936 133.168 178.984C130.437 181.075 127.024 182.013 122.928 181.8V174.12C125.147 174.163 126.896 173.693 128.176 172.712C129.499 171.731 130.544 170.152 131.312 167.976L118.192 137H127.216L135.536 158.504L142.64 137ZM174.025 136.104C178.334 136.104 182.004 137.747 185.033 141.032C188.105 144.275 189.641 148.264 189.641 153C189.641 157.736 188.105 161.747 185.033 165.032C182.004 168.275 178.334 169.896 174.025 169.896C169.545 169.896 166.089 168.339 163.657 165.224V181.8H155.401V137H163.657V140.776C166.089 137.661 169.545 136.104 174.025 136.104ZM166.153 159.528C167.817 161.192 169.929 162.024 172.489 162.024C175.049 162.024 177.161 161.192 178.825 159.528C180.532 157.821 181.385 155.645 181.385 153C181.385 150.355 180.532 148.2 178.825 146.536C177.161 144.829 175.049 143.976 172.489 143.976C169.929 143.976 167.817 144.829 166.153 146.536C164.489 148.2 163.657 150.355 163.657 153C163.657 155.645 164.489 157.821 166.153 159.528ZM202.44 156.392C203.549 160.403 206.557 162.408 211.464 162.408C214.621 162.408 217.01 161.341 218.632 159.208L225.288 163.048C222.13 167.613 217.48 169.896 211.336 169.896C206.045 169.896 201.8 168.296 198.6 165.096C195.4 161.896 193.799 157.864 193.799 153C193.799 148.179 195.378 144.168 198.536 140.968C201.693 137.725 205.746 136.104 210.696 136.104C215.389 136.104 219.25 137.725 222.28 140.968C225.352 144.211 226.888 148.221 226.888 153C226.888 154.067 226.781 155.197 226.568 156.392H202.44ZM202.312 149.992H218.632C218.162 147.816 217.181 146.195 215.688 145.128C214.237 144.061 212.573 143.528 210.696 143.528C208.477 143.528 206.642 144.104 205.192 145.256C203.741 146.365 202.781 147.944 202.312 149.992ZM264.331 169.896C259.894 169.896 256.16 168.915 253.131 166.952C250.102 164.947 247.968 162.237 246.731 158.824L254.283 154.408C256.032 158.973 259.467 161.256 264.587 161.256C267.062 161.256 268.875 160.808 270.027 159.912C271.179 159.016 271.755 157.885 271.755 156.52C271.755 154.941 271.051 153.725 269.643 152.872C268.235 151.976 265.718 151.016 262.091 149.992C260.086 149.395 258.379 148.797 256.971 148.2C255.606 147.603 254.219 146.813 252.811 145.832C251.446 144.808 250.4 143.528 249.675 141.992C248.95 140.456 248.587 138.664 248.587 136.616C248.587 132.563 250.016 129.341 252.875 126.952C255.776 124.52 259.254 123.304 263.307 123.304C266.934 123.304 270.112 124.2 272.843 125.992C275.616 127.741 277.771 130.195 279.307 133.352L271.883 137.64C270.091 133.8 267.232 131.88 263.307 131.88C261.472 131.88 260.022 132.307 258.955 133.16C257.931 133.971 257.419 135.037 257.419 136.36C257.419 137.768 257.995 138.92 259.147 139.816C260.342 140.669 262.603 141.608 265.931 142.632C267.296 143.059 268.32 143.4 269.003 143.656C269.728 143.869 270.688 144.232 271.883 144.744C273.12 145.213 274.059 145.661 274.699 146.088C275.382 146.515 276.15 147.091 277.003 147.816C277.856 148.541 278.496 149.288 278.923 150.056C279.392 150.824 279.776 151.763 280.075 152.872C280.416 153.939 280.587 155.112 280.587 156.392C280.587 160.531 279.072 163.816 276.043 166.248C273.056 168.68 269.152 169.896 264.331 169.896ZM302.071 169.896C297.249 169.896 293.217 168.275 289.975 165.032C286.775 161.789 285.174 157.779 285.174 153C285.174 148.221 286.775 144.211 289.975 140.968C293.217 137.725 297.249 136.104 302.071 136.104C305.185 136.104 308.023 136.851 310.583 138.344C313.143 139.837 315.084 141.843 316.407 144.36L309.303 148.52C308.663 147.197 307.681 146.152 306.359 145.384C305.079 144.616 303.628 144.232 302.007 144.232C299.532 144.232 297.484 145.064 295.863 146.728C294.241 148.349 293.431 150.44 293.431 153C293.431 155.517 294.241 157.608 295.863 159.272C297.484 160.893 299.532 161.704 302.007 161.704C303.671 161.704 305.143 161.341 306.423 160.616C307.745 159.848 308.727 158.803 309.367 157.48L316.535 161.576C315.127 164.093 313.143 166.12 310.583 167.656C308.023 169.149 305.185 169.896 302.071 169.896ZM344.721 137H352.977V169H344.721V165.224C342.246 168.339 338.769 169.896 334.289 169.896C330.022 169.896 326.353 168.275 323.281 165.032C320.252 161.747 318.737 157.736 318.737 153C318.737 148.264 320.252 144.275 323.281 141.032C326.353 137.747 330.022 136.104 334.289 136.104C338.769 136.104 342.246 137.661 344.721 140.776V137ZM329.489 159.528C331.153 161.192 333.265 162.024 335.825 162.024C338.385 162.024 340.497 161.192 342.161 159.528C343.868 157.821 344.721 155.645 344.721 153C344.721 150.355 343.868 148.2 342.161 146.536C340.497 144.829 338.385 143.976 335.825 143.976C333.265 143.976 331.153 144.829 329.489 146.536C327.825 148.2 326.993 150.355 326.993 153C326.993 155.645 327.825 157.821 329.489 159.528ZM360.464 169V122.28H368.72V169H360.464ZM383.252 156.392C384.361 160.403 387.369 162.408 392.276 162.408C395.433 162.408 397.823 161.341 399.444 159.208L406.1 163.048C402.943 167.613 398.292 169.896 392.148 169.896C386.857 169.896 382.612 168.296 379.412 165.096C376.212 161.896 374.612 157.864 374.612 153C374.612 148.179 376.191 144.168 379.348 140.968C382.505 137.725 386.559 136.104 391.508 136.104C396.201 136.104 400.063 137.725 403.092 140.968C406.164 144.211 407.7 148.221 407.7 153C407.7 154.067 407.593 155.197 407.38 156.392H383.252ZM383.124 149.992H399.444C398.975 147.816 397.993 146.195 396.5 145.128C395.049 144.061 393.385 143.528 391.508 143.528C389.289 143.528 387.455 144.104 386.004 145.256C384.553 146.365 383.593 147.944 383.124 149.992ZM462.616 143.72H455.704L454.744 149.48H461.72L460.696 155.688H453.656L451.992 165.8H445.464L447.128 155.688H440.6L438.936 165.8H432.472L434.135 155.688H427.16L428.184 149.48H435.224L436.184 143.72H429.08L430.104 137.448H437.208L438.872 127.4H445.336L443.672 137.448H450.2L451.864 127.4H458.392L456.728 137.448H463.64L462.616 143.72ZM448.216 149.48L449.176 143.72H442.648L441.688 149.48H448.216ZM477.605 124.2H485.285V169H476.453V133.544L468.005 135.912L465.829 128.36L477.605 124.2Z" fill="white"/>
<path d="M104.988 86.004V86.436C104.988 87.476 104.616 88.356 103.872 89.076C103.128 89.788 102.132 90.144 100.884 90.144C99.612 90.144 98.56 89.724 97.728 88.884C96.896 88.044 96.48 87.016 96.48 85.8C96.48 84.584 96.896 83.556 97.728 82.716C98.56 81.876 99.612 81.456 100.884 81.456C101.66 81.456 102.372 81.644 103.02 82.02C103.668 82.396 104.168 82.896 104.52 83.52L103.776 83.952C103.512 83.44 103.12 83.032 102.6 82.728C102.08 82.424 101.508 82.272 100.884 82.272C99.836 82.272 98.98 82.612 98.316 83.292C97.652 83.972 97.32 84.808 97.32 85.8C97.32 86.792 97.652 87.628 98.316 88.308C98.98 88.988 99.836 89.328 100.884 89.328C101.828 89.328 102.584 89.092 103.152 88.62C103.72 88.14 104.044 87.532 104.124 86.796H100.788V86.004H104.988ZM107.113 82.56C107.001 82.672 106.865 82.728 106.705 82.728C106.545 82.728 106.409 82.672 106.297 82.56C106.185 82.448 106.129 82.312 106.129 82.152C106.129 81.992 106.185 81.856 106.297 81.744C106.409 81.632 106.545 81.576 106.705 81.576C106.865 81.576 107.001 81.632 107.113 81.744C107.225 81.856 107.281 81.992 107.281 82.152C107.281 82.312 107.225 82.448 107.113 82.56ZM106.309 90V84H107.101V90H106.309ZM108.781 90V81.24H109.573V90H108.781ZM112.046 84.996C112.414 84.268 113.046 83.904 113.942 83.904V84.672C113.398 84.672 112.946 84.832 112.586 85.152C112.226 85.472 112.046 85.976 112.046 86.664V90H111.254V84H112.046V84.996ZM119.692 89.244C119.084 89.844 118.34 90.144 117.46 90.144C116.58 90.144 115.832 89.844 115.216 89.244C114.608 88.636 114.304 87.888 114.304 87C114.304 86.112 114.608 85.368 115.216 84.768C115.832 84.16 116.58 83.856 117.46 83.856C118.34 83.856 119.084 84.16 119.692 84.768C120.308 85.368 120.616 86.112 120.616 87C120.616 87.888 120.308 88.636 119.692 89.244ZM115.78 88.692C116.236 89.148 116.796 89.376 117.46 89.376C118.124 89.376 118.684 89.148 119.14 88.692C119.596 88.228 119.824 87.664 119.824 87C119.824 86.336 119.596 85.776 119.14 85.32C118.684 84.856 118.124 84.624 117.46 84.624C116.796 84.624 116.236 84.856 115.78 85.32C115.324 85.776 115.096 86.336 115.096 87C115.096 87.664 115.324 88.228 115.78 88.692ZM126.027 84H126.867L124.299 90.552C124.067 91.144 123.735 91.608 123.303 91.944C122.879 92.288 122.403 92.44 121.875 92.4V91.656C122.595 91.736 123.143 91.32 123.519 90.408L123.675 90.036L120.987 84H121.827L124.083 89.028L126.027 84Z" fill="white" fill-opacity="0.8"/>
<path d="M146.616 85.644C147.024 85.82 147.348 86.088 147.588 86.448C147.836 86.8 147.96 87.204 147.96 87.66C147.96 88.308 147.732 88.86 147.276 89.316C146.82 89.772 146.268 90 145.62 90H141.96V81.6H145.344C145.968 81.6 146.5 81.824 146.94 82.272C147.38 82.712 147.6 83.24 147.6 83.856C147.6 84.64 147.272 85.236 146.616 85.644ZM145.344 82.392H142.8V85.32H145.344C145.736 85.32 146.068 85.18 146.34 84.9C146.62 84.612 146.76 84.264 146.76 83.856C146.76 83.456 146.62 83.112 146.34 82.824C146.068 82.536 145.736 82.392 145.344 82.392ZM145.62 89.208C146.036 89.208 146.388 89.06 146.676 88.764C146.972 88.46 147.12 88.092 147.12 87.66C147.12 87.236 146.972 86.872 146.676 86.568C146.388 86.264 146.036 86.112 145.62 86.112H142.8V89.208H145.62ZM154.309 89.244C153.701 89.844 152.957 90.144 152.077 90.144C151.197 90.144 150.449 89.844 149.833 89.244C149.225 88.636 148.921 87.888 148.921 87C148.921 86.112 149.225 85.368 149.833 84.768C150.449 84.16 151.197 83.856 152.077 83.856C152.957 83.856 153.701 84.16 154.309 84.768C154.925 85.368 155.233 86.112 155.233 87C155.233 87.888 154.925 88.636 154.309 89.244ZM150.397 88.692C150.853 89.148 151.413 89.376 152.077 89.376C152.741 89.376 153.301 89.148 153.757 88.692C154.213 88.228 154.441 87.664 154.441 87C154.441 86.336 154.213 85.776 153.757 85.32C153.301 84.856 152.741 84.624 152.077 84.624C151.413 84.624 150.853 84.856 150.397 85.32C149.941 85.776 149.713 86.336 149.713 87C149.713 87.664 149.941 88.228 150.397 88.692ZM156.559 90V81.24H157.351V90H156.559ZM164.191 81.6H164.983V90H164.191V88.824C163.639 89.704 162.831 90.144 161.767 90.144C160.911 90.144 160.179 89.84 159.571 89.232C158.971 88.624 158.671 87.88 158.671 87C158.671 86.12 158.971 85.376 159.571 84.768C160.179 84.16 160.911 83.856 161.767 83.856C162.831 83.856 163.639 84.296 164.191 85.176V81.6ZM160.147 88.692C160.603 89.148 161.163 89.376 161.827 89.376C162.491 89.376 163.051 89.148 163.507 88.692C163.963 88.228 164.191 87.664 164.191 87C164.191 86.336 163.963 85.776 163.507 85.32C163.051 84.856 162.491 84.624 161.827 84.624C161.163 84.624 160.603 84.856 160.147 85.32C159.691 85.776 159.463 86.336 159.463 87C159.463 87.664 159.691 88.228 160.147 88.692Z" fill="white" fill-opacity="0.8"/>
<circle cx="134" cy="85" r="1" fill="white" fill-opacity="0.8"/>
<path d="M199.36 80.6H200.2V89H199.36V85.076H194.8V89H193.96V80.6H194.8V84.284H199.36V80.6ZM204.768 82.856C205.656 82.856 206.372 83.172 206.916 83.804C207.468 84.428 207.744 85.168 207.744 86.024C207.744 86.112 207.736 86.236 207.72 86.396H202.452C202.532 87.004 202.788 87.488 203.22 87.848C203.66 88.2 204.2 88.376 204.84 88.376C205.296 88.376 205.688 88.284 206.016 88.1C206.352 87.908 206.604 87.66 206.772 87.356L207.468 87.764C207.204 88.188 206.844 88.524 206.388 88.772C205.932 89.02 205.412 89.144 204.828 89.144C203.884 89.144 203.116 88.848 202.524 88.256C201.932 87.664 201.636 86.912 201.636 86C201.636 85.104 201.928 84.356 202.512 83.756C203.096 83.156 203.848 82.856 204.768 82.856ZM204.768 83.624C204.144 83.624 203.62 83.812 203.196 84.188C202.78 84.556 202.532 85.036 202.452 85.628H206.928C206.848 84.996 206.604 84.504 206.196 84.152C205.788 83.8 205.312 83.624 204.768 83.624ZM209.796 83.996C210.164 83.268 210.796 82.904 211.692 82.904V83.672C211.148 83.672 210.696 83.832 210.336 84.152C209.976 84.472 209.796 84.976 209.796 85.664V89H209.004V83H209.796V83.996ZM217.442 88.244C216.834 88.844 216.09 89.144 215.21 89.144C214.33 89.144 213.582 88.844 212.966 88.244C212.358 87.636 212.054 86.888 212.054 86C212.054 85.112 212.358 84.368 212.966 83.768C213.582 83.16 214.33 82.856 215.21 82.856C216.09 82.856 216.834 83.16 217.442 83.768C218.058 84.368 218.366 85.112 218.366 86C218.366 86.888 218.058 87.636 217.442 88.244ZM213.53 87.692C213.986 88.148 214.546 88.376 215.21 88.376C215.874 88.376 216.434 88.148 216.89 87.692C217.346 87.228 217.574 86.664 217.574 86C217.574 85.336 217.346 84.776 216.89 84.32C216.434 83.856 215.874 83.624 215.21 83.624C214.546 83.624 213.986 83.856 213.53 84.32C213.074 84.776 212.846 85.336 212.846 86C212.846 86.664 213.074 87.228 213.53 87.692Z" fill="#F4F6F8"/>
<rect x="183" y="71" width="46" height="30" rx="15" stroke="#1E222A" stroke-width="2"/>
<path d="M60.18 83.6C61.004 83.6 61.68 83.86 62.208 84.38C62.736 84.892 63 85.556 63 86.372C63 87.188 62.736 87.856 62.208 88.376C61.68 88.888 61.004 89.144 60.18 89.144C59.356 89.144 58.68 88.888 58.152 88.376C57.624 87.856 57.36 87.188 57.36 86.372C57.36 85.74 57.532 85.18 57.876 84.692L60.624 80.6H61.572L59.508 83.672C59.724 83.624 59.948 83.6 60.18 83.6ZM58.74 87.788C59.108 88.148 59.588 88.328 60.18 88.328C60.772 88.328 61.248 88.148 61.608 87.788C61.976 87.428 62.16 86.956 62.16 86.372C62.16 85.788 61.976 85.316 61.608 84.956C61.248 84.596 60.772 84.416 60.18 84.416C59.588 84.416 59.108 84.596 58.74 84.956C58.38 85.316 58.2 85.788 58.2 86.372C58.2 86.956 58.38 87.428 58.74 87.788ZM70.2577 86.528V87.32H69.1777V89H68.3377V87.32H63.8977V86.528L67.0177 80.6H67.9417L64.8217 86.528H68.3377V83.96H69.1777V86.528H70.2577Z" fill="#F4F6F8"/>
<circle cx="64" cy="86" r="15" stroke="#1E222A" stroke-width="2"/>
<path d="M97.36 257.4V258.588H93.49V270H92.23V258.588H88.36V257.4H97.36ZM103.193 260.784C104.285 260.784 105.143 261.12 105.767 261.792C106.403 262.452 106.721 263.346 106.721 264.474V270H105.533V264.474C105.533 263.67 105.317 263.046 104.885 262.602C104.465 262.158 103.865 261.936 103.085 261.936C102.221 261.936 101.519 262.212 100.979 262.764C100.439 263.304 100.169 264.144 100.169 265.284V270H98.9807V257.4H100.169V262.404C100.841 261.324 101.849 260.784 103.193 260.784ZM110.224 258.84C110.056 259.008 109.852 259.092 109.612 259.092C109.372 259.092 109.168 259.008 109 258.84C108.832 258.672 108.748 258.468 108.748 258.228C108.748 257.988 108.832 257.784 109 257.616C109.168 257.448 109.372 257.364 109.612 257.364C109.852 257.364 110.056 257.448 110.224 257.616C110.392 257.784 110.476 257.988 110.476 258.228C110.476 258.468 110.392 258.672 110.224 258.84ZM109.018 270V261H110.206V270H109.018ZM113.663 263.358C113.663 263.766 113.843 264.09 114.203 264.33C114.563 264.57 115.001 264.756 115.517 264.888C116.033 265.02 116.549 265.17 117.065 265.338C117.581 265.494 118.019 265.764 118.379 266.148C118.739 266.52 118.919 267.012 118.919 267.624C118.919 268.392 118.613 269.016 118.001 269.496C117.401 269.976 116.621 270.216 115.661 270.216C114.797 270.216 114.059 270.024 113.447 269.64C112.847 269.256 112.427 268.758 112.187 268.146L113.195 267.552C113.363 268.02 113.663 268.392 114.095 268.668C114.539 268.932 115.061 269.064 115.661 269.064C116.249 269.064 116.741 268.95 117.137 268.722C117.533 268.482 117.731 268.116 117.731 267.624C117.731 267.216 117.551 266.892 117.191 266.652C116.831 266.412 116.393 266.226 115.877 266.094C115.361 265.962 114.845 265.818 114.329 265.662C113.813 265.494 113.375 265.224 113.015 264.852C112.655 264.468 112.475 263.97 112.475 263.358C112.475 262.626 112.763 262.014 113.339 261.522C113.927 261.03 114.665 260.784 115.553 260.784C116.285 260.784 116.927 260.952 117.479 261.288C118.031 261.612 118.439 262.056 118.703 262.62L117.713 263.196C117.365 262.356 116.645 261.936 115.553 261.936C115.037 261.936 114.593 262.062 114.221 262.314C113.849 262.554 113.663 262.902 113.663 263.358ZM129.613 260.784C130.705 260.784 131.563 261.12 132.187 261.792C132.823 262.452 133.141 263.346 133.141 264.474V270H131.953V264.474C131.953 263.67 131.737 263.046 131.305 262.602C130.885 262.158 130.285 261.936 129.505 261.936C128.641 261.936 127.939 262.212 127.399 262.764C126.859 263.304 126.589 264.144 126.589 265.284V270H125.401V257.4H126.589V262.404C127.261 261.324 128.269 260.784 129.613 260.784ZM142.98 268.866C142.068 269.766 140.952 270.216 139.632 270.216C138.312 270.216 137.19 269.766 136.266 268.866C135.354 267.954 134.898 266.832 134.898 265.5C134.898 264.168 135.354 263.052 136.266 262.152C137.19 261.24 138.312 260.784 139.632 260.784C140.952 260.784 142.068 261.24 142.98 262.152C143.904 263.052 144.366 264.168 144.366 265.5C144.366 266.832 143.904 267.954 142.98 268.866ZM137.112 268.038C137.796 268.722 138.636 269.064 139.632 269.064C140.628 269.064 141.468 268.722 142.152 268.038C142.836 267.342 143.178 266.496 143.178 265.5C143.178 264.504 142.836 263.664 142.152 262.98C141.468 262.284 140.628 261.936 139.632 261.936C138.636 261.936 137.796 262.284 137.112 262.98C136.428 263.664 136.086 264.504 136.086 265.5C136.086 266.496 136.428 267.342 137.112 268.038ZM156.838 261H158.062L155.29 270H153.994L151.672 262.746L149.35 270H148.054L145.282 261H146.506L148.72 268.47L151.078 261H152.266L154.624 268.47L156.838 261ZM175.19 261H176.414L173.642 270H172.346L170.024 262.746L167.702 270H166.406L163.634 261H164.858L167.072 268.47L169.43 261H170.618L172.976 268.47L175.19 261ZM182.012 260.784C183.344 260.784 184.418 261.258 185.234 262.206C186.062 263.142 186.476 264.252 186.476 265.536C186.476 265.668 186.464 265.854 186.44 266.094H178.538C178.658 267.006 179.042 267.732 179.69 268.272C180.35 268.8 181.16 269.064 182.12 269.064C182.804 269.064 183.392 268.926 183.884 268.65C184.388 268.362 184.766 267.99 185.018 267.534L186.062 268.146C185.666 268.782 185.126 269.286 184.442 269.658C183.758 270.03 182.978 270.216 182.102 270.216C180.686 270.216 179.534 269.772 178.646 268.884C177.758 267.996 177.314 266.868 177.314 265.5C177.314 264.156 177.752 263.034 178.628 262.134C179.504 261.234 180.632 260.784 182.012 260.784ZM182.012 261.936C181.076 261.936 180.29 262.218 179.654 262.782C179.03 263.334 178.658 264.054 178.538 264.942H185.252C185.132 263.994 184.766 263.256 184.154 262.728C183.542 262.2 182.828 261.936 182.012 261.936ZM197.689 260.784C198.973 260.784 200.065 261.24 200.965 262.152C201.877 263.064 202.333 264.18 202.333 265.5C202.333 266.82 201.877 267.936 200.965 268.848C200.065 269.76 198.973 270.216 197.689 270.216C196.093 270.216 194.881 269.556 194.053 268.236V270H192.865V257.4H194.053V262.764C194.881 261.444 196.093 260.784 197.689 260.784ZM195.079 268.038C195.763 268.722 196.603 269.064 197.599 269.064C198.595 269.064 199.435 268.722 200.119 268.038C200.803 267.342 201.145 266.496 201.145 265.5C201.145 264.504 200.803 263.664 200.119 262.98C199.435 262.284 198.595 261.936 197.599 261.936C196.603 261.936 195.763 262.284 195.079 262.98C194.395 263.664 194.053 264.504 194.053 265.5C194.053 266.496 194.395 267.342 195.079 268.038ZM210.645 261H211.833V270H210.645V268.596C209.973 269.676 208.965 270.216 207.621 270.216C206.529 270.216 205.665 269.886 205.029 269.226C204.405 268.554 204.093 267.654 204.093 266.526V261H205.281V266.526C205.281 267.33 205.491 267.954 205.911 268.398C206.343 268.842 206.949 269.064 207.729 269.064C208.593 269.064 209.295 268.794 209.835 268.254C210.375 267.702 210.645 266.856 210.645 265.716V261ZM215.552 258.84C215.384 259.008 215.18 259.092 214.94 259.092C214.7 259.092 214.496 259.008 214.328 258.84C214.16 258.672 214.076 258.468 214.076 258.228C214.076 257.988 214.16 257.784 214.328 257.616C214.496 257.448 214.7 257.364 214.94 257.364C215.18 257.364 215.384 257.448 215.552 257.616C215.72 257.784 215.804 257.988 215.804 258.228C215.804 258.468 215.72 258.672 215.552 258.84ZM214.346 270V261H215.534V270H214.346ZM218.055 270V256.86H219.243V270H218.055ZM229.504 257.4H230.692V270H229.504V268.236C228.676 269.556 227.464 270.216 225.868 270.216C224.584 270.216 223.486 269.76 222.574 268.848C221.674 267.936 221.224 266.82 221.224 265.5C221.224 264.18 221.674 263.064 222.574 262.152C223.486 261.24 224.584 260.784 225.868 260.784C227.464 260.784 228.676 261.444 229.504 262.764V257.4ZM223.438 268.038C224.122 268.722 224.962 269.064 225.958 269.064C226.954 269.064 227.794 268.722 228.478 268.038C229.162 267.342 229.504 266.496 229.504 265.5C229.504 264.504 229.162 263.664 228.478 262.98C227.794 262.284 226.954 261.936 225.958 261.936C224.962 261.936 224.122 262.284 223.438 262.98C222.754 263.664 222.412 264.504 222.412 265.5C222.412 266.496 222.754 267.342 223.438 268.038ZM242.477 262.152H239.885V267.606C239.885 268.098 239.981 268.452 240.173 268.668C240.365 268.872 240.653 268.98 241.037 268.992C241.421 268.992 241.901 268.98 242.477 268.956V270C241.217 270.192 240.269 270.102 239.633 269.73C239.009 269.358 238.697 268.65 238.697 267.606V262.152H236.807V261H238.697V258.84L239.885 258.48V261H242.477V262.152ZM248.669 260.784C249.761 260.784 250.619 261.12 251.243 261.792C251.879 262.452 252.197 263.346 252.197 264.474V270H251.009V264.474C251.009 263.67 250.793 263.046 250.361 262.602C249.941 262.158 249.341 261.936 248.561 261.936C247.697 261.936 246.995 262.212 246.455 262.764C245.915 263.304 245.645 264.144 245.645 265.284V270H244.457V257.4H245.645V262.404C246.317 261.324 247.325 260.784 248.669 260.784ZM258.652 260.784C259.984 260.784 261.058 261.258 261.874 262.206C262.702 263.142 263.116 264.252 263.116 265.536C263.116 265.668 263.104 265.854 263.08 266.094H255.178C255.298 267.006 255.682 267.732 256.33 268.272C256.99 268.8 257.8 269.064 258.76 269.064C259.444 269.064 260.032 268.926 260.524 268.65C261.028 268.362 261.406 267.99 261.658 267.534L262.702 268.146C262.306 268.782 261.766 269.286 261.082 269.658C260.398 270.03 259.618 270.216 258.742 270.216C257.326 270.216 256.174 269.772 255.286 268.884C254.398 267.996 253.954 266.868 253.954 265.5C253.954 264.156 254.392 263.034 255.268 262.134C256.144 261.234 257.272 260.784 258.652 260.784ZM258.652 261.936C257.716 261.936 256.93 262.218 256.294 262.782C255.67 263.334 255.298 264.054 255.178 264.942H261.892C261.772 263.994 261.406 263.256 260.794 262.728C260.182 262.2 259.468 261.936 258.652 261.936ZM270.694 262.494C271.246 261.402 272.194 260.856 273.538 260.856V262.008C272.722 262.008 272.044 262.248 271.504 262.728C270.964 263.208 270.694 263.964 270.694 264.996V270H269.506V261H270.694V262.494ZM276.372 258.84C276.204 259.008 276 259.092 275.76 259.092C275.52 259.092 275.316 259.008 275.148 258.84C274.98 258.672 274.896 258.468 274.896 258.228C274.896 257.988 274.98 257.784 275.148 257.616C275.316 257.448 275.52 257.364 275.76 257.364C276 257.364 276.204 257.448 276.372 257.616C276.54 257.784 276.624 257.988 276.624 258.228C276.624 258.468 276.54 258.672 276.372 258.84ZM275.166 270V261H276.354V270H275.166ZM286.615 261H287.803V269.64C287.803 270.936 287.359 271.956 286.471 272.7C285.583 273.444 284.521 273.816 283.285 273.816C281.173 273.816 279.751 273.084 279.019 271.62L280.063 271.026C280.603 272.118 281.677 272.664 283.285 272.664C284.317 272.664 285.127 272.388 285.715 271.836C286.315 271.296 286.615 270.564 286.615 269.64V268.236C285.787 269.556 284.575 270.216 282.979 270.216C281.695 270.216 280.597 269.76 279.685 268.848C278.785 267.936 278.335 266.82 278.335 265.5C278.335 264.18 278.785 263.064 279.685 262.152C280.597 261.24 281.695 260.784 282.979 260.784C284.575 260.784 285.787 261.444 286.615 262.764V261ZM280.549 268.038C281.233 268.722 282.073 269.064 283.069 269.064C284.065 269.064 284.905 268.722 285.589 268.038C286.273 267.342 286.615 266.496 286.615 265.5C286.615 264.504 286.273 263.664 285.589 262.98C284.905 262.284 284.065 261.936 283.069 261.936C282.073 261.936 281.233 262.284 280.549 262.98C279.865 263.664 279.523 264.504 279.523 265.5C279.523 266.496 279.865 267.342 280.549 268.038ZM294.531 260.784C295.623 260.784 296.481 261.12 297.105 261.792C297.741 262.452 298.059 263.346 298.059 264.474V270H296.871V264.474C296.871 263.67 296.655 263.046 296.223 262.602C295.803 262.158 295.203 261.936 294.423 261.936C293.559 261.936 292.857 262.212 292.317 262.764C291.777 263.304 291.507 264.144 291.507 265.284V270H290.319V257.4H291.507V262.404C292.179 261.324 293.187 260.784 294.531 260.784ZM305.126 262.152H302.534V267.606C302.534 268.098 302.63 268.452 302.822 268.668C303.014 268.872 303.302 268.98 303.686 268.992C304.07 268.992 304.55 268.98 305.126 268.956V270C303.866 270.192 302.918 270.102 302.282 269.73C301.658 269.358 301.346 268.65 301.346 267.606V262.152H299.456V261H301.346V258.84L302.534 258.48V261H305.126V262.152ZM316.376 262.152H313.784V267.606C313.784 268.098 313.88 268.452 314.072 268.668C314.264 268.872 314.552 268.98 314.936 268.992C315.32 268.992 315.8 268.98 316.376 268.956V270C315.116 270.192 314.168 270.102 313.532 269.73C312.908 269.358 312.596 268.65 312.596 267.606V262.152H310.706V261H312.596V258.84L313.784 258.48V261H316.376V262.152ZM321.969 260.784C323.301 260.784 324.375 261.258 325.191 262.206C326.019 263.142 326.433 264.252 326.433 265.536C326.433 265.668 326.421 265.854 326.397 266.094H318.495C318.615 267.006 318.999 267.732 319.647 268.272C320.307 268.8 321.117 269.064 322.077 269.064C322.761 269.064 323.349 268.926 323.841 268.65C324.345 268.362 324.723 267.99 324.975 267.534L326.019 268.146C325.623 268.782 325.083 269.286 324.399 269.658C323.715 270.03 322.935 270.216 322.059 270.216C320.643 270.216 319.491 269.772 318.603 268.884C317.715 267.996 317.271 266.868 317.271 265.5C317.271 264.156 317.709 263.034 318.585 262.134C319.461 261.234 320.589 260.784 321.969 260.784ZM321.969 261.936C321.033 261.936 320.247 262.218 319.611 262.782C318.987 263.334 318.615 264.054 318.495 264.942H325.209C325.089 263.994 324.723 263.256 324.111 262.728C323.499 262.2 322.785 261.936 321.969 261.936ZM335.531 270H334.109L331.301 266.292L328.493 270H327.071L330.599 265.338L327.305 261H328.727L331.301 264.402L333.875 261H335.297L332.021 265.338L335.531 270ZM341.917 262.152H339.325V267.606C339.325 268.098 339.421 268.452 339.613 268.668C339.805 268.872 340.093 268.98 340.477 268.992C340.861 268.992 341.341 268.98 341.917 268.956V270C340.657 270.192 339.709 270.102 339.073 269.73C338.449 269.358 338.137 268.65 338.137 267.606V262.152H336.247V261H338.137V258.84L339.325 258.48V261H341.917V262.152ZM352.609 260.784C353.701 260.784 354.559 261.12 355.183 261.792C355.819 262.452 356.137 263.346 356.137 264.474V270H354.949V264.474C354.949 263.67 354.733 263.046 354.301 262.602C353.881 262.158 353.281 261.936 352.501 261.936C351.637 261.936 350.935 262.212 350.395 262.764C349.855 263.304 349.585 264.144 349.585 265.284V270H348.397V257.4H349.585V262.404C350.257 261.324 351.265 260.784 352.609 260.784ZM359.64 258.84C359.472 259.008 359.268 259.092 359.028 259.092C358.788 259.092 358.584 259.008 358.416 258.84C358.248 258.672 358.164 258.468 358.164 258.228C358.164 257.988 358.248 257.784 358.416 257.616C358.584 257.448 358.788 257.364 359.028 257.364C359.268 257.364 359.472 257.448 359.64 257.616C359.808 257.784 359.892 257.988 359.892 258.228C359.892 258.468 359.808 258.672 359.64 258.84ZM358.434 270V261H359.622V270H358.434ZM366.301 260.784C367.633 260.784 368.707 261.258 369.523 262.206C370.351 263.142 370.765 264.252 370.765 265.536C370.765 265.668 370.753 265.854 370.729 266.094H362.827C362.947 267.006 363.331 267.732 363.979 268.272C364.639 268.8 365.449 269.064 366.409 269.064C367.093 269.064 367.681 268.926 368.173 268.65C368.677 268.362 369.055 267.99 369.307 267.534L370.351 268.146C369.955 268.782 369.415 269.286 368.731 269.658C368.047 270.03 367.267 270.216 366.391 270.216C364.975 270.216 363.823 269.772 362.935 268.884C362.047 267.996 361.603 266.868 361.603 265.5C361.603 264.156 362.041 263.034 362.917 262.134C363.793 261.234 364.921 260.784 366.301 260.784ZM366.301 261.936C365.365 261.936 364.579 262.218 363.943 262.782C363.319 263.334 362.947 264.054 362.827 264.942H369.541C369.421 263.994 369.055 263.256 368.443 262.728C367.831 262.2 367.117 261.936 366.301 261.936ZM380.395 261H381.583V270H380.395V268.236C379.567 269.556 378.355 270.216 376.759 270.216C375.475 270.216 374.377 269.76 373.465 268.848C372.565 267.936 372.115 266.82 372.115 265.5C372.115 264.18 372.565 263.064 373.465 262.152C374.377 261.24 375.475 260.784 376.759 260.784C378.355 260.784 379.567 261.444 380.395 262.764V261ZM374.329 268.038C375.013 268.722 375.853 269.064 376.849 269.064C377.845 269.064 378.685 268.722 379.369 268.038C380.053 267.342 380.395 266.496 380.395 265.5C380.395 264.504 380.053 263.664 379.369 262.98C378.685 262.284 377.845 261.936 376.849 261.936C375.853 261.936 375.013 262.284 374.329 262.98C373.645 263.664 373.303 264.504 373.303 265.5C373.303 266.496 373.645 267.342 374.329 268.038ZM385.286 262.494C385.838 261.402 386.786 260.856 388.13 260.856V262.008C387.314 262.008 386.636 262.248 386.096 262.728C385.556 263.208 385.286 263.964 385.286 264.996V270H384.098V261H385.286V262.494ZM393.407 270.216C392.051 270.216 390.923 269.766 390.023 268.866C389.123 267.954 388.673 266.832 388.673 265.5C388.673 264.168 389.123 263.052 390.023 262.152C390.923 261.24 392.051 260.784 393.407 260.784C394.295 260.784 395.093 261 395.801 261.432C396.509 261.852 397.025 262.422 397.349 263.142L396.377 263.7C396.137 263.16 395.747 262.734 395.207 262.422C394.679 262.098 394.079 261.936 393.407 261.936C392.411 261.936 391.571 262.284 390.887 262.98C390.203 263.664 389.861 264.504 389.861 265.5C389.861 266.496 390.203 267.342 390.887 268.038C391.571 268.722 392.411 269.064 393.407 269.064C394.079 269.064 394.679 268.908 395.207 268.596C395.735 268.272 396.149 267.84 396.449 267.3L397.439 267.876C397.067 268.596 396.521 269.166 395.801 269.586C395.081 270.006 394.283 270.216 393.407 270.216ZM403.357 260.784C404.449 260.784 405.307 261.12 405.931 261.792C406.567 262.452 406.885 263.346 406.885 264.474V270H405.697V264.474C405.697 263.67 405.481 263.046 405.049 262.602C404.629 262.158 404.029 261.936 403.249 261.936C402.385 261.936 401.683 262.212 401.143 262.764C400.603 263.304 400.333 264.144 400.333 265.284V270H399.145V257.4H400.333V262.404C401.005 261.324 402.013 260.784 403.357 260.784ZM415.486 261H416.746L412.894 270.828C412.546 271.716 412.048 272.412 411.4 272.916C410.764 273.432 410.05 273.66 409.258 273.6V272.484C410.338 272.604 411.16 271.98 411.724 270.612L411.958 270.054L407.926 261H409.186L412.57 268.542L415.486 261ZM430.224 268.866C429.312 269.766 428.196 270.216 426.876 270.216C425.556 270.216 424.434 269.766 423.51 268.866C422.598 267.954 422.142 266.832 422.142 265.5C422.142 264.168 422.598 263.052 423.51 262.152C424.434 261.24 425.556 260.784 426.876 260.784C428.196 260.784 429.312 261.24 430.224 262.152C431.148 263.052 431.61 264.168 431.61 265.5C431.61 266.832 431.148 267.954 430.224 268.866ZM424.356 268.038C425.04 268.722 425.88 269.064 426.876 269.064C427.872 269.064 428.712 268.722 429.396 268.038C430.08 267.342 430.422 266.496 430.422 265.5C430.422 264.504 430.08 263.664 429.396 262.98C428.712 262.284 427.872 261.936 426.876 261.936C425.88 261.936 425.04 262.284 424.356 262.98C423.672 263.664 423.33 264.504 423.33 265.5C423.33 266.496 423.672 267.342 424.356 268.038ZM439.726 261H440.986L437.296 270H435.856L432.166 261H433.426L436.576 268.758L439.726 261ZM446.229 260.784C447.561 260.784 448.635 261.258 449.451 262.206C450.279 263.142 450.693 264.252 450.693 265.536C450.693 265.668 450.681 265.854 450.657 266.094H442.755C442.875 267.006 443.259 267.732 443.907 268.272C444.567 268.8 445.377 269.064 446.337 269.064C447.021 269.064 447.609 268.926 448.101 268.65C448.605 268.362 448.983 267.99 449.235 267.534L450.279 268.146C449.883 268.782 449.343 269.286 448.659 269.658C447.975 270.03 447.195 270.216 446.319 270.216C444.903 270.216 443.751 269.772 442.863 268.884C441.975 267.996 441.531 266.868 441.531 265.5C441.531 264.156 441.969 263.034 442.845 262.134C443.721 261.234 444.849 260.784 446.229 260.784ZM446.229 261.936C445.293 261.936 444.507 262.218 443.871 262.782C443.247 263.334 442.875 264.054 442.755 264.942H449.469C449.349 263.994 448.983 263.256 448.371 262.728C447.759 262.2 447.045 261.936 446.229 261.936ZM453.77 262.494C454.322 261.402 455.27 260.856 456.614 260.856V262.008C455.798 262.008 455.12 262.248 454.58 262.728C454.04 263.208 453.77 263.964 453.77 264.996V270H452.582V261H453.77V262.494ZM467.512 262.152H464.92V267.606C464.92 268.098 465.016 268.452 465.208 268.668C465.4 268.872 465.688 268.98 466.072 268.992C466.456 268.992 466.936 268.98 467.512 268.956V270C466.252 270.192 465.304 270.102 464.668 269.73C464.044 269.358 463.732 268.65 463.732 267.606V262.152H461.842V261H463.732V258.84L464.92 258.48V261H467.512V262.152ZM473.704 260.784C474.796 260.784 475.654 261.12 476.278 261.792C476.914 262.452 477.232 263.346 477.232 264.474V270H476.044V264.474C476.044 263.67 475.828 263.046 475.396 262.602C474.976 262.158 474.376 261.936 473.596 261.936C472.732 261.936 472.03 262.212 471.49 262.764C470.95 263.304 470.68 264.144 470.68 265.284V270H469.492V257.4H470.68V262.404C471.352 261.324 472.36 260.784 473.704 260.784ZM483.688 260.784C485.02 260.784 486.094 261.258 486.91 262.206C487.738 263.142 488.152 264.252 488.152 265.536C488.152 265.668 488.14 265.854 488.116 266.094H480.214C480.334 267.006 480.718 267.732 481.366 268.272C482.026 268.8 482.836 269.064 483.796 269.064C484.48 269.064 485.068 268.926 485.56 268.65C486.064 268.362 486.442 267.99 486.694 267.534L487.738 268.146C487.342 268.782 486.802 269.286 486.118 269.658C485.434 270.03 484.654 270.216 483.778 270.216C482.362 270.216 481.21 269.772 480.322 268.884C479.434 267.996 478.99 266.868 478.99 265.5C478.99 264.156 479.428 263.034 480.304 262.134C481.18 261.234 482.308 260.784 483.688 260.784ZM483.688 261.936C482.752 261.936 481.966 262.218 481.33 262.782C480.706 263.334 480.334 264.054 480.214 264.942H486.928C486.808 263.994 486.442 263.256 485.83 262.728C485.218 262.2 484.504 261.936 483.688 261.936ZM505.377 261H506.601L503.829 270H502.533L500.211 262.746L497.889 270H496.593L493.821 261H495.045L497.259 268.47L499.617 261H500.805L503.163 268.47L505.377 261ZM512.605 260.784C513.697 260.784 514.555 261.12 515.179 261.792C515.815 262.452 516.133 263.346 516.133 264.474V270H514.945V264.474C514.945 263.67 514.729 263.046 514.297 262.602C513.877 262.158 513.277 261.936 512.497 261.936C511.633 261.936 510.931 262.212 510.391 262.764C509.851 263.304 509.581 264.144 509.581 265.284V270H508.393V257.4H509.581V262.404C510.253 261.324 511.261 260.784 512.605 260.784ZM525.972 268.866C525.06 269.766 523.944 270.216 522.624 270.216C521.304 270.216 520.182 269.766 519.258 268.866C518.346 267.954 517.89 266.832 517.89 265.5C517.89 264.168 518.346 263.052 519.258 262.152C520.182 261.24 521.304 260.784 522.624 260.784C523.944 260.784 525.06 261.24 525.972 262.152C526.896 263.052 527.358 264.168 527.358 265.5C527.358 266.832 526.896 267.954 525.972 268.866ZM520.104 268.038C520.788 268.722 521.628 269.064 522.624 269.064C523.62 269.064 524.46 268.722 525.144 268.038C525.828 267.342 526.17 266.496 526.17 265.5C526.17 264.504 525.828 263.664 525.144 262.98C524.46 262.284 523.62 261.936 522.624 261.936C521.628 261.936 520.788 262.284 520.104 262.98C519.42 263.664 519.078 264.504 519.078 265.5C519.078 266.496 519.42 267.342 520.104 268.038ZM529.346 270V256.86H530.534V270H529.346ZM537.213 260.784C538.545 260.784 539.619 261.258 540.435 262.206C541.263 263.142 541.677 264.252 541.677 265.536C541.677 265.668 541.665 265.854 541.641 266.094H533.739C533.859 267.006 534.243 267.732 534.891 268.272C535.551 268.8 536.361 269.064 537.321 269.064C538.005 269.064 538.593 268.926 539.085 268.65C539.589 268.362 539.967 267.99 540.219 267.534L541.263 268.146C540.867 268.782 540.327 269.286 539.643 269.658C538.959 270.03 538.179 270.216 537.303 270.216C535.887 270.216 534.735 269.772 533.847 268.884C532.959 267.996 532.515 266.868 532.515 265.5C532.515 264.156 532.953 263.034 533.829 262.134C534.705 261.234 535.833 260.784 537.213 260.784ZM537.213 261.936C536.277 261.936 535.491 262.218 534.855 262.782C534.231 263.334 533.859 264.054 533.739 264.942H540.453C540.333 263.994 539.967 263.256 539.355 262.728C538.743 262.2 538.029 261.936 537.213 261.936ZM94.084 289.784C95.368 289.784 96.46 290.24 97.36 291.152C98.272 292.064 98.728 293.18 98.728 294.5C98.728 295.82 98.272 296.936 97.36 297.848C96.46 298.76 95.368 299.216 94.084 299.216C92.488 299.216 91.276 298.556 90.448 297.236V302.6H89.26V290H90.448V291.764C91.276 290.444 92.488 289.784 94.084 289.784ZM91.474 297.038C92.158 297.722 92.998 298.064 93.994 298.064C94.99 298.064 95.83 297.722 96.514 297.038C97.198 296.342 97.54 295.496 97.54 294.5C97.54 293.504 97.198 292.664 96.514 291.98C95.83 291.284 94.99 290.936 93.994 290.936C92.998 290.936 92.158 291.284 91.474 291.98C90.79 292.664 90.448 293.504 90.448 294.5C90.448 295.496 90.79 296.342 91.474 297.038ZM100.703 299V285.86H101.891V299H100.703ZM112.152 290H113.34V299H112.152V297.236C111.324 298.556 110.112 299.216 108.516 299.216C107.232 299.216 106.134 298.76 105.222 297.848C104.322 296.936 103.872 295.82 103.872 294.5C103.872 293.18 104.322 292.064 105.222 291.152C106.134 290.24 107.232 289.784 108.516 289.784C110.112 289.784 111.324 290.444 112.152 291.764V290ZM106.086 297.038C106.77 297.722 107.61 298.064 108.606 298.064C109.602 298.064 110.442 297.722 111.126 297.038C111.81 296.342 112.152 295.496 112.152 294.5C112.152 293.504 111.81 292.664 111.126 291.98C110.442 291.284 109.602 290.936 108.606 290.936C107.61 290.936 106.77 291.284 106.086 291.98C105.402 292.664 105.06 293.504 105.06 294.5C105.06 295.496 105.402 296.342 106.086 297.038ZM120.626 291.152H118.034V296.606C118.034 297.098 118.13 297.452 118.322 297.668C118.514 297.872 118.802 297.98 119.186 297.992C119.57 297.992 120.05 297.98 120.626 297.956V299C119.366 299.192 118.418 299.102 117.782 298.73C117.158 298.358 116.846 297.65 116.846 296.606V291.152H114.956V290H116.846V287.84L118.034 287.48V290H120.626V291.152ZM126.649 287.336C125.773 287.264 125.119 287.414 124.687 287.786C124.267 288.158 124.057 288.776 124.057 289.64V290H126.649V291.152H124.057V299H122.869V291.152H121.339V290H122.869V289.64C122.869 288.464 123.193 287.576 123.841 286.976C124.501 286.364 125.437 286.1 126.649 286.184V287.336ZM134.911 297.866C133.999 298.766 132.883 299.216 131.563 299.216C130.243 299.216 129.121 298.766 128.197 297.866C127.285 296.954 126.829 295.832 126.829 294.5C126.829 293.168 127.285 292.052 128.197 291.152C129.121 290.24 130.243 289.784 131.563 289.784C132.883 289.784 133.999 290.24 134.911 291.152C135.835 292.052 136.297 293.168 136.297 294.5C136.297 295.832 135.835 296.954 134.911 297.866ZM129.043 297.038C129.727 297.722 130.567 298.064 131.563 298.064C132.559 298.064 133.399 297.722 134.083 297.038C134.767 296.342 135.109 295.496 135.109 294.5C135.109 293.504 134.767 292.664 134.083 291.98C133.399 291.284 132.559 290.936 131.563 290.936C130.567 290.936 129.727 291.284 129.043 291.98C128.359 292.664 128.017 293.504 128.017 294.5C128.017 295.496 128.359 296.342 129.043 297.038ZM139.473 291.494C140.025 290.402 140.973 289.856 142.317 289.856V291.008C141.501 291.008 140.823 291.248 140.283 291.728C139.743 292.208 139.473 292.964 139.473 293.996V299H138.285V290H139.473V291.494ZM153.54 289.784C154.548 289.784 155.358 290.108 155.97 290.756C156.594 291.404 156.906 292.28 156.906 293.384V299H155.718V293.384C155.718 292.604 155.514 292.004 155.106 291.584C154.71 291.152 154.182 290.936 153.522 290.936C152.778 290.936 152.172 291.188 151.704 291.692C151.248 292.184 151.02 292.958 151.02 294.014V299H149.832V293.384C149.832 292.592 149.64 291.986 149.256 291.566C148.884 291.146 148.374 290.936 147.726 290.936C147.006 290.936 146.394 291.188 145.89 291.692C145.386 292.196 145.134 292.97 145.134 294.014V299H143.946V290H145.134V291.314C145.782 290.294 146.7 289.784 147.888 289.784C149.184 289.784 150.096 290.33 150.624 291.422C151.272 290.33 152.244 289.784 153.54 289.784ZM160.715 298.892C160.523 299.084 160.289 299.18 160.013 299.18C159.737 299.18 159.503 299.084 159.311 298.892C159.119 298.7 159.023 298.466 159.023 298.19C159.023 297.914 159.119 297.68 159.311 297.488C159.503 297.296 159.737 297.2 160.013 297.2C160.289 297.2 160.523 297.296 160.715 297.488C160.907 297.68 161.003 297.914 161.003 298.19C161.003 298.466 160.907 298.7 160.715 298.892ZM170.786 299L167.132 286.4H168.464L171.578 297.29L174.854 286.4H176.33L179.606 297.29L182.72 286.4H184.052L180.398 299H178.886L175.592 288.056L172.298 299H170.786ZM188.938 289.784C190.27 289.784 191.344 290.258 192.16 291.206C192.988 292.142 193.402 293.252 193.402 294.536C193.402 294.668 193.39 294.854 193.366 295.094H185.464C185.584 296.006 185.968 296.732 186.616 297.272C187.276 297.8 188.086 298.064 189.046 298.064C189.73 298.064 190.318 297.926 190.81 297.65C191.314 297.362 191.692 296.99 191.944 296.534L192.988 297.146C192.592 297.782 192.052 298.286 191.368 298.658C190.684 299.03 189.904 299.216 189.028 299.216C187.612 299.216 186.46 298.772 185.572 297.884C184.684 296.996 184.24 295.868 184.24 294.5C184.24 293.156 184.678 292.034 185.554 291.134C186.43 290.234 187.558 289.784 188.938 289.784ZM188.938 290.936C188.002 290.936 187.216 291.218 186.58 291.782C185.956 292.334 185.584 293.054 185.464 293.942H192.178C192.058 292.994 191.692 292.256 191.08 291.728C190.468 291.2 189.754 290.936 188.938 290.936ZM207.531 290H208.719V299H207.531V297.236C206.703 298.556 205.491 299.216 203.895 299.216C202.611 299.216 201.513 298.76 200.601 297.848C199.701 296.936 199.251 295.82 199.251 294.5C199.251 293.18 199.701 292.064 200.601 291.152C201.513 290.24 202.611 289.784 203.895 289.784C205.491 289.784 206.703 290.444 207.531 291.764V290ZM201.465 297.038C202.149 297.722 202.989 298.064 203.985 298.064C204.981 298.064 205.821 297.722 206.505 297.038C207.189 296.342 207.531 295.496 207.531 294.5C207.531 293.504 207.189 292.664 206.505 291.98C205.821 291.284 204.981 290.936 203.985 290.936C202.989 290.936 202.149 291.284 201.465 291.98C200.781 292.664 200.439 293.504 200.439 294.5C200.439 295.496 200.781 296.342 201.465 297.038ZM212.423 291.494C212.975 290.402 213.923 289.856 215.267 289.856V291.008C214.451 291.008 213.773 291.248 213.233 291.728C212.693 292.208 212.423 292.964 212.423 293.996V299H211.235V290H212.423V291.494ZM220.508 289.784C221.84 289.784 222.914 290.258 223.73 291.206C224.558 292.142 224.972 293.252 224.972 294.536C224.972 294.668 224.96 294.854 224.936 295.094H217.034C217.154 296.006 217.538 296.732 218.186 297.272C218.846 297.8 219.656 298.064 220.616 298.064C221.3 298.064 221.888 297.926 222.38 297.65C222.884 297.362 223.262 296.99 223.514 296.534L224.558 297.146C224.162 297.782 223.622 298.286 222.938 298.658C222.254 299.03 221.474 299.216 220.598 299.216C219.182 299.216 218.03 298.772 217.142 297.884C216.254 296.996 215.81 295.868 215.81 294.5C215.81 293.156 216.248 292.034 217.124 291.134C218 290.234 219.128 289.784 220.508 289.784ZM220.508 290.936C219.572 290.936 218.786 291.218 218.15 291.782C217.526 292.334 217.154 293.054 217.034 293.942H223.748C223.628 292.994 223.262 292.256 222.65 291.728C222.038 291.2 221.324 290.936 220.508 290.936ZM236.186 289.784C237.47 289.784 238.562 290.24 239.462 291.152C240.374 292.064 240.83 293.18 240.83 294.5C240.83 295.82 240.374 296.936 239.462 297.848C238.562 298.76 237.47 299.216 236.186 299.216C234.59 299.216 233.378 298.556 232.55 297.236V299H231.362V286.4H232.55V291.764C233.378 290.444 234.59 289.784 236.186 289.784ZM233.576 297.038C234.26 297.722 235.1 298.064 236.096 298.064C237.092 298.064 237.932 297.722 238.616 297.038C239.3 296.342 239.642 295.496 239.642 294.5C239.642 293.504 239.3 292.664 238.616 291.98C237.932 291.284 237.092 290.936 236.096 290.936C235.1 290.936 234.26 291.284 233.576 291.98C232.892 292.664 232.55 293.504 232.55 294.5C232.55 295.496 232.892 296.342 233.576 297.038ZM250.347 297.866C249.435 298.766 248.319 299.216 246.999 299.216C245.679 299.216 244.557 298.766 243.633 297.866C242.721 296.954 242.265 295.832 242.265 294.5C242.265 293.168 242.721 292.052 243.633 291.152C244.557 290.24 245.679 289.784 246.999 289.784C248.319 289.784 249.435 290.24 250.347 291.152C251.271 292.052 251.733 293.168 251.733 294.5C251.733 295.832 251.271 296.954 250.347 297.866ZM244.479 297.038C245.163 297.722 246.003 298.064 246.999 298.064C247.995 298.064 248.835 297.722 249.519 297.038C250.203 296.342 250.545 295.496 250.545 294.5C250.545 293.504 250.203 292.664 249.519 291.98C248.835 291.284 247.995 290.936 246.999 290.936C246.003 290.936 245.163 291.284 244.479 291.98C243.795 292.664 243.453 293.504 243.453 294.5C243.453 295.496 243.795 296.342 244.479 297.038ZM253.721 299V285.86H254.909V299H253.721ZM265.17 286.4H266.358V299H265.17V297.236C264.342 298.556 263.13 299.216 261.534 299.216C260.25 299.216 259.152 298.76 258.24 297.848C257.34 296.936 256.89 295.82 256.89 294.5C256.89 293.18 257.34 292.064 258.24 291.152C259.152 290.24 260.25 289.784 261.534 289.784C263.13 289.784 264.342 290.444 265.17 291.764V286.4ZM259.104 297.038C259.788 297.722 260.628 298.064 261.624 298.064C262.62 298.064 263.46 297.722 264.144 297.038C264.828 296.342 265.17 295.496 265.17 294.5C265.17 293.504 264.828 292.664 264.144 291.98C263.46 291.284 262.62 290.936 261.624 290.936C260.628 290.936 259.788 291.284 259.104 291.98C258.42 292.664 258.078 293.504 258.078 294.5C258.078 295.496 258.42 296.342 259.104 297.038ZM281.113 290H282.301V299H281.113V297.236C280.285 298.556 279.073 299.216 277.477 299.216C276.193 299.216 275.095 298.76 274.183 297.848C273.283 296.936 272.833 295.82 272.833 294.5C272.833 293.18 273.283 292.064 274.183 291.152C275.095 290.24 276.193 289.784 277.477 289.784C279.073 289.784 280.285 290.444 281.113 291.764V290ZM275.047 297.038C275.731 297.722 276.571 298.064 277.567 298.064C278.563 298.064 279.403 297.722 280.087 297.038C280.771 296.342 281.113 295.496 281.113 294.5C281.113 293.504 280.771 292.664 280.087 291.98C279.403 291.284 278.563 290.936 277.567 290.936C276.571 290.936 275.731 291.284 275.047 291.98C274.363 292.664 274.021 293.504 274.021 294.5C274.021 295.496 274.363 296.342 275.047 297.038ZM289.029 289.784C290.121 289.784 290.979 290.12 291.603 290.792C292.239 291.452 292.557 292.346 292.557 293.474V299H291.369V293.474C291.369 292.67 291.153 292.046 290.721 291.602C290.301 291.158 289.701 290.936 288.921 290.936C288.057 290.936 287.355 291.212 286.815 291.764C286.275 292.304 286.005 293.144 286.005 294.284V299H284.817V290H286.005V291.404C286.677 290.324 287.685 289.784 289.029 289.784ZM302.594 286.4H303.782V299H302.594V297.236C301.766 298.556 300.554 299.216 298.958 299.216C297.674 299.216 296.576 298.76 295.664 297.848C294.764 296.936 294.314 295.82 294.314 294.5C294.314 293.18 294.764 292.064 295.664 291.152C296.576 290.24 297.674 289.784 298.958 289.784C300.554 289.784 301.766 290.444 302.594 291.764V286.4ZM296.528 297.038C297.212 297.722 298.052 298.064 299.048 298.064C300.044 298.064 300.884 297.722 301.568 297.038C302.252 296.342 302.594 295.496 302.594 294.5C302.594 293.504 302.252 292.664 301.568 291.98C300.884 291.284 300.044 290.936 299.048 290.936C298.052 290.936 297.212 291.284 296.528 291.98C295.844 292.664 295.502 293.504 295.502 294.5C295.502 295.496 295.844 296.342 296.528 297.038ZM315.009 289.784C316.101 289.784 316.959 290.12 317.583 290.792C318.219 291.452 318.537 292.346 318.537 293.474V299H317.349V293.474C317.349 292.67 317.133 292.046 316.701 291.602C316.281 291.158 315.681 290.936 314.901 290.936C314.037 290.936 313.335 291.212 312.795 291.764C312.255 292.304 311.985 293.144 311.985 294.284V299H310.797V286.4H311.985V291.404C312.657 290.324 313.665 289.784 315.009 289.784ZM328.574 290H329.762V299H328.574V297.236C327.746 298.556 326.534 299.216 324.938 299.216C323.654 299.216 322.556 298.76 321.644 297.848C320.744 296.936 320.294 295.82 320.294 294.5C320.294 293.18 320.744 292.064 321.644 291.152C322.556 290.24 323.654 289.784 324.938 289.784C326.534 289.784 327.746 290.444 328.574 291.764V290ZM322.508 297.038C323.192 297.722 324.032 298.064 325.028 298.064C326.024 298.064 326.864 297.722 327.548 297.038C328.232 296.342 328.574 295.496 328.574 294.5C328.574 293.504 328.232 292.664 327.548 291.98C326.864 291.284 326.024 290.936 325.028 290.936C324.032 290.936 323.192 291.284 322.508 291.98C321.824 292.664 321.482 293.504 321.482 294.5C321.482 295.496 321.824 296.342 322.508 297.038ZM338.758 290H340.018L336.328 299H334.888L331.198 290H332.458L335.608 297.758L338.758 290ZM345.26 289.784C346.592 289.784 347.666 290.258 348.482 291.206C349.31 292.142 349.724 293.252 349.724 294.536C349.724 294.668 349.712 294.854 349.688 295.094H341.786C341.906 296.006 342.29 296.732 342.938 297.272C343.598 297.8 344.408 298.064 345.368 298.064C346.052 298.064 346.64 297.926 347.132 297.65C347.636 297.362 348.014 296.99 348.266 296.534L349.31 297.146C348.914 297.782 348.374 298.286 347.69 298.658C347.006 299.03 346.226 299.216 345.35 299.216C343.934 299.216 342.782 298.772 341.894 297.884C341.006 296.996 340.562 295.868 340.562 294.5C340.562 293.156 341 292.034 341.876 291.134C342.752 290.234 343.88 289.784 345.26 289.784ZM345.26 290.936C344.324 290.936 343.538 291.218 342.902 291.782C342.278 292.334 341.906 293.054 341.786 293.942H348.5C348.38 292.994 348.014 292.256 347.402 291.728C346.79 291.2 346.076 290.936 345.26 290.936ZM363.854 290H365.042V299H363.854V297.236C363.026 298.556 361.814 299.216 360.218 299.216C358.934 299.216 357.836 298.76 356.924 297.848C356.024 296.936 355.574 295.82 355.574 294.5C355.574 293.18 356.024 292.064 356.924 291.152C357.836 290.24 358.934 289.784 360.218 289.784C361.814 289.784 363.026 290.444 363.854 291.764V290ZM357.788 297.038C358.472 297.722 359.312 298.064 360.308 298.064C361.304 298.064 362.144 297.722 362.828 297.038C363.512 296.342 363.854 295.496 363.854 294.5C363.854 293.504 363.512 292.664 362.828 291.98C362.144 291.284 361.304 290.936 360.308 290.936C359.312 290.936 358.472 291.284 357.788 291.98C357.104 292.664 356.762 293.504 356.762 294.5C356.762 295.496 357.104 296.342 357.788 297.038ZM372.057 299V285.86H373.245V299H372.057ZM383.308 297.866C382.396 298.766 381.28 299.216 379.96 299.216C378.64 299.216 377.518 298.766 376.594 297.866C375.682 296.954 375.226 295.832 375.226 294.5C375.226 293.168 375.682 292.052 376.594 291.152C377.518 290.24 378.64 289.784 379.96 289.784C381.28 289.784 382.396 290.24 383.308 291.152C384.232 292.052 384.694 293.168 384.694 294.5C384.694 295.832 384.232 296.954 383.308 297.866ZM377.44 297.038C378.124 297.722 378.964 298.064 379.96 298.064C380.956 298.064 381.796 297.722 382.48 297.038C383.164 296.342 383.506 295.496 383.506 294.5C383.506 293.504 383.164 292.664 382.48 291.98C381.796 291.284 380.956 290.936 379.96 290.936C378.964 290.936 378.124 291.284 377.44 291.98C376.756 292.664 376.414 293.504 376.414 294.5C376.414 295.496 376.756 296.342 377.44 297.038ZM391.276 291.152H388.684V296.606C388.684 297.098 388.78 297.452 388.972 297.668C389.164 297.872 389.452 297.98 389.836 297.992C390.22 297.992 390.7 297.98 391.276 297.956V299C390.016 299.192 389.068 299.102 388.432 298.73C387.808 298.358 387.496 297.65 387.496 296.606V291.152H385.606V290H387.496V287.84L388.684 287.48V290H391.276V291.152ZM405.298 297.866C404.386 298.766 403.27 299.216 401.95 299.216C400.63 299.216 399.508 298.766 398.584 297.866C397.672 296.954 397.216 295.832 397.216 294.5C397.216 293.168 397.672 292.052 398.584 291.152C399.508 290.24 400.63 289.784 401.95 289.784C403.27 289.784 404.386 290.24 405.298 291.152C406.222 292.052 406.684 293.168 406.684 294.5C406.684 295.832 406.222 296.954 405.298 297.866ZM399.43 297.038C400.114 297.722 400.954 298.064 401.95 298.064C402.946 298.064 403.786 297.722 404.47 297.038C405.154 296.342 405.496 295.496 405.496 294.5C405.496 293.504 405.154 292.664 404.47 291.98C403.786 291.284 402.946 290.936 401.95 290.936C400.954 290.936 400.114 291.284 399.43 291.98C398.746 292.664 398.404 293.504 398.404 294.5C398.404 295.496 398.746 296.342 399.43 297.038ZM412.821 287.336C411.945 287.264 411.291 287.414 410.859 287.786C410.439 288.158 410.229 288.776 410.229 289.64V290H412.821V291.152H410.229V299H409.041V291.152H407.511V290H409.041V289.64C409.041 288.464 409.365 287.576 410.013 286.976C410.673 286.364 411.609 286.1 412.821 286.184V287.336ZM422.78 299.216C421.424 299.216 420.296 298.766 419.396 297.866C418.496 296.954 418.046 295.832 418.046 294.5C418.046 293.168 418.496 292.052 419.396 291.152C420.296 290.24 421.424 289.784 422.78 289.784C423.668 289.784 424.466 290 425.174 290.432C425.882 290.852 426.398 291.422 426.722 292.142L425.75 292.7C425.51 292.16 425.12 291.734 424.58 291.422C424.052 291.098 423.452 290.936 422.78 290.936C421.784 290.936 420.944 291.284 420.26 291.98C419.576 292.664 419.234 293.504 419.234 294.5C419.234 295.496 419.576 296.342 420.26 297.038C420.944 297.722 421.784 298.064 422.78 298.064C423.452 298.064 424.052 297.908 424.58 297.596C425.108 297.272 425.522 296.84 425.822 296.3L426.812 296.876C426.44 297.596 425.894 298.166 425.174 298.586C424.454 299.006 423.656 299.216 422.78 299.216ZM435.972 297.866C435.06 298.766 433.944 299.216 432.624 299.216C431.304 299.216 430.182 298.766 429.258 297.866C428.346 296.954 427.89 295.832 427.89 294.5C427.89 293.168 428.346 292.052 429.258 291.152C430.182 290.24 431.304 289.784 432.624 289.784C433.944 289.784 435.06 290.24 435.972 291.152C436.896 292.052 437.358 293.168 437.358 294.5C437.358 295.832 436.896 296.954 435.972 297.866ZM430.104 297.038C430.788 297.722 431.628 298.064 432.624 298.064C433.62 298.064 434.46 297.722 435.144 297.038C435.828 296.342 436.17 295.496 436.17 294.5C436.17 293.504 435.828 292.664 435.144 291.98C434.46 291.284 433.62 290.936 432.624 290.936C431.628 290.936 430.788 291.284 430.104 291.98C429.42 292.664 429.078 293.504 429.078 294.5C429.078 295.496 429.42 296.342 430.104 297.038ZM443.558 289.784C444.65 289.784 445.508 290.12 446.132 290.792C446.768 291.452 447.086 292.346 447.086 293.474V299H445.898V293.474C445.898 292.67 445.682 292.046 445.25 291.602C444.83 291.158 444.23 290.936 443.45 290.936C442.586 290.936 441.884 291.212 441.344 291.764C440.804 292.304 440.534 293.144 440.534 294.284V299H439.346V290H440.534V291.404C441.206 290.324 442.214 289.784 443.558 289.784ZM454.153 291.152H451.561V296.606C451.561 297.098 451.657 297.452 451.849 297.668C452.041 297.872 452.329 297.98 452.713 297.992C453.097 297.992 453.577 297.98 454.153 297.956V299C452.893 299.192 451.945 299.102 451.309 298.73C450.685 298.358 450.373 297.65 450.373 296.606V291.152H448.483V290H450.373V287.84L451.561 287.48V290H454.153V291.152ZM457.321 291.494C457.873 290.402 458.821 289.856 460.165 289.856V291.008C459.349 291.008 458.671 291.248 458.131 291.728C457.591 292.208 457.321 292.964 457.321 293.996V299H456.133V290H457.321V291.494ZM468.988 290H470.176V299H468.988V297.236C468.16 298.556 466.948 299.216 465.352 299.216C464.068 299.216 462.97 298.76 462.058 297.848C461.158 296.936 460.708 295.82 460.708 294.5C460.708 293.18 461.158 292.064 462.058 291.152C462.97 290.24 464.068 289.784 465.352 289.784C466.948 289.784 468.16 290.444 468.988 291.764V290ZM462.922 297.038C463.606 297.722 464.446 298.064 465.442 298.064C466.438 298.064 467.278 297.722 467.962 297.038C468.646 296.342 468.988 295.496 468.988 294.5C468.988 293.504 468.646 292.664 467.962 291.98C467.278 291.284 466.438 290.936 465.442 290.936C464.446 290.936 463.606 291.284 462.922 291.98C462.238 292.664 461.896 293.504 461.896 294.5C461.896 295.496 462.238 296.342 462.922 297.038ZM473.628 292.358C473.628 292.766 473.808 293.09 474.168 293.33C474.528 293.57 474.966 293.756 475.482 293.888C475.998 294.02 476.514 294.17 477.03 294.338C477.546 294.494 477.984 294.764 478.344 295.148C478.704 295.52 478.884 296.012 478.884 296.624C478.884 297.392 478.578 298.016 477.966 298.496C477.366 298.976 476.586 299.216 475.626 299.216C474.762 299.216 474.024 299.024 473.412 298.64C472.812 298.256 472.392 297.758 472.152 297.146L473.16 296.552C473.328 297.02 473.628 297.392 474.06 297.668C474.504 297.932 475.026 298.064 475.626 298.064C476.214 298.064 476.706 297.95 477.102 297.722C477.498 297.482 477.696 297.116 477.696 296.624C477.696 296.216 477.516 295.892 477.156 295.652C476.796 295.412 476.358 295.226 475.842 295.094C475.326 294.962 474.81 294.818 474.294 294.662C473.778 294.494 473.34 294.224 472.98 293.852C472.62 293.468 472.44 292.97 472.44 292.358C472.44 291.626 472.728 291.014 473.304 290.522C473.892 290.03 474.63 289.784 475.518 289.784C476.25 289.784 476.892 289.952 477.444 290.288C477.996 290.612 478.404 291.056 478.668 291.62L477.678 292.196C477.33 291.356 476.61 290.936 475.518 290.936C475.002 290.936 474.558 291.062 474.186 291.314C473.814 291.554 473.628 291.902 473.628 292.358ZM485.284 291.152H482.692V296.606C482.692 297.098 482.788 297.452 482.98 297.668C483.172 297.872 483.46 297.98 483.844 297.992C484.228 297.992 484.708 297.98 485.284 297.956V299C484.024 299.192 483.076 299.102 482.44 298.73C481.816 298.358 481.504 297.65 481.504 296.606V291.152H479.614V290H481.504V287.84L482.692 287.48V290H485.284V291.152ZM487.655 292.358C487.655 292.766 487.835 293.09 488.195 293.33C488.555 293.57 488.993 293.756 489.509 293.888C490.025 294.02 490.541 294.17 491.057 294.338C491.573 294.494 492.011 294.764 492.371 295.148C492.731 295.52 492.911 296.012 492.911 296.624C492.911 297.392 492.605 298.016 491.993 298.496C491.393 298.976 490.613 299.216 489.653 299.216C488.789 299.216 488.051 299.024 487.439 298.64C486.839 298.256 486.419 297.758 486.179 297.146L487.187 296.552C487.355 297.02 487.655 297.392 488.087 297.668C488.531 297.932 489.053 298.064 489.653 298.064C490.241 298.064 490.733 297.95 491.129 297.722C491.525 297.482 491.723 297.116 491.723 296.624C491.723 296.216 491.543 295.892 491.183 295.652C490.823 295.412 490.385 295.226 489.869 295.094C489.353 294.962 488.837 294.818 488.321 294.662C487.805 294.494 487.367 294.224 487.007 293.852C486.647 293.468 486.467 292.97 486.467 292.358C486.467 291.626 486.755 291.014 487.331 290.522C487.919 290.03 488.657 289.784 489.545 289.784C490.277 289.784 490.919 289.952 491.471 290.288C492.023 290.612 492.431 291.056 492.695 291.62L491.705 292.196C491.357 291.356 490.637 290.936 489.545 290.936C489.029 290.936 488.585 291.062 488.213 291.314C487.841 291.554 487.655 291.902 487.655 292.358ZM496.229 298.892C496.037 299.084 495.803 299.18 495.527 299.18C495.251 299.18 495.017 299.084 494.825 298.892C494.633 298.7 494.537 298.466 494.537 298.19C494.537 297.914 494.633 297.68 494.825 297.488C495.017 297.296 495.251 297.2 495.527 297.2C495.803 297.2 496.037 297.296 496.229 297.488C496.421 297.68 496.517 297.914 496.517 298.19C496.517 298.466 496.421 298.7 496.229 298.892Z" fill="white"/>
<path d="M104.988 225.004V225.436C104.988 226.476 104.616 227.356 103.872 228.076C103.128 228.788 102.132 229.144 100.884 229.144C99.612 229.144 98.56 228.724 97.728 227.884C96.896 227.044 96.48 226.016 96.48 224.8C96.48 223.584 96.896 222.556 97.728 221.716C98.56 220.876 99.612 220.456 100.884 220.456C101.66 220.456 102.372 220.644 103.02 221.02C103.668 221.396 104.168 221.896 104.52 222.52L103.776 222.952C103.512 222.44 103.12 222.032 102.6 221.728C102.08 221.424 101.508 221.272 100.884 221.272C99.836 221.272 98.98 221.612 98.316 222.292C97.652 222.972 97.32 223.808 97.32 224.8C97.32 225.792 97.652 226.628 98.316 227.308C98.98 227.988 99.836 228.328 100.884 228.328C101.828 228.328 102.584 228.092 103.152 227.62C103.72 227.14 104.044 226.532 104.124 225.796H100.788V225.004H104.988ZM107.113 221.56C107.001 221.672 106.865 221.728 106.705 221.728C106.545 221.728 106.409 221.672 106.297 221.56C106.185 221.448 106.129 221.312 106.129 221.152C106.129 220.992 106.185 220.856 106.297 220.744C106.409 220.632 106.545 220.576 106.705 220.576C106.865 220.576 107.001 220.632 107.113 220.744C107.225 220.856 107.281 220.992 107.281 221.152C107.281 221.312 107.225 221.448 107.113 221.56ZM106.309 229V223H107.101V229H106.309ZM108.781 229V220.24H109.573V229H108.781ZM112.046 223.996C112.414 223.268 113.046 222.904 113.942 222.904V223.672C113.398 223.672 112.946 223.832 112.586 224.152C112.226 224.472 112.046 224.976 112.046 225.664V229H111.254V223H112.046V223.996ZM119.692 228.244C119.084 228.844 118.34 229.144 117.46 229.144C116.58 229.144 115.832 228.844 115.216 228.244C114.608 227.636 114.304 226.888 114.304 226C114.304 225.112 114.608 224.368 115.216 223.768C115.832 223.16 116.58 222.856 117.46 222.856C118.34 222.856 119.084 223.16 119.692 223.768C120.308 224.368 120.616 225.112 120.616 226C120.616 226.888 120.308 227.636 119.692 228.244ZM115.78 227.692C116.236 228.148 116.796 228.376 117.46 228.376C118.124 228.376 118.684 228.148 119.14 227.692C119.596 227.228 119.824 226.664 119.824 226C119.824 225.336 119.596 224.776 119.14 224.32C118.684 223.856 118.124 223.624 117.46 223.624C116.796 223.624 116.236 223.856 115.78 224.32C115.324 224.776 115.096 225.336 115.096 226C115.096 226.664 115.324 227.228 115.78 227.692ZM126.027 223H126.867L124.299 229.552C124.067 230.144 123.735 230.608 123.303 230.944C122.879 231.288 122.403 231.44 121.875 231.4V230.656C122.595 230.736 123.143 230.32 123.519 229.408L123.675 229.036L120.987 223H121.827L124.083 228.028L126.027 223Z" fill="white" fill-opacity="0.8"/>
<path d="M147.12 229L145.152 225.64H142.8V229H141.96V220.6H145.32C146.016 220.6 146.608 220.848 147.096 221.344C147.592 221.832 147.84 222.424 147.84 223.12C147.84 223.688 147.668 224.196 147.324 224.644C146.988 225.084 146.556 225.38 146.028 225.532L148.08 229H147.12ZM142.8 221.392V224.848H145.32C145.784 224.848 146.18 224.68 146.508 224.344C146.836 224 147 223.592 147 223.12C147 222.64 146.836 222.232 146.508 221.896C146.18 221.56 145.784 221.392 145.32 221.392H142.8ZM151.632 222.856C152.52 222.856 153.236 223.172 153.78 223.804C154.332 224.428 154.608 225.168 154.608 226.024C154.608 226.112 154.6 226.236 154.584 226.396H149.316C149.396 227.004 149.652 227.488 150.084 227.848C150.524 228.2 151.064 228.376 151.704 228.376C152.16 228.376 152.552 228.284 152.88 228.1C153.216 227.908 153.468 227.66 153.636 227.356L154.332 227.764C154.068 228.188 153.708 228.524 153.252 228.772C152.796 229.02 152.276 229.144 151.692 229.144C150.748 229.144 149.98 228.848 149.388 228.256C148.796 227.664 148.5 226.912 148.5 226C148.5 225.104 148.792 224.356 149.376 223.756C149.96 223.156 150.712 222.856 151.632 222.856ZM151.632 223.624C151.008 223.624 150.484 223.812 150.06 224.188C149.644 224.556 149.396 225.036 149.316 225.628H153.792C153.712 224.996 153.468 224.504 153.06 224.152C152.652 223.8 152.176 223.624 151.632 223.624ZM161.027 223H161.819V228.76C161.819 229.624 161.523 230.304 160.931 230.8C160.339 231.296 159.631 231.544 158.807 231.544C157.399 231.544 156.451 231.056 155.963 230.08L156.659 229.684C157.019 230.412 157.735 230.776 158.807 230.776C159.495 230.776 160.035 230.592 160.427 230.224C160.827 229.864 161.027 229.376 161.027 228.76V227.824C160.475 228.704 159.667 229.144 158.603 229.144C157.747 229.144 157.015 228.84 156.407 228.232C155.807 227.624 155.507 226.88 155.507 226C155.507 225.12 155.807 224.376 156.407 223.768C157.015 223.16 157.747 222.856 158.603 222.856C159.667 222.856 160.475 223.296 161.027 224.176V223ZM156.983 227.692C157.439 228.148 157.999 228.376 158.663 228.376C159.327 228.376 159.887 228.148 160.343 227.692C160.799 227.228 161.027 226.664 161.027 226C161.027 225.336 160.799 224.776 160.343 224.32C159.887 223.856 159.327 223.624 158.663 223.624C157.999 223.624 157.439 223.856 156.983 224.32C156.527 224.776 156.299 225.336 156.299 226C156.299 226.664 156.527 227.228 156.983 227.692ZM167.72 223H168.512V229H167.72V228.064C167.272 228.784 166.6 229.144 165.704 229.144C164.976 229.144 164.4 228.924 163.976 228.484C163.56 228.036 163.352 227.436 163.352 226.684V223H164.144V226.684C164.144 227.22 164.284 227.636 164.564 227.932C164.852 228.228 165.256 228.376 165.776 228.376C166.352 228.376 166.82 228.196 167.18 227.836C167.54 227.468 167.72 226.904 167.72 226.144V223ZM170.188 229V220.24H170.98V229H170.188ZM177.82 223H178.612V229H177.82V227.824C177.268 228.704 176.46 229.144 175.396 229.144C174.54 229.144 173.808 228.84 173.2 228.232C172.6 227.624 172.3 226.88 172.3 226C172.3 225.12 172.6 224.376 173.2 223.768C173.808 223.16 174.54 222.856 175.396 222.856C176.46 222.856 177.268 223.296 177.82 224.176V223ZM173.776 227.692C174.232 228.148 174.792 228.376 175.456 228.376C176.12 228.376 176.68 228.148 177.136 227.692C177.592 227.228 177.82 226.664 177.82 226C177.82 225.336 177.592 224.776 177.136 224.32C176.68 223.856 176.12 223.624 175.456 223.624C174.792 223.624 174.232 223.856 173.776 224.32C173.32 224.776 173.092 225.336 173.092 226C173.092 226.664 173.32 227.228 173.776 227.692ZM181.081 223.996C181.449 223.268 182.081 222.904 182.977 222.904V223.672C182.433 223.672 181.981 223.832 181.621 224.152C181.261 224.472 181.081 224.976 181.081 225.664V229H180.289V223H181.081V223.996Z" fill="white" fill-opacity="0.8"/>
<circle cx="134" cy="224" r="1" fill="white" fill-opacity="0.8"/>
<path d="M223.616 224.644C224.024 224.82 224.348 225.088 224.588 225.448C224.836 225.8 224.96 226.204 224.96 226.66C224.96 227.308 224.732 227.86 224.276 228.316C223.82 228.772 223.268 229 222.62 229H218.96V220.6H222.344C222.968 220.6 223.5 220.824 223.94 221.272C224.38 221.712 224.6 222.24 224.6 222.856C224.6 223.64 224.272 224.236 223.616 224.644ZM222.344 221.392H219.8V224.32H222.344C222.736 224.32 223.068 224.18 223.34 223.9C223.62 223.612 223.76 223.264 223.76 222.856C223.76 222.456 223.62 222.112 223.34 221.824C223.068 221.536 222.736 221.392 222.344 221.392ZM222.62 228.208C223.036 228.208 223.388 228.06 223.676 227.764C223.972 227.46 224.12 227.092 224.12 226.66C224.12 226.236 223.972 225.872 223.676 225.568C223.388 225.264 223.036 225.112 222.62 225.112H219.8V228.208H222.62ZM231.309 228.244C230.701 228.844 229.957 229.144 229.077 229.144C228.197 229.144 227.449 228.844 226.833 228.244C226.225 227.636 225.921 226.888 225.921 226C225.921 225.112 226.225 224.368 226.833 223.768C227.449 223.16 228.197 222.856 229.077 222.856C229.957 222.856 230.701 223.16 231.309 223.768C231.925 224.368 232.233 225.112 232.233 226C232.233 226.888 231.925 227.636 231.309 228.244ZM227.397 227.692C227.853 228.148 228.413 228.376 229.077 228.376C229.741 228.376 230.301 228.148 230.757 227.692C231.213 227.228 231.441 226.664 231.441 226C231.441 225.336 231.213 224.776 230.757 224.32C230.301 223.856 229.741 223.624 229.077 223.624C228.413 223.624 227.853 223.856 227.397 224.32C226.941 224.776 226.713 225.336 226.713 226C226.713 226.664 226.941 227.228 227.397 227.692ZM238.719 220.6H239.511V229H238.719V227.824C238.167 228.704 237.359 229.144 236.295 229.144C235.439 229.144 234.707 228.84 234.099 228.232C233.499 227.624 233.199 226.88 233.199 226C233.199 225.12 233.499 224.376 234.099 223.768C234.707 223.16 235.439 222.856 236.295 222.856C237.359 222.856 238.167 223.296 238.719 224.176V220.6ZM234.675 227.692C235.131 228.148 235.691 228.376 236.355 228.376C237.019 228.376 237.579 228.148 238.035 227.692C238.491 227.228 238.719 226.664 238.719 226C238.719 225.336 238.491 224.776 238.035 224.32C237.579 223.856 237.019 223.624 236.355 223.624C235.691 223.624 235.131 223.856 234.675 224.32C234.219 224.776 233.991 225.336 233.991 226C233.991 226.664 234.219 227.228 234.675 227.692ZM245.508 223H246.348L243.78 229.552C243.548 230.144 243.216 230.608 242.784 230.944C242.36 231.288 241.884 231.44 241.356 231.4V230.656C242.076 230.736 242.624 230.32 243 229.408L243.156 229.036L240.468 223H241.308L243.564 228.028L245.508 223ZM251.865 220.6H252.585V229H251.745V221.524L249.861 222.088L249.645 221.368L251.865 220.6Z" fill="#F4F6F8"/>
<rect x="201" y="209" width="70" height="30" rx="15" stroke="#1E222A" stroke-width="2"/>
<path d="M61.6793 219.6H62.3993V228H61.5593V220.524L59.6753 221.088L59.4593 220.368L61.6793 219.6ZM66.5374 222.6C67.3614 222.6 68.0374 222.86 68.5654 223.38C69.0934 223.892 69.3574 224.556 69.3574 225.372C69.3574 226.188 69.0934 226.856 68.5654 227.376C68.0374 227.888 67.3614 228.144 66.5374 228.144C65.7134 228.144 65.0374 227.888 64.5094 227.376C63.9814 226.856 63.7174 226.188 63.7174 225.372C63.7174 224.74 63.8894 224.18 64.2334 223.692L66.9814 219.6H67.9294L65.8654 222.672C66.0814 222.624 66.3054 222.6 66.5374 222.6ZM65.0974 226.788C65.4654 227.148 65.9454 227.328 66.5374 227.328C67.1294 227.328 67.6054 227.148 67.9654 226.788C68.3334 226.428 68.5174 225.956 68.5174 225.372C68.5174 224.788 68.3334 224.316 67.9654 223.956C67.6054 223.596 67.1294 223.416 66.5374 223.416C65.9454 223.416 65.4654 223.596 65.0974 223.956C64.7374 224.316 64.5574 224.788 64.5574 225.372C64.5574 225.956 64.7374 226.428 65.0974 226.788Z" fill="#F4F6F8"/>
<circle cx="64" cy="225" r="15" stroke="#1E222A" stroke-width="2"/>
<path d="M104.988 339.004V339.436C104.988 340.476 104.616 341.356 103.872 342.076C103.128 342.788 102.132 343.144 100.884 343.144C99.612 343.144 98.56 342.724 97.728 341.884C96.896 341.044 96.48 340.016 96.48 338.8C96.48 337.584 96.896 336.556 97.728 335.716C98.56 334.876 99.612 334.456 100.884 334.456C101.66 334.456 102.372 334.644 103.02 335.02C103.668 335.396 104.168 335.896 104.52 336.52L103.776 336.952C103.512 336.44 103.12 336.032 102.6 335.728C102.08 335.424 101.508 335.272 100.884 335.272C99.836 335.272 98.98 335.612 98.316 336.292C97.652 336.972 97.32 337.808 97.32 338.8C97.32 339.792 97.652 340.628 98.316 341.308C98.98 341.988 99.836 342.328 100.884 342.328C101.828 342.328 102.584 342.092 103.152 341.62C103.72 341.14 104.044 340.532 104.124 339.796H100.788V339.004H104.988ZM107.113 335.56C107.001 335.672 106.865 335.728 106.705 335.728C106.545 335.728 106.409 335.672 106.297 335.56C106.185 335.448 106.129 335.312 106.129 335.152C106.129 334.992 106.185 334.856 106.297 334.744C106.409 334.632 106.545 334.576 106.705 334.576C106.865 334.576 107.001 334.632 107.113 334.744C107.225 334.856 107.281 334.992 107.281 335.152C107.281 335.312 107.225 335.448 107.113 335.56ZM106.309 343V337H107.101V343H106.309ZM108.781 343V334.24H109.573V343H108.781ZM112.046 337.996C112.414 337.268 113.046 336.904 113.942 336.904V337.672C113.398 337.672 112.946 337.832 112.586 338.152C112.226 338.472 112.046 338.976 112.046 339.664V343H111.254V337H112.046V337.996ZM119.692 342.244C119.084 342.844 118.34 343.144 117.46 343.144C116.58 343.144 115.832 342.844 115.216 342.244C114.608 341.636 114.304 340.888 114.304 340C114.304 339.112 114.608 338.368 115.216 337.768C115.832 337.16 116.58 336.856 117.46 336.856C118.34 336.856 119.084 337.16 119.692 337.768C120.308 338.368 120.616 339.112 120.616 340C120.616 340.888 120.308 341.636 119.692 342.244ZM115.78 341.692C116.236 342.148 116.796 342.376 117.46 342.376C118.124 342.376 118.684 342.148 119.14 341.692C119.596 341.228 119.824 340.664 119.824 340C119.824 339.336 119.596 338.776 119.14 338.32C118.684 337.856 118.124 337.624 117.46 337.624C116.796 337.624 116.236 337.856 115.78 338.32C115.324 338.776 115.096 339.336 115.096 340C115.096 340.664 115.324 341.228 115.78 341.692ZM126.027 337H126.867L124.299 343.552C124.067 344.144 123.735 344.608 123.303 344.944C122.879 345.288 122.403 345.44 121.875 345.4V344.656C122.595 344.736 123.143 344.32 123.519 343.408L123.675 343.036L120.987 337H121.827L124.083 342.028L126.027 337Z" fill="white" fill-opacity="0.8"/>
<path d="M146.616 338.644C147.024 338.82 147.348 339.088 147.588 339.448C147.836 339.8 147.96 340.204 147.96 340.66C147.96 341.308 147.732 341.86 147.276 342.316C146.82 342.772 146.268 343 145.62 343H141.96V334.6H145.344C145.968 334.6 146.5 334.824 146.94 335.272C147.38 335.712 147.6 336.24 147.6 336.856C147.6 337.64 147.272 338.236 146.616 338.644ZM145.344 335.392H142.8V338.32H145.344C145.736 338.32 146.068 338.18 146.34 337.9C146.62 337.612 146.76 337.264 146.76 336.856C146.76 336.456 146.62 336.112 146.34 335.824C146.068 335.536 145.736 335.392 145.344 335.392ZM145.62 342.208C146.036 342.208 146.388 342.06 146.676 341.764C146.972 341.46 147.12 341.092 147.12 340.66C147.12 340.236 146.972 339.872 146.676 339.568C146.388 339.264 146.036 339.112 145.62 339.112H142.8V342.208H145.62ZM154.309 342.244C153.701 342.844 152.957 343.144 152.077 343.144C151.197 343.144 150.449 342.844 149.833 342.244C149.225 341.636 148.921 340.888 148.921 340C148.921 339.112 149.225 338.368 149.833 337.768C150.449 337.16 151.197 336.856 152.077 336.856C152.957 336.856 153.701 337.16 154.309 337.768C154.925 338.368 155.233 339.112 155.233 340C155.233 340.888 154.925 341.636 154.309 342.244ZM150.397 341.692C150.853 342.148 151.413 342.376 152.077 342.376C152.741 342.376 153.301 342.148 153.757 341.692C154.213 341.228 154.441 340.664 154.441 340C154.441 339.336 154.213 338.776 153.757 338.32C153.301 337.856 152.741 337.624 152.077 337.624C151.413 337.624 150.853 337.856 150.397 338.32C149.941 338.776 149.713 339.336 149.713 340C149.713 340.664 149.941 341.228 150.397 341.692ZM156.559 343V334.24H157.351V343H156.559ZM164.191 334.6H164.983V343H164.191V341.824C163.639 342.704 162.831 343.144 161.767 343.144C160.911 343.144 160.179 342.84 159.571 342.232C158.971 341.624 158.671 340.88 158.671 340C158.671 339.12 158.971 338.376 159.571 337.768C160.179 337.16 160.911 336.856 161.767 336.856C162.831 336.856 163.639 337.296 164.191 338.176V334.6ZM160.147 341.692C160.603 342.148 161.163 342.376 161.827 342.376C162.491 342.376 163.051 342.148 163.507 341.692C163.963 341.228 164.191 340.664 164.191 340C164.191 339.336 163.963 338.776 163.507 338.32C163.051 337.856 162.491 337.624 161.827 337.624C161.163 337.624 160.603 337.856 160.147 338.32C159.691 338.776 159.463 339.336 159.463 340C159.463 340.664 159.691 341.228 160.147 341.692Z" fill="white" fill-opacity="0.8"/>
<circle cx="134" cy="338" r="1" fill="white" fill-opacity="0.8"/>
<path d="M199.616 337.644C200.024 337.82 200.348 338.088 200.588 338.448C200.836 338.8 200.96 339.204 200.96 339.66C200.96 340.308 200.732 340.86 200.276 341.316C199.82 341.772 199.268 342 198.62 342H194.96V333.6H198.344C198.968 333.6 199.5 333.824 199.94 334.272C200.38 334.712 200.6 335.24 200.6 335.856C200.6 336.64 200.272 337.236 199.616 337.644ZM198.344 334.392H195.8V337.32H198.344C198.736 337.32 199.068 337.18 199.34 336.9C199.62 336.612 199.76 336.264 199.76 335.856C199.76 335.456 199.62 335.112 199.34 334.824C199.068 334.536 198.736 334.392 198.344 334.392ZM198.62 341.208C199.036 341.208 199.388 341.06 199.676 340.764C199.972 340.46 200.12 340.092 200.12 339.66C200.12 339.236 199.972 338.872 199.676 338.568C199.388 338.264 199.036 338.112 198.62 338.112H195.8V341.208H198.62ZM206.623 336H207.415V342H206.623V341.064C206.175 341.784 205.503 342.144 204.607 342.144C203.879 342.144 203.303 341.924 202.879 341.484C202.463 341.036 202.255 340.436 202.255 339.684V336H203.047V339.684C203.047 340.22 203.187 340.636 203.467 340.932C203.755 341.228 204.159 341.376 204.679 341.376C205.255 341.376 205.723 341.196 206.083 340.836C206.443 340.468 206.623 339.904 206.623 339.144V336ZM212.27 336.768H210.542V340.404C210.542 340.732 210.606 340.968 210.734 341.112C210.862 341.248 211.054 341.32 211.31 341.328C211.566 341.328 211.886 341.32 212.27 341.304V342C211.43 342.128 210.798 342.068 210.374 341.82C209.958 341.572 209.75 341.1 209.75 340.404V336.768H208.49V336H209.75V334.56L210.542 334.32V336H212.27V336.768ZM216.407 336.768H214.679V340.404C214.679 340.732 214.743 340.968 214.871 341.112C214.999 341.248 215.191 341.32 215.447 341.328C215.703 341.328 216.023 341.32 216.407 341.304V342C215.567 342.128 214.935 342.068 214.511 341.82C214.095 341.572 213.887 341.1 213.887 340.404V336.768H212.627V336H213.887V334.56L214.679 334.32V336H216.407V336.768ZM222.391 341.244C221.783 341.844 221.039 342.144 220.159 342.144C219.279 342.144 218.531 341.844 217.915 341.244C217.307 340.636 217.003 339.888 217.003 339C217.003 338.112 217.307 337.368 217.915 336.768C218.531 336.16 219.279 335.856 220.159 335.856C221.039 335.856 221.783 336.16 222.391 336.768C223.007 337.368 223.315 338.112 223.315 339C223.315 339.888 223.007 340.636 222.391 341.244ZM218.479 340.692C218.935 341.148 219.495 341.376 220.159 341.376C220.823 341.376 221.383 341.148 221.839 340.692C222.295 340.228 222.523 339.664 222.523 339C222.523 338.336 222.295 337.776 221.839 337.32C221.383 336.856 220.823 336.624 220.159 336.624C219.495 336.624 218.935 336.856 218.479 337.32C218.023 337.776 217.795 338.336 217.795 339C217.795 339.664 218.023 340.228 218.479 340.692ZM227.449 335.856C228.177 335.856 228.749 336.08 229.165 336.528C229.589 336.968 229.801 337.564 229.801 338.316V342H229.009V338.316C229.009 337.78 228.865 337.364 228.577 337.068C228.297 336.772 227.897 336.624 227.377 336.624C226.801 336.624 226.333 336.808 225.973 337.176C225.613 337.536 225.433 338.096 225.433 338.856V342H224.641V336H225.433V336.936C225.881 336.216 226.553 335.856 227.449 335.856ZM233.972 342V341.244L236.996 338.196C237.86 337.332 238.292 336.592 238.292 335.976C238.292 335.44 238.124 335.024 237.788 334.728C237.46 334.424 237.064 334.272 236.6 334.272C235.736 334.272 235.108 334.668 234.716 335.46L234.008 335.04C234.272 334.52 234.632 334.128 235.088 333.864C235.544 333.592 236.048 333.456 236.6 333.456C237.272 333.456 237.86 333.684 238.364 334.14C238.876 334.588 239.132 335.2 239.132 335.976C239.132 336.464 238.996 336.932 238.724 337.38C238.452 337.828 238.068 338.3 237.572 338.796L235.172 341.184H239.312V342H233.972Z" fill="#F4F6F8"/>
<rect x="183" y="324" width="69" height="30" rx="15" stroke="#1E222A" stroke-width="2"/>
<path d="M61.6793 333.6H62.3993V342H61.5593V334.524L59.6753 335.088L59.4593 334.368L61.6793 333.6ZM66.5374 336.6C67.3614 336.6 68.0374 336.86 68.5654 337.38C69.0934 337.892 69.3574 338.556 69.3574 339.372C69.3574 340.188 69.0934 340.856 68.5654 341.376C68.0374 341.888 67.3614 342.144 66.5374 342.144C65.7134 342.144 65.0374 341.888 64.5094 341.376C63.9814 340.856 63.7174 340.188 63.7174 339.372C63.7174 338.74 63.8894 338.18 64.2334 337.692L66.9814 333.6H67.9294L65.8654 336.672C66.0814 336.624 66.3054 336.6 66.5374 336.6ZM65.0974 340.788C65.4654 341.148 65.9454 341.328 66.5374 341.328C67.1294 341.328 67.6054 341.148 67.9654 340.788C68.3334 340.428 68.5174 339.956 68.5174 339.372C68.5174 338.788 68.3334 338.316 67.9654 337.956C67.6054 337.596 67.1294 337.416 66.5374 337.416C65.9454 337.416 65.4654 337.596 65.0974 337.956C64.7374 338.316 64.5574 338.788 64.5574 339.372C64.5574 339.956 64.7374 340.428 65.0974 340.788Z" fill="#F4F6F8"/>
<circle cx="64" cy="339" r="15" stroke="#1E222A" stroke-width="2"/>
<path d="M55.808 379.196C56.7893 379.761 57.28 380.615 57.28 381.756C57.28 382.705 56.944 383.484 56.272 384.092C55.6 384.7 54.7733 385.004 53.792 385.004H49.04V373.804H53.456C54.416 373.804 55.2213 374.103 55.872 374.7C56.5333 375.287 56.864 376.039 56.864 376.956C56.864 377.884 56.512 378.631 55.808 379.196ZM53.456 375.868H51.248V378.332H53.456C53.7973 378.332 54.08 378.215 54.304 377.98C54.5387 377.745 54.656 377.452 54.656 377.1C54.656 376.748 54.544 376.455 54.32 376.22C54.096 375.985 53.808 375.868 53.456 375.868ZM53.792 382.94C54.1653 382.94 54.4747 382.817 54.72 382.572C54.9653 382.316 55.088 381.996 55.088 381.612C55.088 381.239 54.9653 380.929 54.72 380.684C54.4747 380.428 54.1653 380.3 53.792 380.3H51.248V382.94H53.792ZM64.0834 377.004H66.1474V385.004H64.0834V384.108C63.582 384.855 62.7874 385.228 61.6994 385.228C60.8247 385.228 60.0994 384.935 59.5234 384.348C58.958 383.761 58.6754 382.951 58.6754 381.916V377.004H60.7394V381.66C60.7394 382.193 60.8834 382.604 61.1714 382.892C61.4594 383.169 61.8434 383.308 62.3234 383.308C62.8567 383.308 63.2834 383.143 63.6034 382.812C63.9234 382.481 64.0834 381.985 64.0834 381.324V377.004ZM72.6138 378.988H70.8058V382.316C70.8058 382.593 70.8751 382.796 71.0138 382.924C71.1524 383.052 71.3551 383.127 71.6218 383.148C71.8884 383.159 72.2191 383.153 72.6138 383.132V385.004C71.1951 385.164 70.1924 385.031 69.6058 384.604C69.0298 384.177 68.7418 383.415 68.7418 382.316V378.988H67.3498V377.004H68.7418V375.388L70.8058 374.764V377.004H72.6138V378.988ZM78.3325 378.988H76.5245V382.316C76.5245 382.593 76.5938 382.796 76.7325 382.924C76.8712 383.052 77.0738 383.127 77.3405 383.148C77.6072 383.159 77.9378 383.153 78.3325 383.132V385.004C76.9138 385.164 75.9112 385.031 75.3245 384.604C74.7485 384.177 74.4605 383.415 74.4605 382.316V378.988H73.0685V377.004H74.4605V375.388L76.5245 374.764V377.004H78.3325V378.988ZM86.3538 384.012C85.5324 384.823 84.5298 385.228 83.3458 385.228C82.1618 385.228 81.1591 384.823 80.3378 384.012C79.5271 383.191 79.1217 382.188 79.1217 381.004C79.1217 379.82 79.5271 378.823 80.3378 378.012C81.1591 377.191 82.1618 376.78 83.3458 376.78C84.5298 376.78 85.5324 377.191 86.3538 378.012C87.1751 378.823 87.5858 379.82 87.5858 381.004C87.5858 382.188 87.1751 383.191 86.3538 384.012ZM81.7938 382.588C82.2098 383.004 82.7271 383.212 83.3458 383.212C83.9644 383.212 84.4818 383.004 84.8978 382.588C85.3138 382.172 85.5218 381.644 85.5218 381.004C85.5218 380.364 85.3138 379.836 84.8978 379.42C84.4818 379.004 83.9644 378.796 83.3458 378.796C82.7271 378.796 82.2098 379.004 81.7938 379.42C81.3884 379.836 81.1858 380.364 81.1858 381.004C81.1858 381.644 81.3884 382.172 81.7938 382.588ZM93.4858 376.78C94.3604 376.78 95.0804 377.073 95.6458 377.66C96.2218 378.247 96.5098 379.057 96.5098 380.092V385.004H94.4458V380.348C94.4458 379.815 94.3018 379.409 94.0138 379.132C93.7258 378.844 93.3418 378.7 92.8618 378.7C92.3284 378.7 91.9018 378.865 91.5818 379.196C91.2618 379.527 91.1018 380.023 91.1018 380.684V385.004H89.0378V377.004H91.1018V377.9C91.6031 377.153 92.3978 376.78 93.4858 376.78ZM104.576 382.892H108.848V385.004H102.368V373.804H104.576V382.892ZM116.666 384.012C115.845 384.823 114.842 385.228 113.658 385.228C112.474 385.228 111.472 384.823 110.65 384.012C109.84 383.191 109.434 382.188 109.434 381.004C109.434 379.82 109.84 378.823 110.65 378.012C111.472 377.191 112.474 376.78 113.658 376.78C114.842 376.78 115.845 377.191 116.666 378.012C117.488 378.823 117.898 379.82 117.898 381.004C117.898 382.188 117.488 383.191 116.666 384.012ZM112.106 382.588C112.522 383.004 113.04 383.212 113.658 383.212C114.277 383.212 114.794 383.004 115.21 382.588C115.626 382.172 115.834 381.644 115.834 381.004C115.834 380.364 115.626 379.836 115.21 379.42C114.794 379.004 114.277 378.796 113.658 378.796C113.04 378.796 112.522 379.004 112.106 379.42C111.701 379.836 111.498 380.364 111.498 381.004C111.498 381.644 111.701 382.172 112.106 382.588ZM126.166 384.012C125.345 384.823 124.342 385.228 123.158 385.228C121.974 385.228 120.972 384.823 120.15 384.012C119.34 383.191 118.934 382.188 118.934 381.004C118.934 379.82 119.34 378.823 120.15 378.012C120.972 377.191 121.974 376.78 123.158 376.78C124.342 376.78 125.345 377.191 126.166 378.012C126.988 378.823 127.398 379.82 127.398 381.004C127.398 382.188 126.988 383.191 126.166 384.012ZM121.606 382.588C122.022 383.004 122.54 383.212 123.158 383.212C123.777 383.212 124.294 383.004 124.71 382.588C125.126 382.172 125.334 381.644 125.334 381.004C125.334 380.364 125.126 379.836 124.71 379.42C124.294 379.004 123.777 378.796 123.158 378.796C122.54 378.796 122.022 379.004 121.606 379.42C121.201 379.836 120.998 380.364 120.998 381.004C120.998 381.644 121.201 382.172 121.606 382.588ZM136.226 385.004H133.826L130.914 381.372V385.004H128.85V373.804H130.914V380.524L133.666 377.004H136.13L132.914 380.956L136.226 385.004Z" fill="#FC5602"/>
<path fill-rule="evenodd" clip-rule="evenodd" d="M145.668 371.533C145.443 372.264 145.797 373.048 146.494 373.362L153.129 376.357L153.516 372.487C153.542 372.229 153.613 371.988 153.72 371.769L147.42 370.493C146.655 370.338 145.898 370.787 145.668 371.533ZM155.497 370.599L147.718 369.022C146.197 368.714 144.691 369.609 144.235 371.091C143.787 372.545 144.491 374.104 145.877 374.729L152.972 377.932L152.198 385.673C152.047 387.186 153.045 388.575 154.528 388.914C156.04 389.26 157.568 388.403 158.061 386.932L160.588 379.398C160.673 379.265 160.744 379.121 160.799 378.965L162.394 374.434C162.615 373.807 162.52 373.153 162.201 372.636C161.919 372.075 161.388 371.643 160.713 371.516L155.991 370.632C155.824 370.601 155.658 370.591 155.497 370.599ZM160.887 373.369C160.934 373.493 160.94 373.633 160.894 373.77L159.243 378.691C159.073 378.862 158.808 378.92 158.572 378.814L154.572 377.008L155.008 372.636C155.034 372.382 155.214 372.183 155.443 372.118L160.533 373.15C160.681 373.18 160.803 373.261 160.887 373.369ZM154.414 378.583L157.955 380.181C158.192 380.288 158.438 380.348 158.682 380.364L156.639 386.455C156.391 387.195 155.622 387.626 154.862 387.452C154.117 387.281 153.615 386.583 153.691 385.822L154.414 378.583Z" fill="white"/>
<rect x="1" y="1" width="716" height="457" stroke="#1E222A" stroke-width="2"/>
</svg>
