<svg width="713" height="507" viewBox="0 0 713 507" fill="none" xmlns="http://www.w3.org/2000/svg">
<rect x="1" y="1" width="93" height="93" stroke="#1E222A" stroke-width="2"/>
<path d="M44.8545 54L43.6785 50.616H36.5265L35.3505 54H32.3505L38.4465 37.2H41.7585L47.8305 54H44.8545ZM37.4385 48.024H42.7665L40.1025 40.44L37.4385 48.024ZM58.6683 42H61.2603V54H58.6683V52.272C57.6923 53.632 56.2923 54.312 54.4683 54.312C52.8203 54.312 51.4123 53.704 50.2443 52.488C49.0763 51.256 48.4923 49.76 48.4923 48C48.4923 46.224 49.0763 44.728 50.2443 43.512C51.4123 42.296 52.8203 41.688 54.4683 41.688C56.2923 41.688 57.6923 42.36 58.6683 43.704V42ZM52.1643 50.76C52.8843 51.48 53.7883 51.84 54.8763 51.84C55.9643 51.84 56.8683 51.48 57.5883 50.76C58.3083 50.024 58.6683 49.104 58.6683 48C58.6683 46.896 58.3083 45.984 57.5883 45.264C56.8683 44.528 55.9643 44.16 54.8763 44.16C53.7883 44.16 52.8843 44.528 52.1643 45.264C51.4443 45.984 51.0843 46.896 51.0843 48C51.0843 49.104 51.4443 50.024 52.1643 50.76Z" fill="white"/>
<rect x="104" y="1" width="93" height="93" stroke="#1E222A" stroke-width="2"/>
<path d="M146.685 45.288C147.421 45.672 147.997 46.2 148.413 46.872C148.829 47.544 149.037 48.32 149.037 49.2C149.037 50.576 148.549 51.72 147.573 52.632C146.597 53.544 145.405 54 143.997 54H136.797V37.2H143.469C144.845 37.2 146.005 37.648 146.949 38.544C147.909 39.424 148.389 40.528 148.389 41.856C148.389 43.312 147.821 44.456 146.685 45.288ZM143.469 39.792H139.557V44.208H143.469C144.077 44.208 144.589 44 145.005 43.584C145.421 43.152 145.629 42.624 145.629 42C145.629 41.376 145.421 40.856 145.005 40.44C144.589 40.008 144.077 39.792 143.469 39.792ZM143.997 51.408C144.637 51.408 145.173 51.184 145.605 50.736C146.053 50.272 146.277 49.712 146.277 49.056C146.277 48.4 146.053 47.848 145.605 47.4C145.173 46.936 144.637 46.704 143.997 46.704H139.557V51.408H143.997ZM158.07 41.688C159.718 41.688 161.126 42.296 162.294 43.512C163.462 44.728 164.046 46.224 164.046 48C164.046 49.76 163.462 51.256 162.294 52.488C161.126 53.704 159.718 54.312 158.07 54.312C156.246 54.312 154.846 53.632 153.87 52.272V54H151.278V37.2H153.87V43.704C154.846 42.36 156.246 41.688 158.07 41.688ZM154.95 50.76C155.67 51.48 156.574 51.84 157.662 51.84C158.75 51.84 159.654 51.48 160.374 50.76C161.094 50.024 161.454 49.104 161.454 48C161.454 46.896 161.094 45.984 160.374 45.264C159.654 44.528 158.75 44.16 157.662 44.16C156.574 44.16 155.67 44.528 154.95 45.264C154.23 45.984 153.87 46.896 153.87 48C153.87 49.104 154.23 50.024 154.95 50.76Z" fill="white"/>
<rect x="207" y="1" width="93" height="93" stroke="#1E222A" stroke-width="2"/>
<path d="M247.901 54.312C245.373 54.312 243.277 53.48 241.613 51.816C239.949 50.136 239.117 48.064 239.117 45.6C239.117 43.136 239.949 41.072 241.613 39.408C243.277 37.728 245.373 36.888 247.901 36.888C249.421 36.888 250.821 37.248 252.101 37.968C253.397 38.688 254.405 39.664 255.125 40.896L252.725 42.288C252.277 41.456 251.621 40.8 250.757 40.32C249.909 39.824 248.957 39.576 247.901 39.576C246.109 39.576 244.653 40.144 243.533 41.28C242.429 42.416 241.877 43.856 241.877 45.6C241.877 47.344 242.429 48.784 243.533 49.92C244.653 51.056 246.109 51.624 247.901 51.624C248.957 51.624 249.917 51.384 250.781 50.904C251.645 50.408 252.293 49.744 252.725 48.912L255.125 50.28C254.421 51.512 253.421 52.496 252.125 53.232C250.845 53.952 249.437 54.312 247.901 54.312ZM262.891 54.312C261.083 54.312 259.571 53.704 258.355 52.488C257.155 51.272 256.555 49.776 256.555 48C256.555 46.208 257.155 44.712 258.355 43.512C259.571 42.296 261.083 41.688 262.891 41.688C264.059 41.688 265.123 41.968 266.083 42.528C267.043 43.088 267.763 43.84 268.243 44.784L266.011 46.08C265.739 45.504 265.323 45.056 264.763 44.736C264.219 44.4 263.587 44.232 262.867 44.232C261.811 44.232 260.923 44.592 260.203 45.312C259.499 46.032 259.147 46.928 259.147 48C259.147 49.072 259.499 49.968 260.203 50.688C260.923 51.408 261.811 51.768 262.867 51.768C263.571 51.768 264.203 51.6 264.763 51.264C265.339 50.928 265.771 50.48 266.059 49.92L268.291 51.192C267.779 52.152 267.043 52.912 266.083 53.472C265.123 54.032 264.059 54.312 262.891 54.312Z" fill="white"/>
<rect x="310" y="1" width="93" height="93" stroke="#1E222A" stroke-width="2"/>
<path d="M348.643 37.2C350.947 37.2 352.859 38.008 354.379 39.624C355.915 41.24 356.683 43.232 356.683 45.6C356.683 47.952 355.915 49.944 354.379 51.576C352.859 53.192 350.947 54 348.643 54H342.043V37.2H348.643ZM348.643 51.36C350.227 51.36 351.515 50.816 352.507 49.728C353.515 48.64 354.019 47.264 354.019 45.6C354.019 43.92 353.515 42.544 352.507 41.472C351.515 40.384 350.227 39.84 348.643 39.84H344.803V51.36H348.643ZM368.536 37.2H371.128V54H368.536V52.272C367.56 53.632 366.16 54.312 364.336 54.312C362.688 54.312 361.28 53.704 360.112 52.488C358.944 51.256 358.36 49.76 358.36 48C358.36 46.224 358.944 44.728 360.112 43.512C361.28 42.296 362.688 41.688 364.336 41.688C366.16 41.688 367.56 42.36 368.536 43.704V37.2ZM362.032 50.76C362.752 51.48 363.656 51.84 364.744 51.84C365.832 51.84 366.736 51.48 367.456 50.76C368.176 50.024 368.536 49.104 368.536 48C368.536 46.896 368.176 45.984 367.456 45.264C366.736 44.528 365.832 44.16 364.744 44.16C363.656 44.16 362.752 44.528 362.032 45.264C361.312 45.984 360.952 46.896 360.952 48C360.952 49.104 361.312 50.024 362.032 50.76Z" fill="white"/>
<rect x="413" y="1" width="93" height="93" fill="#1E222A" fill-opacity="0.6" stroke="#1E222A" stroke-width="2"/>
<path d="M450.71 51.36H458.15V54H447.95V37.2H458.03V39.84H450.71V44.208H457.43V46.824H450.71V51.36ZM462.314 49.104C462.506 50.016 462.946 50.72 463.634 51.216C464.322 51.696 465.162 51.936 466.154 51.936C467.53 51.936 468.562 51.44 469.25 50.448L471.386 51.696C470.202 53.44 468.45 54.312 466.13 54.312C464.178 54.312 462.602 53.72 461.402 52.536C460.202 51.336 459.602 49.824 459.602 48C459.602 46.208 460.194 44.712 461.378 43.512C462.562 42.296 464.082 41.688 465.938 41.688C467.698 41.688 469.138 42.304 470.258 43.536C471.394 44.768 471.962 46.264 471.962 48.024C471.962 48.296 471.93 48.656 471.866 49.104H462.314ZM462.29 46.992H469.346C469.17 46.016 468.762 45.28 468.122 44.784C467.498 44.288 466.762 44.04 465.914 44.04C464.954 44.04 464.154 44.304 463.514 44.832C462.874 45.36 462.466 46.08 462.29 46.992Z" fill="white"/>
<rect x="516" y="1" width="93" height="93" stroke="#1E222A" stroke-width="2"/>
<path d="M563.907 39.84H556.827V44.544H563.667V47.184H556.827V54H554.067V37.2H563.907V39.84ZM572.609 39.384C570.721 39.208 569.777 40 569.777 41.76V42H572.609V44.496H569.777V54H567.185V44.496H565.361V42H567.185V41.76C567.185 40.112 567.641 38.864 568.553 38.016C569.481 37.152 570.833 36.776 572.609 36.888V39.384Z" fill="white"/>
<rect x="619" y="1" width="93" height="93" fill="#1E222A" fill-opacity="0.6" stroke="#1E222A" stroke-width="2"/>
<path d="M666.032 45.312V46.464C666.032 48.768 665.272 50.656 663.752 52.128C662.232 53.584 660.248 54.312 657.8 54.312C655.208 54.312 653.064 53.472 651.368 51.792C649.688 50.112 648.848 48.048 648.848 45.6C648.848 43.168 649.688 41.112 651.368 39.432C653.064 37.736 655.16 36.888 657.656 36.888C659.224 36.888 660.656 37.248 661.952 37.968C663.248 38.688 664.256 39.656 664.976 40.872L662.6 42.24C662.152 41.44 661.488 40.8 660.608 40.32C659.728 39.824 658.744 39.576 657.656 39.576C655.896 39.576 654.448 40.152 653.312 41.304C652.176 42.456 651.608 43.896 651.608 45.624C651.608 47.352 652.176 48.784 653.312 49.92C654.464 51.056 655.968 51.624 657.824 51.624C659.312 51.624 660.52 51.28 661.448 50.592C662.392 49.888 662.992 48.952 663.248 47.784H657.632V45.312H666.032ZM677.939 42H680.483V53.448C680.483 55.272 679.883 56.672 678.683 57.648C677.483 58.624 676.027 59.112 674.315 59.112C671.547 59.112 669.651 58.144 668.627 56.208L670.859 54.912C671.483 56.144 672.651 56.76 674.363 56.76C675.483 56.76 676.355 56.464 676.979 55.872C677.619 55.296 677.939 54.488 677.939 53.448V51.984C676.963 53.376 675.571 54.072 673.763 54.072C672.067 54.072 670.635 53.472 669.467 52.272C668.299 51.056 667.715 49.592 667.715 47.88C667.715 46.168 668.299 44.712 669.467 43.512C670.635 42.296 672.067 41.688 673.763 41.688C675.571 41.688 676.963 42.384 677.939 43.776V42ZM671.387 50.568C672.123 51.288 673.035 51.648 674.123 51.648C675.211 51.648 676.115 51.288 676.835 50.568C677.571 49.848 677.939 48.952 677.939 47.88C677.939 46.808 677.571 45.912 676.835 45.192C676.115 44.472 675.211 44.112 674.123 44.112C673.035 44.112 672.123 44.472 671.387 45.192C670.667 45.912 670.307 46.808 670.307 47.88C670.307 48.952 670.667 49.848 671.387 50.568Z" fill="white"/>
<rect x="1" y="104" width="93" height="93" stroke="#1E222A" stroke-width="2"/>
<path d="M43.7455 140.2H46.5055V157H43.7455V149.728H36.5455V157H33.7855V140.2H36.5455V147.088H43.7455V140.2ZM56.0076 144.688C57.3836 144.688 58.4956 145.128 59.3436 146.008C60.1916 146.888 60.6156 148.096 60.6156 149.632V157H58.0236V149.896C58.0236 149 57.7836 148.312 57.3036 147.832C56.8236 147.352 56.1676 147.112 55.3356 147.112C54.4236 147.112 53.6876 147.4 53.1276 147.976C52.5676 148.536 52.2876 149.4 52.2876 150.568V157H49.6956V140.2H52.2876V146.536C53.0716 145.304 54.3116 144.688 56.0076 144.688Z" fill="white"/>
<rect x="104" y="104" width="93" height="93" stroke="#1E222A" stroke-width="2"/>
<path d="M145.821 140.2H148.581V157H145.821V140.2ZM154.218 142.72C153.898 143.04 153.514 143.2 153.066 143.2C152.618 143.2 152.226 143.04 151.89 142.72C151.57 142.384 151.41 141.992 151.41 141.544C151.41 141.096 151.57 140.712 151.89 140.392C152.21 140.056 152.602 139.888 153.066 139.888C153.53 139.888 153.922 140.056 154.242 140.392C154.562 140.712 154.722 141.096 154.722 141.544C154.722 141.992 154.554 142.384 154.218 142.72ZM151.77 157V145H154.362V157H151.77Z" fill="white"/>
<rect x="207" y="104" width="93" height="93" stroke="#1E222A" stroke-width="2"/>
<path d="M249.549 157.312C246.941 157.312 245.141 156.288 244.149 154.24L246.525 152.848C247.069 154.032 248.085 154.624 249.573 154.624C250.533 154.624 251.269 154.392 251.781 153.928C252.309 153.448 252.573 152.776 252.573 151.912V140.2H255.333V151.912C255.333 153.64 254.789 154.976 253.701 155.92C252.613 156.848 251.229 157.312 249.549 157.312ZM261.037 142.72C260.717 143.04 260.333 143.2 259.885 143.2C259.437 143.2 259.045 143.04 258.709 142.72C258.389 142.384 258.229 141.992 258.229 141.544C258.229 141.096 258.389 140.712 258.709 140.392C259.045 140.056 259.437 139.888 259.885 139.888C260.333 139.888 260.717 140.056 261.037 140.392C261.373 140.712 261.541 141.096 261.541 141.544C261.541 141.992 261.373 142.384 261.037 142.72ZM258.589 157.48V145H261.181V157.48C261.181 160.808 259.541 162.352 256.261 162.112V159.616C257.061 159.696 257.645 159.568 258.013 159.232C258.397 158.896 258.589 158.312 258.589 157.48Z" fill="white"/>
<rect x="310" y="104" width="93" height="93" stroke="#1E222A" stroke-width="2"/>
<path d="M357.446 157H354.158L347.534 149.008V157H344.774V140.2H347.534V147.736L353.918 140.2H357.206L350.414 148.384L357.446 157ZM369.675 157H366.579L361.659 151.456V157H359.067V140.2H361.659V150.304L366.315 145H369.483L364.203 150.88L369.675 157Z" fill="white"/>
<rect x="413" y="104" width="93" height="93" stroke="#1E222A" stroke-width="2"/>
<path d="M454.815 154.36H461.655V157H452.055V140.2H454.815V154.36ZM463.535 157V139.48H466.127V157H463.535Z" fill="white"/>
<rect x="1" y="207" width="93" height="93" stroke="#1E222A" stroke-width="2"/>
<path d="M45.9973 257.792C44.3173 259.472 42.2613 260.312 39.8293 260.312C37.3973 260.312 35.3333 259.472 33.6373 257.792C31.9573 256.096 31.1173 254.032 31.1173 251.6C31.1173 249.168 31.9573 247.112 33.6373 245.432C35.3333 243.736 37.3973 242.888 39.8293 242.888C42.2613 242.888 44.3173 243.736 45.9973 245.432C47.6933 247.112 48.5413 249.168 48.5413 251.6C48.5413 254.032 47.6933 256.096 45.9973 257.792ZM35.5813 255.92C36.7333 257.056 38.1493 257.624 39.8293 257.624C41.5093 257.624 42.9173 257.056 44.0533 255.92C45.2053 254.768 45.7813 253.328 45.7813 251.6C45.7813 249.872 45.2053 248.44 44.0533 247.304C42.9173 246.152 41.5093 245.576 39.8293 245.576C38.1493 245.576 36.7333 246.152 35.5813 247.304C34.4453 248.44 33.8773 249.872 33.8773 251.6C33.8773 253.328 34.4453 254.768 35.5813 255.92ZM56.5549 260.312C54.7949 260.312 53.2989 259.704 52.0669 258.488C50.8349 257.272 50.2189 255.776 50.2189 254C50.2189 252.224 50.8349 250.728 52.0669 249.512C53.2989 248.296 54.7949 247.688 56.5549 247.688C58.3309 247.688 59.8269 248.296 61.0429 249.512C62.2749 250.728 62.8909 252.224 62.8909 254C62.8909 255.776 62.2749 257.272 61.0429 258.488C59.8269 259.704 58.3309 260.312 56.5549 260.312ZM53.8909 256.712C54.6109 257.432 55.4989 257.792 56.5549 257.792C57.6109 257.792 58.4989 257.432 59.2189 256.712C59.9389 255.992 60.2989 255.088 60.2989 254C60.2989 252.912 59.9389 252.008 59.2189 251.288C58.4989 250.568 57.6109 250.208 56.5549 250.208C55.4989 250.208 54.6109 250.568 53.8909 251.288C53.1709 252.008 52.8109 252.912 52.8109 254C52.8109 255.088 53.1709 255.992 53.8909 256.712Z" fill="white"/>
<rect x="104" y="207" width="93" height="93" stroke="#1E222A" stroke-width="2"/>
<path d="M143.352 243.2C144.936 243.2 146.256 243.728 147.312 244.784C148.384 245.84 148.92 247.152 148.92 248.72C148.92 250.272 148.384 251.584 147.312 252.656C146.256 253.712 144.936 254.24 143.352 254.24H139.92V260H137.16V243.2H143.352ZM143.352 251.648C144.168 251.648 144.84 251.376 145.368 250.832C145.896 250.272 146.16 249.568 146.16 248.72C146.16 247.872 145.896 247.176 145.368 246.632C144.84 246.072 144.168 245.792 143.352 245.792H139.92V251.648H143.352ZM157.706 247.688C159.354 247.688 160.762 248.304 161.93 249.536C163.098 250.752 163.682 252.24 163.682 254C163.682 255.776 163.098 257.272 161.93 258.488C160.762 259.704 159.354 260.312 157.706 260.312C155.882 260.312 154.482 259.64 153.506 258.296V264.8H150.914V248H153.506V249.728C154.482 248.368 155.882 247.688 157.706 247.688ZM154.586 256.76C155.306 257.48 156.21 257.84 157.298 257.84C158.386 257.84 159.29 257.48 160.01 256.76C160.73 256.024 161.09 255.104 161.09 254C161.09 252.896 160.73 251.984 160.01 251.264C159.29 250.528 158.386 250.16 157.298 250.16C156.21 250.16 155.306 250.528 154.586 251.264C153.866 251.984 153.506 252.896 153.506 254C153.506 255.104 153.866 256.024 154.586 256.76Z" fill="white"/>
<rect x="207" y="207" width="93" height="93" stroke="#1E222A" stroke-width="2"/>
<path d="M254.596 251.6C254.596 253.84 253.86 255.776 252.388 257.408L254.164 259.232L252.22 260.984L250.372 259.088C248.964 259.904 247.468 260.312 245.884 260.312C243.468 260.312 241.412 259.472 239.716 257.792C238.02 256.096 237.172 254.032 237.172 251.6C237.172 249.168 238.02 247.112 239.716 245.432C241.412 243.736 243.468 242.888 245.884 242.888C248.3 242.888 250.356 243.736 252.052 245.432C253.748 247.112 254.596 249.168 254.596 251.6ZM245.884 257.624C246.78 257.624 247.62 257.44 248.404 257.072L245.332 253.928L247.276 252.176L250.492 255.464C251.388 254.36 251.836 253.072 251.836 251.6C251.836 249.888 251.26 248.456 250.108 247.304C248.956 246.152 247.548 245.576 245.884 245.576C244.22 245.576 242.812 246.152 241.66 247.304C240.508 248.456 239.932 249.888 239.932 251.6C239.932 253.312 240.508 254.744 241.66 255.896C242.812 257.048 244.22 257.624 245.884 257.624ZM266.567 248H269.159V264.8H266.567V258.296C265.591 259.64 264.191 260.312 262.367 260.312C260.719 260.312 259.311 259.704 258.143 258.488C256.975 257.272 256.391 255.776 256.391 254C256.391 252.24 256.975 250.752 258.143 249.536C259.311 248.304 260.719 247.688 262.367 247.688C264.191 247.688 265.591 248.368 266.567 249.728V248ZM260.063 256.76C260.783 257.48 261.687 257.84 262.775 257.84C263.863 257.84 264.767 257.48 265.487 256.76C266.207 256.024 266.567 255.104 266.567 254C266.567 252.896 266.207 251.984 265.487 251.264C264.767 250.528 263.863 250.16 262.775 250.16C261.687 250.16 260.783 250.528 260.063 251.264C259.343 251.984 258.983 252.896 258.983 254C258.983 255.104 259.343 256.024 260.063 256.76Z" fill="white"/>
<rect x="310" y="207" width="93" height="93" stroke="#1E222A" stroke-width="2"/>
<path d="M356.295 260L352.743 253.88H349.479V260H346.719V243.2H353.439C354.943 243.2 356.215 243.728 357.255 244.784C358.311 245.824 358.839 247.096 358.839 248.6C358.839 249.672 358.527 250.656 357.903 251.552C357.295 252.432 356.495 253.072 355.503 253.472L359.319 260H356.295ZM349.479 245.792V251.408H353.439C354.175 251.408 354.799 251.136 355.311 250.592C355.823 250.048 356.079 249.384 356.079 248.6C356.079 247.816 355.823 247.152 355.311 246.608C354.799 246.064 354.175 245.792 353.439 245.792H349.479ZM363.862 250.016C364.518 248.528 365.75 247.784 367.558 247.784V250.592C366.566 250.528 365.702 250.768 364.966 251.312C364.23 251.84 363.862 252.72 363.862 253.952V260H361.27V248H363.862V250.016Z" fill="white"/>
<rect x="1" y="310" width="93" height="93" stroke="#1E222A" stroke-width="2"/>
<path d="M31.2437 363L26.4917 346.2H29.3957L32.9237 359.328L36.7397 346.2H39.2837L43.0757 359.328L46.6037 346.2H49.5077L44.7557 363H41.5637L38.0117 350.736L34.4357 363H31.2437ZM64.8555 351H67.5915L63.8235 363H61.2795L58.7835 354.912L56.2635 363H53.7195L49.9515 351H52.6875L55.0155 359.28L57.5355 351H60.0075L62.5035 359.28L64.8555 351Z" fill="white"/>
<rect x="104" y="310" width="93" height="93" stroke="#1E222A" stroke-width="2"/>
<path d="M151.11 363H147.966L144.27 356.928L140.574 363H137.43L142.71 354.36L137.742 346.2H140.862L144.27 351.792L147.678 346.2H150.822L145.854 354.36L151.11 363ZM163.701 363H160.701L157.725 358.896L154.725 363H151.701L156.213 356.832L151.941 351H154.941L157.701 354.792L160.461 351H163.485L159.213 356.856L163.701 363Z" fill="white"/>
<rect x="207" y="310" width="93" height="93" stroke="#1E222A" stroke-width="2"/>
<path d="M254.596 346.2L248.74 356.328V363H245.98V356.328L240.124 346.2H243.268L247.372 353.64L251.452 346.2H254.596ZM263.127 351H265.887L261.279 363.384C260.127 366.488 258.175 367.96 255.423 367.8V365.376C256.239 365.424 256.895 365.248 257.391 364.848C257.887 364.464 258.295 363.856 258.615 363.024L258.735 362.784L253.647 351H256.479L260.055 359.712L263.127 351Z" fill="white"/>
<rect x="310" y="310" width="93" height="93" fill="#1E222A" fill-opacity="0.6" stroke="#1E222A" stroke-width="2"/>
<path d="M348.809 360.36H356.537V363H345.377V360.72L352.913 348.84H345.545V346.2H356.345V348.48L348.809 360.36ZM361.799 360.552H367.631V363H358.271V361.272L363.887 353.448H358.511V351H367.391V352.728L361.799 360.552Z" fill="white"/>
<rect x="413" y="207" width="93" height="93" stroke="#1E222A" stroke-width="2"/>
<path d="M454.456 260.312C452.84 260.312 451.464 259.944 450.328 259.208C449.208 258.472 448.424 257.464 447.976 256.184L450.352 254.792C451.024 256.68 452.416 257.624 454.528 257.624C455.568 257.624 456.344 257.424 456.856 257.024C457.384 256.608 457.648 256.072 457.648 255.416C457.648 254.728 457.368 254.208 456.808 253.856C456.248 253.488 455.256 253.088 453.832 252.656C453.032 252.416 452.384 252.192 451.888 251.984C451.392 251.776 450.864 251.488 450.304 251.12C449.76 250.736 449.352 250.264 449.08 249.704C448.808 249.144 448.672 248.488 448.672 247.736C448.672 246.248 449.2 245.072 450.256 244.208C451.312 243.328 452.584 242.888 454.072 242.888C455.416 242.888 456.592 243.216 457.6 243.872C458.608 244.528 459.384 245.432 459.928 246.584L457.6 247.928C456.896 246.36 455.72 245.576 454.072 245.576C453.272 245.576 452.632 245.768 452.152 246.152C451.672 246.52 451.432 247.024 451.432 247.664C451.432 248.288 451.672 248.784 452.152 249.152C452.648 249.504 453.536 249.88 454.816 250.28C455.456 250.488 455.92 250.648 456.208 250.76C456.512 250.856 456.928 251.016 457.456 251.24C458 251.464 458.408 251.688 458.68 251.912C458.952 252.136 459.24 252.416 459.544 252.752C459.864 253.088 460.088 253.472 460.216 253.904C460.344 254.336 460.408 254.824 460.408 255.368C460.408 256.888 459.856 258.096 458.752 258.992C457.664 259.872 456.232 260.312 454.456 260.312ZM464.594 251.312C464.594 251.712 464.81 252.032 465.242 252.272C465.69 252.496 466.226 252.696 466.85 252.872C467.49 253.032 468.13 253.224 468.77 253.448C469.41 253.672 469.946 254.056 470.378 254.6C470.826 255.128 471.05 255.8 471.05 256.616C471.05 257.768 470.602 258.672 469.706 259.328C468.826 259.984 467.714 260.312 466.37 260.312C465.186 260.312 464.17 260.064 463.322 259.568C462.474 259.072 461.858 258.384 461.474 257.504L463.706 256.208C464.122 257.36 465.01 257.936 466.37 257.936C467.73 257.936 468.41 257.488 468.41 256.592C468.41 256.208 468.186 255.896 467.738 255.656C467.306 255.416 466.77 255.216 466.13 255.056C465.506 254.88 464.874 254.68 464.234 254.456C463.594 254.232 463.05 253.864 462.602 253.352C462.17 252.824 461.954 252.16 461.954 251.36C461.954 250.256 462.37 249.368 463.202 248.696C464.05 248.024 465.098 247.688 466.346 247.688C467.338 247.688 468.218 247.912 468.986 248.36C469.77 248.792 470.37 249.4 470.786 250.184L468.602 251.408C468.186 250.496 467.434 250.04 466.346 250.04C465.85 250.04 465.434 250.152 465.098 250.376C464.762 250.584 464.594 250.896 464.594 251.312Z" fill="white"/>
<rect x="516" y="104" width="93" height="93" stroke="#1E222A" stroke-width="2"/>
<path d="M559.838 140.2V157H557.078V145.024L551.966 153.472H551.63L546.518 145V157H543.758V140.2H546.734L551.798 148.6L556.886 140.2H559.838ZM576.124 144.688C577.484 144.688 578.58 145.128 579.412 146.008C580.244 146.888 580.66 148.072 580.66 149.56V157H578.068V149.728C578.068 148.896 577.86 148.256 577.444 147.808C577.028 147.344 576.46 147.112 575.74 147.112C574.94 147.112 574.3 147.376 573.82 147.904C573.356 148.432 573.124 149.224 573.124 150.28V157H570.532V149.728C570.532 148.896 570.332 148.256 569.932 147.808C569.548 147.344 568.996 147.112 568.276 147.112C567.492 147.112 566.852 147.384 566.356 147.928C565.86 148.456 565.612 149.24 565.612 150.28V157H563.02V145H565.612V146.44C566.38 145.272 567.524 144.688 569.044 144.688C570.58 144.688 571.716 145.32 572.452 146.584C573.252 145.32 574.476 144.688 576.124 144.688Z" fill="white"/>
<rect x="619" y="104" width="93" height="93" stroke="#1E222A" stroke-width="2"/>
<path d="M661.807 140.2H664.567V157H662.407L654.487 145.6V157H651.727V140.2H653.887L661.807 151.6V140.2ZM674.066 144.688C675.442 144.688 676.554 145.128 677.402 146.008C678.25 146.888 678.674 148.096 678.674 149.632V157H676.082V149.896C676.082 149 675.842 148.312 675.362 147.832C674.882 147.352 674.226 147.112 673.394 147.112C672.482 147.112 671.746 147.4 671.186 147.976C670.626 148.536 670.346 149.4 670.346 150.568V157H667.754V145H670.346V146.536C671.13 145.304 672.37 144.688 674.066 144.688Z" fill="white"/>
<rect x="516" y="207" width="93" height="93" stroke="#1E222A" stroke-width="2"/>
<path d="M563.655 243.2V245.84H558.927V260H556.167V245.84H551.415V243.2H563.655ZM571.989 250.496H569.013V256.256C569.013 256.752 569.125 257.112 569.349 257.336C569.573 257.544 569.901 257.664 570.333 257.696C570.781 257.712 571.333 257.704 571.989 257.672V260C570.005 260.24 568.581 260.072 567.717 259.496C566.853 258.904 566.421 257.824 566.421 256.256V250.496H564.213V248H566.421V245.408L569.013 244.64V248H571.989V250.496Z" fill="white"/>
<rect x="619" y="207" width="93" height="93" stroke="#1E222A" stroke-width="2"/>
<path d="M662.737 258.728C661.553 259.784 660.025 260.312 658.153 260.312C656.281 260.312 654.753 259.784 653.569 258.728C652.385 257.656 651.793 256.224 651.793 254.432V243.2H654.553V254.264C654.553 255.288 654.849 256.104 655.441 256.712C656.049 257.32 656.953 257.624 658.153 257.624C659.353 257.624 660.249 257.32 660.841 256.712C661.449 256.104 661.753 255.288 661.753 254.264V243.2H664.513V254.432C664.513 256.224 663.921 257.656 662.737 258.728ZM675.608 248H678.2V260H675.608V258.464C674.824 259.696 673.584 260.312 671.888 260.312C670.512 260.312 669.4 259.872 668.552 258.992C667.704 258.112 667.28 256.904 667.28 255.368V248H669.872V255.104C669.872 256 670.112 256.688 670.592 257.168C671.072 257.648 671.728 257.888 672.56 257.888C673.472 257.888 674.208 257.608 674.768 257.048C675.328 256.472 675.608 255.6 675.608 254.432V248Z" fill="white"/>
<rect x="515.5" y="309.5" width="197" height="197" fill="#121519" stroke="#1E222A"/>
<path d="M584.984 385.2H590.384V423H584.174V391.842L576.56 394.002L575.048 388.71L584.984 385.2ZM596.112 423V418.14L609.288 404.694C612.492 401.49 614.094 398.718 614.094 396.378C614.094 394.542 613.536 393.12 612.42 392.112C611.34 391.068 609.954 390.546 608.262 390.546C605.094 390.546 602.754 392.112 601.242 395.244L596.004 392.166C597.192 389.646 598.866 387.738 601.026 386.442C603.186 385.146 605.58 384.498 608.208 384.498C611.52 384.498 614.364 385.542 616.74 387.63C619.116 389.718 620.304 392.562 620.304 396.162C620.304 400.014 618.162 404.118 613.878 408.474L605.346 417.006H621.006V423H596.112ZM640.528 400.644C643.264 401.292 645.478 402.57 647.17 404.478C648.898 406.35 649.762 408.708 649.762 411.552C649.762 415.332 648.484 418.302 645.928 420.462C643.372 422.622 640.24 423.702 636.532 423.702C633.652 423.702 631.06 423.036 628.756 421.704C626.488 420.372 624.85 418.428 623.842 415.872L629.134 412.794C630.25 416.034 632.716 417.654 636.532 417.654C638.692 417.654 640.402 417.114 641.662 416.034C642.922 414.918 643.552 413.424 643.552 411.552C643.552 409.68 642.922 408.204 641.662 407.124C640.402 406.044 638.692 405.504 636.532 405.504H635.128L632.644 401.778L640.798 391.032H624.976V385.2H648.196V390.492L640.528 400.644Z" fill="white"/>
<path d="M454 354H465.5V359.5" stroke="#F4F6F8" stroke-width="2"/>
</svg>
