<svg width="540" height="490" viewBox="0 0 540 490" fill="none" xmlns="http://www.w3.org/2000/svg" style="">
<path fill="url(#paint0_linear_3383_11903)" d="M44.12299999999999,244.711A244.711,244.711 0,1,1 533.5450000000001,244.711A244.711,244.711 0,1,1 44.12299999999999,244.711" class="xUinCIhs_0"></path>
<mask id="mask0_3383_11903" style="mask-type:alpha" maskUnits="userSpaceOnUse" x="44" y="0" width="490" height="490">
<path fill="url(#paint1_linear_3383_11903)" d="M44.125,244.711A244.711,244.711 0,1,1 533.547,244.711A244.711,244.711 0,1,1 44.125,244.711" class="xUinCIhs_1"></path>
</mask>
<g mask="url(#mask0_3383_11903)">
<g filter="url(#filter0_f_3383_11903)">
<path fill-rule="evenodd" clip-rule="evenodd" d="M424.065 44.878C428.003 43.5117 438.964 53.7516 451.6 66.905C458.743 74.3406 468.39 92.5857 464.302 103.337C461.449 107.644 457.029 105.294 454.189 109.608C451.626 113.503 456.114 119.52 458.952 122.06C465.627 128.032 476.12 131.139 480.546 139.515C482.957 144.078 486.636 146.156 489.072 146.258C495.998 146.548 490.317 133.522 498.641 133.864C513.831 134.488 516.527 172.764 503.991 179.15C492.902 184.798 488.733 171.923 488.733 208.65C488.195 224.098 488.425 249.284 489.855 260.941C490.433 265.66 490.029 274.067 493.667 277.749C498.17 282.306 503.258 273.41 507.796 280.501C518.075 296.566 517.256 327.174 509.141 343.113C498.915 363.199 483.421 378.398 473.484 398.439C467.391 410.727 454.496 423.144 443.642 430.966C448.815 424.352 465.459 408.159 469.615 399.778C480.212 378.405 496.483 361.471 506.7 341.402C513.939 327.184 515.912 297.048 506.7 282.651C503.288 277.319 496.108 284.827 491.833 280.501C487.128 275.74 487.705 267.183 486.939 260.941C485.424 248.582 484.424 186.557 492.778 181.578C496.311 180.496 500.532 180.495 503.649 178.257C506.027 176.55 509.618 171.865 510.463 161.365C510.964 155.149 505.52 134.685 497.796 136.627C491.417 138.23 495.946 150.556 487.181 150.188C484.647 149.435 480.189 146.889 477.289 141.398C473.272 133.797 464.183 131.388 458.108 125.953C453.25 121.607 448.342 115.832 452.438 109.608C454.53 106.428 460.624 107.568 463.295 103.337C466.445 98.347 463.285 90.2331 462.5 88.0472C459.834 80.6251 454.705 72.1413 449.674 66.905C441.448 58.3421 430.694 49.6033 425.448 46.4575C419.762 46.4575 401.929 32.9745 393.484 25.8984C400.565 29.7812 421.132 45.8959 424.065 44.878Z" fill="#0F44FF" class="xUinCIhs_2"></path>
</g>
<path d="M401.221 28.4629C403.92 32.4354 420.338 41.4681 428.209 45.4879C433.439 48.6466 446.003 57.1757 454.417 66.0226C464.936 77.0812 475.484 101.294 465.922 103.807C456.36 106.321 453.9 110.321 456.291 118.364C458.681 126.407 476.522 132.959 480.972 141.465C486.231 151.518 498.128 154.646 498.128 139.566C498.128 128.915 515.895 142.033 514.18 163.54C512.466 185.046 504.14 182.641 496.012 185.154C487.885 187.667 488.363 236.928 491.231 260.554C494.1 284.179 496.49 280.66 506.052 281.666C515.614 282.671 517.049 302.504 517.049 323.889C517.049 348.405 481.191 382.701 473.542 398.284C468.981 407.575 459.199 416.882 452.983 421.406C444.218 430.957 437.38 442.732 457.764 427.941C491.709 403.31 531.392 322.381 537.129 254.522C542.866 186.662 515.753 137.822 494.1 102.214C475.454 71.5519 443.031 46.4933 428.209 37.8735C413.388 29.2536 397.848 23.4973 401.221 28.4629Z" fill="url(#paint2_linear_3383_11903)" class="xUinCIhs_3"></path>
<g filter="url(#filter1_f_3383_11903)">
<path fill-rule="evenodd" clip-rule="evenodd" d="M427.7 45.6051C431.638 44.2388 442.599 54.4787 455.235 67.6321C462.378 75.0676 472.025 93.3128 467.937 104.064C465.084 108.371 460.663 106.021 457.824 110.335C455.261 114.23 459.748 120.247 462.587 122.787C469.262 128.759 479.755 131.866 484.181 140.242C486.592 144.805 490.271 146.883 492.707 146.985C499.633 147.275 493.952 134.249 502.276 134.591C517.466 135.215 520.162 173.491 507.626 179.877C496.537 185.525 492.368 172.65 492.368 209.377C491.83 224.825 492.06 250.011 493.489 261.668C494.068 266.387 493.664 274.794 497.302 278.476C501.805 283.033 506.893 274.137 511.43 281.228C521.71 297.294 520.891 327.901 512.776 343.84C502.55 363.926 487.055 379.125 477.118 399.167C471.026 411.454 458.13 423.871 447.277 431.693C452.449 425.079 469.094 408.886 473.249 400.505C483.847 379.132 500.118 362.198 510.335 342.129C517.574 327.911 519.547 297.775 510.335 283.379C506.923 278.046 499.742 285.554 495.468 281.228C490.763 276.467 491.34 267.91 490.574 261.668C489.058 249.309 488.059 187.284 496.413 182.305C499.946 181.223 504.167 181.222 507.283 178.984C509.662 177.277 513.252 172.592 514.098 162.092C514.598 155.876 509.155 135.412 501.431 137.354C495.052 138.957 499.58 151.283 490.815 150.916C488.282 150.162 483.824 147.616 480.923 142.125C476.907 134.524 467.817 132.115 461.743 126.68C456.885 122.334 451.977 116.559 456.073 110.335C458.165 107.156 464.259 108.295 466.93 104.064C470.08 99.074 466.92 90.9602 466.135 88.7743C463.468 81.3522 458.34 72.8684 453.309 67.6321C445.083 59.0691 434.328 50.3304 429.083 47.1845C423.397 47.1845 405.563 33.7016 397.119 26.6255C404.2 30.5083 424.767 46.6229 427.7 45.6051Z" fill="#24A900" class="xUinCIhs_4"></path>
</g>
<g filter="url(#filter2_f_3383_11903)">
<path d="M327.057 447.803C311.124 451.998 236.77 450.599 183.66 424.031C130.551 397.462 114.618 375.438 103.288 353.414C91.9575 331.39 114.264 335.935 115.68 330.341C117.096 324.748 125.594 311.813 103.288 297.131C80.9814 282.448 88.7709 272.66 88.7709 263.221C88.7709 253.782 93.7278 214.978 85.2302 208.336C76.7327 201.694 72.4839 211.482 58.3213 205.889" stroke="#0A4EC5" stroke-width="3.63525" class="xUinCIhs_5"></path>
</g>
<g filter="url(#filter3_f_3383_11903)">
<path d="M156.92 38.3475C163.946 39.7927 166.757 44.1286 173.081 43.0446C179.404 41.9607 191.349 33.6503 198.375 38.3475C205.402 43.0446 207.509 44.8512 212.779 43.0446C218.049 41.238 243.695 44.1284 245.451 52.4387C247.208 60.7491 220.157 78.8148 220.859 82.7893C221.562 86.7638 228.237 86.7638 241.938 109.165C255.64 131.567 252.478 138.044 252.126 144.548C251.775 151.051 206.456 180.318 198.375 177.066C190.295 173.814 179.053 173.092 177.296 177.066C175.54 181.041 163.595 214.643 156.92 221.147C150.245 227.65 126.707 228.373 118.978 241.38C111.249 254.388 108.088 291.268 121.789 288.739C135.49 286.21 152.353 265.254 170.621 263.447C188.89 261.641 190.646 265.615 194.511 273.203C198.375 280.79 267.233 318.728 268.638 326.677C270.043 334.626 248.964 394.605 258.801 407.612" stroke="#0A4EC5" stroke-width="3.63525" class="xUinCIhs_6"></path>
</g>
<path d="M76.4214 96.4062C71.6435 101.184 70.7782 107.824 70.9427 110.547C69.49 114.031 65.9522 121.771 63.4227 124.863C60.2609 128.727 59.5583 134.7 58.153 144.888C56.7478 155.076 50.8487 166.767 48.0382 175.901C45.2276 185.035 44.1737 199.79 58.2263 205.411C72.2788 211.032 76.4946 201.196 84.9262 207.871C93.3577 214.546 88.4393 253.542 88.4393 263.027C88.4393 272.512 80.7104 282.349 102.843 297.104C124.976 311.86 116.544 324.858 115.139 330.479C113.734 336.1 91.6011 331.533 102.843 353.666C114.085 375.799 129.894 397.932 182.592 424.632C235.289 451.331 309.065 452.737 324.874 448.521C340.683 444.305 335.062 427.091 330.143 424.632C325.225 422.172 317.847 427.091 311.172 427.091C304.498 427.091 269.366 406.363 259.529 393.716C249.692 381.069 270.771 322.75 269.366 315.021C267.961 307.293 199.103 270.405 195.239 263.027C191.374 255.649 189.618 251.785 171.349 253.542C153.081 255.298 136.218 275.674 122.517 278.133C108.816 280.593 111.977 248.974 119.706 236.327C127.435 223.68 150.973 222.977 157.648 216.654C164.323 210.33 176.268 177.658 178.024 173.793C179.781 169.929 191.023 170.631 199.103 173.793C207.184 176.955 252.503 148.499 252.854 142.175C253.206 135.851 256.367 125.312 242.666 103.53C228.965 81.7488 222.29 81.7488 221.587 77.8844C220.885 74.0199 247.936 56.4542 246.179 48.3739C244.423 40.2936 218.777 37.4833 213.507 39.2399C208.237 40.9965 206.13 39.2399 199.103 34.6727C192.077 30.1056 180.132 38.1859 173.809 39.2399C167.485 40.2938 164.674 36.078 157.648 34.6727C150.622 33.2675 134.037 41.9526 125.605 45.4657C117.174 48.9789 107.337 64.4367 100.311 68.6525C93.2844 72.8682 82.3937 90.4339 76.4214 96.4062Z" fill="url(#paint3_linear_3383_11903)" class="xUinCIhs_7"></path>
<g filter="url(#filter4_f_3383_11903)">
<path d="M156.92 34.6982C163.946 36.1293 166.757 40.4226 173.081 39.3493C179.404 38.276 191.349 30.0471 198.375 34.6982C205.402 39.3493 207.509 41.1382 212.779 39.3493C218.049 37.5604 243.695 40.4224 245.451 48.6513C247.208 56.8801 220.157 74.7687 220.859 78.7042C221.562 82.6397 228.237 82.6397 241.938 104.822C255.64 127.003 252.478 133.417 252.126 139.857C251.775 146.297 206.456 175.277 198.375 172.057C190.295 168.837 179.053 168.121 177.296 172.057C175.54 175.992 163.595 209.265 156.92 215.705C150.245 222.145 126.707 222.86 118.978 235.74C111.249 248.62 108.088 285.139 121.789 282.634C135.49 280.13 152.353 259.379 170.621 257.59C188.89 255.802 190.646 259.737 194.511 267.25C198.375 274.763 267.233 312.33 268.638 320.201C270.043 328.072 248.964 387.462 258.801 400.342" stroke="url(#paint4_linear_3383_11903)" stroke-opacity="0.4" stroke-width="3.63525" class="xUinCIhs_8"></path>
</g>
</g>
<g style="mix-blend-mode:hard-light" filter="url(#filter5_f_3383_11903)">
<path fill="url(#paint5_linear_3383_11903)" d="M374.6435,59.7192A17.5025,11.4751 0,1,1 409.6485,59.7192A17.5025,11.4751 0,1,1 374.6435,59.7192" class="xUinCIhs_9"></path>
</g>
<g filter="url(#filter6_f_3383_11903)">
<path fill="url(#paint6_linear_3383_11903)" d="M374.6436,41.7191A23.0194,15.0922 0,1,1 420.68240000000003,41.7191A23.0194,15.0922 0,1,1 374.6436,41.7191" class="xUinCIhs_10"></path>
</g>
<g filter="url(#filter7_f_3383_11903)">
<path d="M341.429 127.801C313.326 114.418 293.948 96.1077 298.606 87.9886C307.837 71.8951 321.371 80.6283 343.77 80.6284C361.167 80.6284 373.851 75.9936 384.921 82.6357C402.474 93.1681 389.553 114.938 377.226 119.102C370.893 121.241 360.463 136.865 341.429 127.801Z" fill="url(#paint7_linear_3383_11903)" class="xUinCIhs_11"></path>
</g>
<g filter="url(#filter8_f_3383_11903)">
<path d="M341.429 98.7188C313.326 85.3362 293.948 67.0256 298.606 58.9065C307.837 42.813 321.371 51.5463 343.77 51.5463C361.167 51.5464 373.851 46.9116 384.921 53.5537C402.474 64.0861 389.553 85.856 377.226 90.02C370.893 92.1591 360.463 107.783 341.429 98.7188Z" fill="url(#paint8_linear_3383_11903)" class="xUinCIhs_12"></path>
</g>
<mask id="mask1_3383_11903" style="mask-type:alpha" maskUnits="userSpaceOnUse" x="297" y="49" width="97" height="53">
<path d="M341.431 98.7183C313.328 85.3358 293.95 67.0252 298.607 58.9061C307.839 42.8125 321.373 51.5458 343.772 51.5459C361.169 51.5459 373.853 46.9111 384.923 53.5532C402.476 64.0856 389.555 85.8555 377.228 90.0196C370.895 92.1586 360.465 107.783 341.431 98.7183Z" fill="#CCDAE2" class="xUinCIhs_13"></path>
</mask>
<g mask="url(#mask1_3383_11903)">
<g filter="url(#filter9_f_3383_11903)">
<path fill-rule="evenodd" clip-rule="evenodd" d="M298.972 58.2891C303.195 67.5397 319.706 80.8313 341.433 91.1775C355.697 97.9705 365.129 90.898 371.626 86.0266C373.799 84.3976 375.643 83.0148 377.23 82.4788C384.164 80.1365 391.286 72.2238 393.066 63.8739C395.603 74.479 386.257 86.9697 377.23 90.0191C375.643 90.5551 373.799 91.9379 371.626 93.5669C365.129 98.4383 355.697 105.511 341.433 98.7178C313.33 85.3353 293.952 67.0247 298.609 58.9056C298.73 58.6959 298.851 58.4904 298.972 58.2891Z" fill="#91A4C8" class="xUinCIhs_14"></path>
</g>
</g>
<g style="mix-blend-mode:hard-light" filter="url(#filter10_f_3383_11903)">
<path d="M129.623 236.761C106.558 193.509 99.1546 152.181 112.652 146.258C139.407 134.516 148.373 158.244 176.741 179.21C198.774 195.493 219.176 201.495 226.978 220.268C239.351 250.037 202.611 265.514 183.101 259.249C173.079 256.031 145.246 266.056 129.623 236.761Z" fill="url(#paint9_linear_3383_11903)" class="xUinCIhs_15"></path>
</g>
<g filter="url(#filter11_f_3383_11903)">
<path d="M149.574 214.471C126.509 171.219 119.106 129.891 132.603 123.968C159.358 112.226 168.325 135.954 196.692 156.92C218.725 173.203 239.127 179.205 246.93 197.978C259.303 227.747 222.562 243.224 203.052 236.959C193.03 233.741 165.197 243.766 149.574 214.471Z" fill="url(#paint10_linear_3383_11903)" class="xUinCIhs_16"></path>
</g>
<mask id="mask2_3383_11903" style="mask-type:alpha" maskUnits="userSpaceOnUse" x="125" y="120" width="125" height="119">
<path d="M149.575 214.47C126.51 171.218 119.107 129.891 132.604 123.967C159.359 112.226 168.326 135.954 196.693 156.919C218.726 173.202 239.128 179.204 246.931 197.978C259.304 227.746 222.563 243.224 203.053 236.959C193.031 233.74 165.198 243.766 149.575 214.47Z" fill="#CCDAE2" class="xUinCIhs_17"></path>
</mask>
<g mask="url(#mask2_3383_11903)">
<g filter="url(#filter12_f_3383_11903)">
<path fill-rule="evenodd" clip-rule="evenodd" d="M133.64 123.526C130.328 139.193 138.799 171.482 156.632 204.922C168.339 226.876 186.904 226.748 199.692 226.659C203.968 226.629 207.598 226.604 210.109 227.411C221.083 230.934 237.509 227.579 247.579 218.672C240.864 234.475 217.339 241.546 203.052 236.959C200.54 236.152 196.91 236.177 192.634 236.207C179.847 236.296 161.282 236.425 149.574 214.47C126.509 171.218 119.106 129.891 132.603 123.967C132.952 123.814 133.298 123.667 133.64 123.526Z" fill="#91A4C8" class="xUinCIhs_18"></path>
</g>
</g>
<g style="mix-blend-mode:hard-light" filter="url(#filter13_f_3383_11903)">
<path d="M433.197 193.25C436.216 210.158 466.768 210.048 466.768 210.048C466.768 210.048 469.793 220.898 476.435 226.936C484.738 234.484 498.57 230.327 503.099 219.741C509.037 205.862 493.987 176.511 488.568 173.468C483.148 170.425 472.34 168.381 455.734 168.381C439.128 168.381 430.178 176.343 433.197 193.25Z" fill="url(#paint11_linear_3383_11903)" class="xUinCIhs_19"></path>
</g>
<g filter="url(#filter14_f_3383_11903)">
<path d="M447.738 178.709C450.757 195.617 481.309 195.507 481.309 195.507C481.309 195.507 484.334 206.357 490.976 212.395C499.279 219.943 513.111 215.786 517.64 205.2C523.578 191.321 508.528 161.97 503.109 158.927C497.689 155.884 486.881 153.84 470.275 153.84C453.669 153.84 444.719 161.802 447.738 178.709Z" fill="url(#paint12_linear_3383_11903)" class="xUinCIhs_20"></path>
</g>
<mask id="mask3_3383_11903" style="mask-type:alpha" maskUnits="userSpaceOnUse" x="447" y="153" width="73" height="64">
<path d="M447.738 178.708C450.757 195.616 481.309 195.506 481.309 195.506C481.309 195.506 484.334 206.356 490.976 212.394C499.279 219.942 513.111 215.785 517.64 205.199C523.578 191.32 508.528 161.969 503.109 158.926C497.689 155.883 486.881 153.839 470.275 153.839C453.669 153.839 444.719 161.801 447.738 178.708Z" fill="url(#paint13_linear_3383_11903)" class="xUinCIhs_21"></path>
</mask>
<g mask="url(#mask3_3383_11903)">
<g filter="url(#filter15_f_3383_11903)">
<path fill="white" d="M450.4728,164.698A24.5782,15.5066 0,1,1 499.62919999999997,164.698A24.5782,15.5066 0,1,1 450.4728,164.698" class="xUinCIhs_22"></path>
</g>
<g filter="url(#filter16_f_3383_11903)">
<path transform="rotate(57.82 507.014 185.042)" fill="white" d="M491.26370000000003,185.042A15.7503,12.925 0,1,1 522.7643,185.042A15.7503,12.925 0,1,1 491.26370000000003,185.042" class="xUinCIhs_23"></path>
</g>
</g>
<g style="mix-blend-mode:hard-light" filter="url(#filter17_f_3383_11903)">
<path d="M246.711 378.017C228.753 374.842 195.673 374.842 195.673 374.842C195.673 374.842 170.765 374.842 170.765 382.708C170.765 387.372 173.124 396.827 193.549 402.588C210.972 407.502 228.572 426.149 232.416 429.839C238 435.2 241.683 440.243 266.591 437.434C296.3 434.083 341.198 435.87 338.294 420.681C336.658 412.124 298.31 408.172 277.313 398.567C265.749 393.277 260.887 380.523 246.711 378.017Z" fill="url(#paint14_linear_3383_11903)" class="xUinCIhs_24"></path>
</g>
<g filter="url(#filter18_f_3383_11903)">
<path d="M253.982 370.746C236.024 367.571 202.944 367.571 202.944 367.571C202.944 367.571 178.035 367.571 178.035 375.437C178.035 380.101 180.395 389.557 200.819 395.317C218.242 400.232 235.842 418.879 239.686 422.569C245.27 427.93 248.953 432.973 273.862 430.163C303.57 426.813 348.468 428.6 345.565 413.411C343.929 404.854 305.581 400.902 284.584 391.297C273.019 386.006 268.157 373.253 253.982 370.746Z" fill="url(#paint15_linear_3383_11903)" class="xUinCIhs_25"></path>
</g>
<g style="mix-blend-mode:hard-light" filter="url(#filter19_f_3383_11903)">
<path d="M502.646 304.732C496.011 318.949 461.653 287.536 451.463 304.732C445.424 314.922 456.657 316.035 462.836 325.584C473.262 341.698 480.227 332.335 490.653 334.231C501.08 336.126 515.916 304.732 514.968 299.045C514.02 293.358 509.281 290.514 502.646 304.732Z" fill="url(#paint16_linear_3383_11903)" class="xUinCIhs_26"></path>
</g>
<g filter="url(#filter20_f_3383_11903)">
<path d="M518.641 325.089C512.006 339.307 477.648 307.893 467.458 325.089C461.419 335.279 472.652 336.392 478.831 345.942C489.257 362.055 496.222 352.692 506.649 354.588C517.075 356.484 531.911 325.089 530.963 319.402C530.015 313.715 525.276 310.872 518.641 325.089Z" fill="url(#paint17_linear_3383_11903)" class="xUinCIhs_27"></path>
</g>
<g style="mix-blend-mode:hard-light" filter="url(#filter21_f_3383_11903)">
<path d="M65.5151 269.321C65.5151 269.321 60.5849 279.296 63.7022 300.769C66.3239 318.83 89.1826 327.275 104.257 328.162C123.101 329.271 109.307 280.774 86.9792 289.623C69.6034 255.527 65.5151 269.321 65.5151 269.321Z" fill="url(#paint18_linear_3383_11903)" class="xUinCIhs_28"></path>
</g>
<g filter="url(#filter22_f_3383_11903)">
<path d="M13.3565 258.766C13.3565 258.766 7.54228 270.53 11.2185 295.854C14.3103 317.153 41.268 327.113 59.0462 328.159C81.2689 329.466 65.0007 272.273 38.6695 282.708C18.1779 242.499 13.3565 258.766 13.3565 258.766Z" fill="url(#paint19_linear_3383_11903)" class="xUinCIhs_29"></path>
</g>
<g filter="url(#filter23_f_3383_11903)">
<path d="M15.6947 260.284C4.25941 268.403 13.4326 271.912 15.6945 297.402C17.7919 321.038 33.2293 326.79 51.0075 327.836C73.2302 329.143 40.5497 280.776 39.2425 292.219C37.9353 303.662 18.0355 258.622 15.6947 260.284Z" fill="url(#paint20_linear_3383_11903)" class="xUinCIhs_30"></path>
</g>
<defs>
<filter id="filter0_f_3383_11903" x="386.214" y="18.6279" width="136.425" height="419.608" filterUnits="userSpaceOnUse" color-interpolation-filters="sRGB">
<feFlood flood-opacity="0" result="BackgroundImageFix"></feFlood>
<feBlend mode="normal" in="SourceGraphic" in2="BackgroundImageFix" result="shape"></feBlend>
<feGaussianBlur stdDeviation="3.63525" result="effect1_foregroundBlur_3383_11903"></feGaussianBlur>
</filter>
<filter id="filter1_f_3383_11903" x="394.211" y="23.7173" width="127.7" height="410.884" filterUnits="userSpaceOnUse" color-interpolation-filters="sRGB">
<feFlood flood-opacity="0" result="BackgroundImageFix"></feFlood>
<feBlend mode="normal" in="SourceGraphic" in2="BackgroundImageFix" result="shape"></feBlend>
<feGaussianBlur stdDeviation="1.4541" result="effect1_foregroundBlur_3383_11903"></feGaussianBlur>
</filter>
<filter id="filter2_f_3383_11903" x="43.8394" y="190.291" width="297.494" height="274.937" filterUnits="userSpaceOnUse" color-interpolation-filters="sRGB">
<feFlood flood-opacity="0" result="BackgroundImageFix"></feFlood>
<feBlend mode="normal" in="SourceGraphic" in2="BackgroundImageFix" result="shape"></feBlend>
<feGaussianBlur stdDeviation="6.90698" result="effect1_foregroundBlur_3383_11903"></feGaussianBlur>
</filter>
<filter id="filter3_f_3383_11903" x="96.7153" y="21.2891" width="187.622" height="401.233" filterUnits="userSpaceOnUse" color-interpolation-filters="sRGB">
<feFlood flood-opacity="0" result="BackgroundImageFix"></feFlood>
<feBlend mode="normal" in="SourceGraphic" in2="BackgroundImageFix" result="shape"></feBlend>
<feGaussianBlur stdDeviation="6.90698" result="effect1_foregroundBlur_3383_11903"></feGaussianBlur>
</filter>
<filter id="filter4_f_3383_11903" x="104.713" y="25.6514" width="171.627" height="381.61" filterUnits="userSpaceOnUse" color-interpolation-filters="sRGB">
<feFlood flood-opacity="0" result="BackgroundImageFix"></feFlood>
<feBlend mode="normal" in="SourceGraphic" in2="BackgroundImageFix" result="shape"></feBlend>
<feGaussianBlur stdDeviation="2.9082" result="effect1_foregroundBlur_3383_11903"></feGaussianBlur>
</filter>
<filter id="filter5_f_3383_11903" x="349.924" y="23.5244" width="84.4443" height="72.3896" filterUnits="userSpaceOnUse" color-interpolation-filters="sRGB">
<feFlood flood-opacity="0" result="BackgroundImageFix"></feFlood>
<feBlend mode="normal" in="SourceGraphic" in2="BackgroundImageFix" result="shape"></feBlend>
<feGaussianBlur stdDeviation="12.3599" result="effect1_foregroundBlur_3383_11903"></feGaussianBlur>
</filter>
<filter id="filter6_f_3383_11903" x="371.008" y="22.9917" width="53.3096" height="37.4546" filterUnits="userSpaceOnUse" color-interpolation-filters="sRGB">
<feFlood flood-opacity="0" result="BackgroundImageFix"></feFlood>
<feBlend mode="normal" in="SourceGraphic" in2="BackgroundImageFix" result="shape"></feBlend>
<feGaussianBlur stdDeviation="1.81763" result="effect1_foregroundBlur_3383_11903"></feGaussianBlur>
</filter>
<filter id="filter7_f_3383_11903" x="273.194" y="53.543" width="145.01" height="101.782" filterUnits="userSpaceOnUse" color-interpolation-filters="sRGB">
<feFlood flood-opacity="0" result="BackgroundImageFix"></feFlood>
<feBlend mode="normal" in="SourceGraphic" in2="BackgroundImageFix" result="shape"></feBlend>
<feGaussianBlur stdDeviation="12.3599" result="effect1_foregroundBlur_3383_11903"></feGaussianBlur>
</filter>
<filter id="filter8_f_3383_11903" x="295.914" y="47.1807" width="99.5703" height="56.3423" filterUnits="userSpaceOnUse" color-interpolation-filters="sRGB">
<feFlood flood-opacity="0" result="BackgroundImageFix"></feFlood>
<feBlend mode="normal" in="SourceGraphic" in2="BackgroundImageFix" result="shape"></feBlend>
<feGaussianBlur stdDeviation="1" result="effect1_foregroundBlur_3383_11903"></feGaussianBlur>
</filter>
<filter id="filter9_f_3383_11903" x="284.104" y="44.4751" width="123.198" height="70.8608" filterUnits="userSpaceOnUse" color-interpolation-filters="sRGB">
<feFlood flood-opacity="0" result="BackgroundImageFix"></feFlood>
<feBlend mode="normal" in="SourceGraphic" in2="BackgroundImageFix" result="shape"></feBlend>
<feGaussianBlur stdDeviation="6.90698" result="effect1_foregroundBlur_3383_11903"></feGaussianBlur>
</filter>
<filter id="filter10_f_3383_11903" x="81.207" y="118.421" width="172.982" height="166.925" filterUnits="userSpaceOnUse" color-interpolation-filters="sRGB">
<feFlood flood-opacity="0" result="BackgroundImageFix"></feFlood>
<feBlend mode="normal" in="SourceGraphic" in2="BackgroundImageFix" result="shape"></feBlend>
<feGaussianBlur stdDeviation="12.3599" result="effect1_foregroundBlur_3383_11903"></feGaussianBlur>
</filter>
<filter id="filter11_f_3383_11903" x="122.243" y="117.215" width="130.813" height="124.756" filterUnits="userSpaceOnUse" color-interpolation-filters="sRGB">
<feFlood flood-opacity="0" result="BackgroundImageFix"></feFlood>
<feBlend mode="normal" in="SourceGraphic" in2="BackgroundImageFix" result="shape"></feBlend>
<feGaussianBlur stdDeviation="1.81763" result="effect1_foregroundBlur_3383_11903"></feGaussianBlur>
</filter>
<filter id="filter12_f_3383_11903" x="112.064" y="109.712" width="149.329" height="142.437" filterUnits="userSpaceOnUse" color-interpolation-filters="sRGB">
<feFlood flood-opacity="0" result="BackgroundImageFix"></feFlood>
<feBlend mode="normal" in="SourceGraphic" in2="BackgroundImageFix" result="shape"></feBlend>
<feGaussianBlur stdDeviation="6.90698" result="effect1_foregroundBlur_3383_11903"></feGaussianBlur>
</filter>
<filter id="filter13_f_3383_11903" x="407.897" y="143.662" width="121.285" height="111.844" filterUnits="userSpaceOnUse" color-interpolation-filters="sRGB">
<feFlood flood-opacity="0" result="BackgroundImageFix"></feFlood>
<feBlend mode="normal" in="SourceGraphic" in2="BackgroundImageFix" result="shape"></feBlend>
<feGaussianBlur stdDeviation="12.3599" result="effect1_foregroundBlur_3383_11903"></feGaussianBlur>
</filter>
<filter id="filter14_f_3383_11903" x="442.069" y="148.751" width="82.0244" height="72.5835" filterUnits="userSpaceOnUse" color-interpolation-filters="sRGB">
<feFlood flood-opacity="0" result="BackgroundImageFix"></feFlood>
<feBlend mode="normal" in="SourceGraphic" in2="BackgroundImageFix" result="shape"></feBlend>
<feGaussianBlur stdDeviation="2.54468" result="effect1_foregroundBlur_3383_11903"></feGaussianBlur>
</filter>
<filter id="filter15_f_3383_11903" x="435.932" y="134.65" width="78.2383" height="60.0952" filterUnits="userSpaceOnUse" color-interpolation-filters="sRGB">
<feFlood flood-opacity="0" result="BackgroundImageFix"></feFlood>
<feBlend mode="normal" in="SourceGraphic" in2="BackgroundImageFix" result="shape"></feBlend>
<feGaussianBlur stdDeviation="7.2705" result="effect1_foregroundBlur_3383_11903"></feGaussianBlur>
</filter>
<filter id="filter16_f_3383_11903" x="478.688" y="155.495" width="56.6543" height="59.0947" filterUnits="userSpaceOnUse" color-interpolation-filters="sRGB">
<feFlood flood-opacity="0" result="BackgroundImageFix"></feFlood>
<feBlend mode="normal" in="SourceGraphic" in2="BackgroundImageFix" result="shape"></feBlend>
<feGaussianBlur stdDeviation="7.2705" result="effect1_foregroundBlur_3383_11903"></feGaussianBlur>
</filter>
<filter id="filter17_f_3383_11903" x="146.045" y="350.122" width="217.103" height="112.835" filterUnits="userSpaceOnUse" color-interpolation-filters="sRGB">
<feFlood flood-opacity="0" result="BackgroundImageFix"></feFlood>
<feBlend mode="normal" in="SourceGraphic" in2="BackgroundImageFix" result="shape"></feBlend>
<feGaussianBlur stdDeviation="12.3599" result="effect1_foregroundBlur_3383_11903"></feGaussianBlur>
</filter>
<filter id="filter18_f_3383_11903" x="174.4" y="363.936" width="174.934" height="70.6665" filterUnits="userSpaceOnUse" color-interpolation-filters="sRGB">
<feFlood flood-opacity="0" result="BackgroundImageFix"></feFlood>
<feBlend mode="normal" in="SourceGraphic" in2="BackgroundImageFix" result="shape"></feBlend>
<feGaussianBlur stdDeviation="1.81763" result="effect1_foregroundBlur_3383_11903"></feGaussianBlur>
</filter>
<filter id="filter19_f_3383_11903" x="425.014" y="269.666" width="114.718" height="90.2964" filterUnits="userSpaceOnUse" color-interpolation-filters="sRGB">
<feFlood flood-opacity="0" result="BackgroundImageFix"></feFlood>
<feBlend mode="normal" in="SourceGraphic" in2="BackgroundImageFix" result="shape"></feBlend>
<feGaussianBlur stdDeviation="12.3599" result="effect1_foregroundBlur_3383_11903"></feGaussianBlur>
</filter>
<filter id="filter20_f_3383_11903" x="462.093" y="311.107" width="72.5488" height="48.1274" filterUnits="userSpaceOnUse" color-interpolation-filters="sRGB">
<feFlood flood-opacity="0" result="BackgroundImageFix"></feFlood>
<feBlend mode="normal" in="SourceGraphic" in2="BackgroundImageFix" result="shape"></feBlend>
<feGaussianBlur stdDeviation="1.81763" result="effect1_foregroundBlur_3383_11903"></feGaussianBlur>
</filter>
<filter id="filter21_f_3383_11903" x="48.1279" y="252.021" width="79.5293" height="90.7012" filterUnits="userSpaceOnUse" color-interpolation-filters="sRGB">
<feFlood flood-opacity="0" result="BackgroundImageFix"></feFlood>
<feBlend mode="normal" in="SourceGraphic" in2="BackgroundImageFix" result="shape"></feBlend>
<feGaussianBlur stdDeviation="7.2705" result="effect1_foregroundBlur_3383_11903"></feGaussianBlur>
</filter>
<filter id="filter22_f_3383_11903" x="6.36475" y="251.877" width="66.7637" height="79.9394" filterUnits="userSpaceOnUse" color-interpolation-filters="sRGB">
<feFlood flood-opacity="0" result="BackgroundImageFix"></feFlood>
<feBlend mode="normal" in="SourceGraphic" in2="BackgroundImageFix" result="shape"></feBlend>
<feGaussianBlur stdDeviation="1.81763" result="effect1_foregroundBlur_3383_11903"></feGaussianBlur>
</filter>
<filter id="filter23_f_3383_11903" x="0.619635" y="250.788" width="67.5605" height="86.5259" filterUnits="userSpaceOnUse" color-interpolation-filters="sRGB">
<feFlood flood-opacity="0" result="BackgroundImageFix"></feFlood>
<feBlend mode="normal" in="SourceGraphic" in2="BackgroundImageFix" result="shape"></feBlend>
<feGaussianBlur stdDeviation="4.72583" result="effect1_foregroundBlur_3383_11903"></feGaussianBlur>
</filter>
<linearGradient id="paint0_linear_3383_11903" x1="272.203" y1="17.4227" x2="288.834" y2="489.421" gradientUnits="userSpaceOnUse">
<stop stop-color="#BAD4F0"></stop>
<stop offset="0.397566" stop-color="#3896DD"></stop>
<stop offset="1" stop-color="#1F5FCF"></stop>
</linearGradient>
<linearGradient id="paint1_linear_3383_11903" x1="272.205" y1="17.4227" x2="288.836" y2="489.421" gradientUnits="userSpaceOnUse">
<stop stop-color="#BAD4F0"></stop>
<stop offset="0.397566" stop-color="#3896DD"></stop>
<stop offset="1" stop-color="#1F5FCF"></stop>
</linearGradient>
<linearGradient id="paint2_linear_3383_11903" x1="460.46" y1="38.9182" x2="478.5" y2="369.48" gradientUnits="userSpaceOnUse">
<stop stop-color="#B7F17B"></stop>
<stop offset="1" stop-color="#3EA927"></stop>
</linearGradient>
<linearGradient id="paint3_linear_3383_11903" x1="172.101" y1="45.8403" x2="181.053" y2="384.228" gradientUnits="userSpaceOnUse">
<stop stop-color="#B7F17B"></stop>
<stop offset="1" stop-color="#3EA927"></stop>
</linearGradient>
<linearGradient id="paint4_linear_3383_11903" x1="213.458" y1="90.8992" x2="225.36" y2="299.183" gradientUnits="userSpaceOnUse">
<stop stop-color="#C8FF90"></stop>
<stop offset="0.561758" stop-color="#55B72C"></stop>
<stop offset="1" stop-color="#90EB57"></stop>
</linearGradient>
<linearGradient id="paint5_linear_3383_11903" x1="392.146" y1="66.5025" x2="372.753" y2="45.8826" gradientUnits="userSpaceOnUse">
<stop stop-color="#083EC1"></stop>
<stop offset="1" stop-color="#1C7ED5" stop-opacity="0"></stop>
</linearGradient>
<linearGradient id="paint6_linear_3383_11903" x1="397.663" y1="26.627" x2="397.663" y2="56.8113" gradientUnits="userSpaceOnUse">
<stop stop-color="#F8FCFF"></stop>
<stop offset="1" stop-color="#CCDAE2"></stop>
</linearGradient>
<linearGradient id="paint7_linear_3383_11903" x1="345.699" y1="119.905" x2="302.646" y2="65.1043" gradientUnits="userSpaceOnUse">
<stop stop-color="#083EC1"></stop>
<stop offset="1" stop-color="#1C7ED5" stop-opacity="0"></stop>
</linearGradient>
<linearGradient id="paint8_linear_3383_11903" x1="345.699" y1="49.1807" x2="345.699" y2="101.523" gradientUnits="userSpaceOnUse">
<stop stop-color="#F8FCFF"></stop>
<stop offset="1" stop-color="#CCDAE2"></stop>
</linearGradient>
<linearGradient id="paint9_linear_3383_11903" x1="142.423" y1="230.757" x2="139.189" y2="121.057" gradientUnits="userSpaceOnUse">
<stop stop-color="#083EC1"></stop>
<stop offset="1" stop-color="#1C7ED5" stop-opacity="0"></stop>
</linearGradient>
<linearGradient id="paint10_linear_3383_11903" x1="201.35" y1="155.729" x2="152.358" y2="222.019" gradientUnits="userSpaceOnUse">
<stop stop-color="#F8FCFF"></stop>
<stop offset="1" stop-color="#CCDAE2"></stop>
</linearGradient>
<linearGradient id="paint11_linear_3383_11903" x1="468.54" y1="218.028" x2="416.961" y2="176.633" gradientUnits="userSpaceOnUse">
<stop stop-color="#083EC1"></stop>
<stop offset="1" stop-color="#1C7ED5" stop-opacity="0"></stop>
</linearGradient>
<linearGradient id="paint12_linear_3383_11903" x1="498.15" y1="149.621" x2="486.262" y2="196.14" gradientUnits="userSpaceOnUse">
<stop stop-color="#F8FCFF"></stop>
<stop offset="1" stop-color="#9CAFBA"></stop>
</linearGradient>
<linearGradient id="paint13_linear_3383_11903" x1="483.081" y1="153.839" x2="483.081" y2="216.244" gradientUnits="userSpaceOnUse">
<stop stop-color="#F8FCFF"></stop>
<stop offset="1" stop-color="#CCDAE2"></stop>
</linearGradient>
<linearGradient id="paint14_linear_3383_11903" x1="254.596" y1="425.277" x2="209.61" y2="342.338" gradientUnits="userSpaceOnUse">
<stop stop-color="#083EC1"></stop>
<stop offset="1" stop-color="#1C7ED5" stop-opacity="0"></stop>
</linearGradient>
<linearGradient id="paint15_linear_3383_11903" x1="261.867" y1="367.571" x2="252.64" y2="399.269" gradientUnits="userSpaceOnUse">
<stop stop-color="#F0F6FC"></stop>
<stop offset="1" stop-color="#BEC8DD"></stop>
</linearGradient>
<linearGradient id="paint16_linear_3383_11903" x1="482.372" y1="326.89" x2="447.983" y2="288.587" gradientUnits="userSpaceOnUse">
<stop stop-color="#083EC1"></stop>
<stop offset="1" stop-color="#1C7ED5" stop-opacity="0"></stop>
</linearGradient>
<linearGradient id="paint17_linear_3383_11903" x1="498.368" y1="314.743" x2="489.702" y2="332.727" gradientUnits="userSpaceOnUse">
<stop stop-color="#F0F6FC"></stop>
<stop offset="1" stop-color="#BEC8DD"></stop>
</linearGradient>
<linearGradient id="paint18_linear_3383_11903" x1="69.5066" y1="338.164" x2="-54.3926" y2="262.429" gradientUnits="userSpaceOnUse">
<stop stop-color="#083EC1"></stop>
<stop offset="1" stop-color="#1C7ED5" stop-opacity="0"></stop>
</linearGradient>
<linearGradient id="paint19_linear_3383_11903" x1="-5.53751" y1="288.653" x2="26.4107" y2="288.653" gradientUnits="userSpaceOnUse">
<stop stop-color="#F8FCFF"></stop>
<stop offset="1" stop-color="#B8D1DF"></stop>
</linearGradient>
<linearGradient id="paint20_linear_3383_11903" x1="33.9745" y1="258.486" x2="33.9745" y2="327.861" gradientUnits="userSpaceOnUse">
<stop stop-color="#F8FCFF"></stop>
<stop offset="1" stop-color="#CCDAE2"></stop>
</linearGradient>
</defs>
<style data-made-with="vivus-instant">.xUinCIhs_0{stroke-dasharray:1539 1541;stroke-dashoffset:1540;animation:xUinCIhs_draw_0 7200ms linear 0ms infinite,xUinCIhs_fade 7200ms linear 0ms infinite;}.xUinCIhs_1{stroke-dasharray:1538 1540;stroke-dashoffset:1539;animation:xUinCIhs_draw_1 7200ms linear 0ms infinite,xUinCIhs_fade 7200ms linear 0ms infinite;}.xUinCIhs_2{stroke-dasharray:1098 1100;stroke-dashoffset:1099;animation:xUinCIhs_draw_2 7200ms linear 0ms infinite,xUinCIhs_fade 7200ms linear 0ms infinite;}.xUinCIhs_3{stroke-dasharray:1046 1048;stroke-dashoffset:1047;animation:xUinCIhs_draw_3 7200ms linear 0ms infinite,xUinCIhs_fade 7200ms linear 0ms infinite;}.xUinCIhs_4{stroke-dasharray:1098 1100;stroke-dashoffset:1099;animation:xUinCIhs_draw_4 7200ms linear 0ms infinite,xUinCIhs_fade 7200ms linear 0ms infinite;}.xUinCIhs_5{stroke-dasharray:453 455;stroke-dashoffset:454;animation:xUinCIhs_draw_5 7200ms linear 0ms infinite,xUinCIhs_fade 7200ms linear 0ms infinite;}.xUinCIhs_6{stroke-dasharray:699 701;stroke-dashoffset:700;animation:xUinCIhs_draw_6 7200ms linear 0ms infinite,xUinCIhs_fade 7200ms linear 0ms infinite;}.xUinCIhs_7{stroke-dasharray:1479 1481;stroke-dashoffset:1480;animation:xUinCIhs_draw_7 7200ms linear 0ms infinite,xUinCIhs_fade 7200ms linear 0ms infinite;}.xUinCIhs_8{stroke-dasharray:696 698;stroke-dashoffset:697;animation:xUinCIhs_draw_8 7200ms linear 0ms infinite,xUinCIhs_fade 7200ms linear 0ms infinite;}.xUinCIhs_9{stroke-dasharray:93 95;stroke-dashoffset:94;animation:xUinCIhs_draw_9 7200ms linear 0ms infinite,xUinCIhs_fade 7200ms linear 0ms infinite;}.xUinCIhs_10{stroke-dasharray:122 124;stroke-dashoffset:123;animation:xUinCIhs_draw_10 7200ms linear 0ms infinite,xUinCIhs_fade 7200ms linear 0ms infinite;}.xUinCIhs_11{stroke-dasharray:239 241;stroke-dashoffset:240;animation:xUinCIhs_draw_11 7200ms linear 0ms infinite,xUinCIhs_fade 7200ms linear 0ms infinite;}.xUinCIhs_12{stroke-dasharray:239 241;stroke-dashoffset:240;animation:xUinCIhs_draw_12 7200ms linear 0ms infinite,xUinCIhs_fade 7200ms linear 0ms infinite;}.xUinCIhs_13{stroke-dasharray:239 241;stroke-dashoffset:240;animation:xUinCIhs_draw_13 7200ms linear 0ms infinite,xUinCIhs_fade 7200ms linear 0ms infinite;}.xUinCIhs_14{stroke-dasharray:254 256;stroke-dashoffset:255;animation:xUinCIhs_draw_14 7200ms linear 0ms infinite,xUinCIhs_fade 7200ms linear 0ms infinite;}.xUinCIhs_15{stroke-dasharray:376 378;stroke-dashoffset:377;animation:xUinCIhs_draw_15 7200ms linear 0ms infinite,xUinCIhs_fade 7200ms linear 0ms infinite;}.xUinCIhs_16{stroke-dasharray:376 378;stroke-dashoffset:377;animation:xUinCIhs_draw_16 7200ms linear 0ms infinite,xUinCIhs_fade 7200ms linear 0ms infinite;}.xUinCIhs_17{stroke-dasharray:376 378;stroke-dashoffset:377;animation:xUinCIhs_draw_17 7200ms linear 0ms infinite,xUinCIhs_fade 7200ms linear 0ms infinite;}.xUinCIhs_18{stroke-dasharray:400 402;stroke-dashoffset:401;animation:xUinCIhs_draw_18 7200ms linear 0ms infinite,xUinCIhs_fade 7200ms linear 0ms infinite;}.xUinCIhs_19{stroke-dasharray:217 219;stroke-dashoffset:218;animation:xUinCIhs_draw_19 7200ms linear 0ms infinite,xUinCIhs_fade 7200ms linear 0ms infinite;}.xUinCIhs_20{stroke-dasharray:217 219;stroke-dashoffset:218;animation:xUinCIhs_draw_20 7200ms linear 0ms infinite,xUinCIhs_fade 7200ms linear 0ms infinite;}.xUinCIhs_21{stroke-dasharray:217 219;stroke-dashoffset:218;animation:xUinCIhs_draw_21 7200ms linear 0ms infinite,xUinCIhs_fade 7200ms linear 0ms infinite;}.xUinCIhs_22{stroke-dasharray:128 130;stroke-dashoffset:129;animation:xUinCIhs_draw_22 7200ms linear 0ms infinite,xUinCIhs_fade 7200ms linear 0ms infinite;}.xUinCIhs_23{stroke-dasharray:91 93;stroke-dashoffset:92;animation:xUinCIhs_draw_23 7200ms linear 0ms infinite,xUinCIhs_fade 7200ms linear 0ms infinite;}.xUinCIhs_24{stroke-dasharray:377 379;stroke-dashoffset:378;animation:xUinCIhs_draw_24 7200ms linear 0ms infinite,xUinCIhs_fade 7200ms linear 0ms infinite;}.xUinCIhs_25{stroke-dasharray:377 379;stroke-dashoffset:378;animation:xUinCIhs_draw_25 7200ms linear 0ms infinite,xUinCIhs_fade 7200ms linear 0ms infinite;}.xUinCIhs_26{stroke-dasharray:180 182;stroke-dashoffset:181;animation:xUinCIhs_draw_26 7200ms linear 0ms infinite,xUinCIhs_fade 7200ms linear 0ms infinite;}.xUinCIhs_27{stroke-dasharray:180 182;stroke-dashoffset:181;animation:xUinCIhs_draw_27 7200ms linear 0ms infinite,xUinCIhs_fade 7200ms linear 0ms infinite;}.xUinCIhs_28{stroke-dasharray:180 182;stroke-dashoffset:181;animation:xUinCIhs_draw_28 7200ms linear 0ms infinite,xUinCIhs_fade 7200ms linear 0ms infinite;}.xUinCIhs_29{stroke-dasharray:212 214;stroke-dashoffset:213;animation:xUinCIhs_draw_29 7200ms linear 0ms infinite,xUinCIhs_fade 7200ms linear 0ms infinite;}.xUinCIhs_30{stroke-dasharray:187 189;stroke-dashoffset:188;animation:xUinCIhs_draw_30 7200ms linear 0ms infinite,xUinCIhs_fade 7200ms linear 0ms infinite;}@keyframes xUinCIhs_draw{100%{stroke-dashoffset:0;}}@keyframes xUinCIhs_fade{0%{stroke-opacity:1;}94.44444444444444%{stroke-opacity:1;}100%{stroke-opacity:0;}}@keyframes xUinCIhs_draw_0{11.11111111111111%{stroke-dashoffset: 1540}38.88888888888889%{ stroke-dashoffset: 0;}100%{ stroke-dashoffset: 0;}}@keyframes xUinCIhs_draw_1{11.574074074074074%{stroke-dashoffset: 1539}39.351851851851855%{ stroke-dashoffset: 0;}100%{ stroke-dashoffset: 0;}}@keyframes xUinCIhs_draw_2{12.037037037037036%{stroke-dashoffset: 1099}39.81481481481482%{ stroke-dashoffset: 0;}100%{ stroke-dashoffset: 0;}}@keyframes xUinCIhs_draw_3{12.5%{stroke-dashoffset: 1047}40.27777777777778%{ stroke-dashoffset: 0;}100%{ stroke-dashoffset: 0;}}@keyframes xUinCIhs_draw_4{12.962962962962962%{stroke-dashoffset: 1099}40.74074074074075%{ stroke-dashoffset: 0;}100%{ stroke-dashoffset: 0;}}@keyframes xUinCIhs_draw_5{13.425925925925927%{stroke-dashoffset: 454}41.20370370370371%{ stroke-dashoffset: 0;}100%{ stroke-dashoffset: 0;}}@keyframes xUinCIhs_draw_6{13.88888888888889%{stroke-dashoffset: 700}41.66666666666667%{ stroke-dashoffset: 0;}100%{ stroke-dashoffset: 0;}}@keyframes xUinCIhs_draw_7{14.351851851851851%{stroke-dashoffset: 1480}42.129629629629626%{ stroke-dashoffset: 0;}100%{ stroke-dashoffset: 0;}}@keyframes xUinCIhs_draw_8{14.814814814814817%{stroke-dashoffset: 697}42.592592592592595%{ stroke-dashoffset: 0;}100%{ stroke-dashoffset: 0;}}@keyframes xUinCIhs_draw_9{15.277777777777779%{stroke-dashoffset: 94}43.05555555555556%{ stroke-dashoffset: 0;}100%{ stroke-dashoffset: 0;}}@keyframes xUinCIhs_draw_10{15.740740740740744%{stroke-dashoffset: 123}43.518518518518526%{ stroke-dashoffset: 0;}100%{ stroke-dashoffset: 0;}}@keyframes xUinCIhs_draw_11{16.203703703703702%{stroke-dashoffset: 240}43.98148148148149%{ stroke-dashoffset: 0;}100%{ stroke-dashoffset: 0;}}@keyframes xUinCIhs_draw_12{16.666666666666664%{stroke-dashoffset: 240}44.44444444444444%{ stroke-dashoffset: 0;}100%{ stroke-dashoffset: 0;}}@keyframes xUinCIhs_draw_13{17.12962962962963%{stroke-dashoffset: 240}44.907407407407405%{ stroke-dashoffset: 0;}100%{ stroke-dashoffset: 0;}}@keyframes xUinCIhs_draw_14{17.59259259259259%{stroke-dashoffset: 255}45.370370370370374%{ stroke-dashoffset: 0;}100%{ stroke-dashoffset: 0;}}@keyframes xUinCIhs_draw_15{18.055555555555554%{stroke-dashoffset: 377}45.83333333333333%{ stroke-dashoffset: 0;}100%{ stroke-dashoffset: 0;}}@keyframes xUinCIhs_draw_16{18.51851851851852%{stroke-dashoffset: 377}46.2962962962963%{ stroke-dashoffset: 0;}100%{ stroke-dashoffset: 0;}}@keyframes xUinCIhs_draw_17{18.98148148148148%{stroke-dashoffset: 377}46.75925925925926%{ stroke-dashoffset: 0;}100%{ stroke-dashoffset: 0;}}@keyframes xUinCIhs_draw_18{19.444444444444446%{stroke-dashoffset: 401}47.22222222222222%{ stroke-dashoffset: 0;}100%{ stroke-dashoffset: 0;}}@keyframes xUinCIhs_draw_19{19.90740740740741%{stroke-dashoffset: 218}47.68518518518518%{ stroke-dashoffset: 0;}100%{ stroke-dashoffset: 0;}}@keyframes xUinCIhs_draw_20{20.370370370370374%{stroke-dashoffset: 218}48.14814814814815%{ stroke-dashoffset: 0;}100%{ stroke-dashoffset: 0;}}@keyframes xUinCIhs_draw_21{20.833333333333336%{stroke-dashoffset: 218}48.61111111111111%{ stroke-dashoffset: 0;}100%{ stroke-dashoffset: 0;}}@keyframes xUinCIhs_draw_22{21.296296296296298%{stroke-dashoffset: 129}49.074074074074076%{ stroke-dashoffset: 0;}100%{ stroke-dashoffset: 0;}}@keyframes xUinCIhs_draw_23{21.759259259259263%{stroke-dashoffset: 92}49.53703703703704%{ stroke-dashoffset: 0;}100%{ stroke-dashoffset: 0;}}@keyframes xUinCIhs_draw_24{22.22222222222222%{stroke-dashoffset: 378}50%{ stroke-dashoffset: 0;}100%{ stroke-dashoffset: 0;}}@keyframes xUinCIhs_draw_25{22.685185185185187%{stroke-dashoffset: 378}50.46296296296296%{ stroke-dashoffset: 0;}100%{ stroke-dashoffset: 0;}}@keyframes xUinCIhs_draw_26{23.14814814814815%{stroke-dashoffset: 181}50.92592592592593%{ stroke-dashoffset: 0;}100%{ stroke-dashoffset: 0;}}@keyframes xUinCIhs_draw_27{23.61111111111111%{stroke-dashoffset: 181}51.388888888888886%{ stroke-dashoffset: 0;}100%{ stroke-dashoffset: 0;}}@keyframes xUinCIhs_draw_28{24.074074074074076%{stroke-dashoffset: 181}51.85185185185185%{ stroke-dashoffset: 0;}100%{ stroke-dashoffset: 0;}}@keyframes xUinCIhs_draw_29{24.537037037037038%{stroke-dashoffset: 213}52.31481481481482%{ stroke-dashoffset: 0;}100%{ stroke-dashoffset: 0;}}@keyframes xUinCIhs_draw_30{25%{stroke-dashoffset: 188}52.77777777777778%{ stroke-dashoffset: 0;}100%{ stroke-dashoffset: 0;}}</style></svg>
