<svg width="833" height="797" viewBox="0 0 833 797" fill="none" xmlns="http://www.w3.org/2000/svg">
<g filter="url(#filter0_f_3379_11892)">
<ellipse cx="426.5" cy="403" rx="205.5" ry="182" fill="url(#paint0_linear_3379_11892)"/>
</g>
<circle cx="430.834" cy="317.711" r="244.711" fill="url(#paint1_linear_3379_11892)"/>
<mask id="mask0_3379_11892" style="mask-type:alpha" maskUnits="userSpaceOnUse" x="186" y="73" width="490" height="490">
<circle cx="430.836" cy="317.711" r="244.711" fill="url(#paint2_linear_3379_11892)"/>
</mask>
<g mask="url(#mask0_3379_11892)">
<g filter="url(#filter1_f_3379_11892)">
<path fill-rule="evenodd" clip-rule="evenodd" d="M566.065 117.878C570.003 116.512 580.964 126.752 593.6 139.905C600.743 147.341 610.39 165.586 606.302 176.337C603.449 180.644 599.029 178.294 596.189 182.608C593.626 186.503 598.114 192.52 600.952 195.06C607.627 201.032 618.12 204.139 622.546 212.515C624.957 217.078 628.636 219.156 631.072 219.258C637.998 219.548 632.317 206.522 640.641 206.864C655.831 207.488 658.527 245.764 645.991 252.15C634.902 257.798 630.733 244.923 630.733 281.65C630.195 297.098 630.425 322.284 631.855 333.941C632.433 338.66 632.029 347.067 635.667 350.749C640.17 355.306 645.258 346.41 649.796 353.501C660.075 369.566 659.256 400.174 651.141 416.113C640.915 436.199 625.421 451.398 615.484 471.439C609.391 483.727 596.496 496.144 585.642 503.966C590.815 497.352 607.459 481.159 611.615 472.778C622.212 451.405 638.483 434.471 648.7 414.402C655.939 400.184 657.912 370.048 648.7 355.651C645.288 350.319 638.108 357.827 633.833 353.501C629.128 348.74 629.705 340.183 628.939 333.941C627.424 321.582 626.424 259.557 634.778 254.578C638.311 253.496 642.532 253.495 645.649 251.257C648.027 249.55 651.618 244.865 652.463 234.365C652.964 228.149 647.52 207.685 639.796 209.627C633.417 211.23 637.946 223.556 629.181 223.188C626.647 222.435 622.189 219.889 619.289 214.398C615.272 206.797 606.183 204.388 600.108 198.953C595.25 194.607 590.342 188.832 594.438 182.608C596.53 179.428 602.624 180.568 605.295 176.337C608.445 171.347 605.285 163.233 604.5 161.047C601.834 153.625 596.705 145.141 591.674 139.905C583.448 131.342 572.694 122.603 567.448 119.457C561.762 119.457 543.929 105.975 535.484 98.8984C542.565 102.781 563.132 118.896 566.065 117.878Z" fill="#0F44FF"/>
</g>
<path d="M543.221 101.463C545.92 105.435 562.338 114.468 570.209 118.488C575.439 121.647 588.003 130.176 596.417 139.023C606.936 150.081 617.484 174.294 607.922 176.807C598.36 179.321 595.9 183.321 598.291 191.364C600.681 199.407 618.522 205.959 622.972 214.465C628.231 224.518 640.128 227.646 640.128 212.566C640.128 201.915 657.895 215.033 656.18 236.54C654.466 258.046 646.14 255.641 638.012 258.154C629.885 260.667 630.363 309.928 633.231 333.554C636.1 357.179 638.49 353.66 648.052 354.666C657.614 355.671 659.049 375.504 659.049 396.889C659.049 421.405 623.191 455.701 615.542 471.284C610.981 480.575 601.199 489.882 594.983 494.406C586.218 503.957 579.38 515.732 599.764 500.941C633.709 476.31 673.392 395.381 679.129 327.522C684.866 259.662 657.753 210.822 636.1 175.214C617.454 144.552 585.031 119.493 570.209 110.873C555.388 102.254 539.848 96.4973 543.221 101.463Z" fill="url(#paint3_linear_3379_11892)"/>
<g filter="url(#filter2_f_3379_11892)">
<path fill-rule="evenodd" clip-rule="evenodd" d="M569.7 118.605C573.638 117.239 584.599 127.479 597.235 140.632C604.378 148.068 614.025 166.313 609.937 177.064C607.084 181.371 602.663 179.021 599.824 183.335C597.261 187.23 601.748 193.247 604.587 195.787C611.262 201.759 621.755 204.866 626.181 213.242C628.592 217.805 632.271 219.883 634.707 219.985C641.633 220.275 635.952 207.249 644.276 207.591C659.466 208.215 662.162 246.491 649.626 252.877C638.537 258.525 634.368 245.65 634.368 282.377C633.83 297.825 634.06 323.011 635.489 334.668C636.068 339.387 635.664 347.794 639.302 351.476C643.805 356.033 648.893 347.137 653.43 354.228C663.71 370.294 662.891 400.901 654.776 416.84C644.55 436.926 629.055 452.125 619.118 472.167C613.026 484.454 600.13 496.871 589.277 504.693C594.449 498.079 611.094 481.886 615.249 473.505C625.847 452.132 642.118 435.198 652.335 415.129C659.574 400.911 661.547 370.775 652.335 356.379C648.923 351.046 641.742 358.554 637.468 354.228C632.763 349.467 633.34 340.91 632.574 334.668C631.058 322.309 630.059 260.284 638.413 255.305C641.946 254.223 646.167 254.222 649.283 251.984C651.662 250.277 655.252 245.592 656.098 235.092C656.598 228.876 651.155 208.412 643.431 210.354C637.052 211.957 641.58 224.283 632.815 223.916C630.282 223.162 625.824 220.616 622.923 215.125C618.907 207.524 609.817 205.115 603.743 199.68C598.885 195.334 593.977 189.559 598.073 183.335C600.165 180.156 606.259 181.295 608.93 177.064C612.08 172.074 608.92 163.96 608.135 161.774C605.468 154.352 600.34 145.868 595.309 140.632C587.083 132.069 576.328 123.33 571.083 120.185C565.397 120.185 547.563 106.702 539.119 99.6255C546.2 103.508 566.767 119.623 569.7 118.605Z" fill="#24A900"/>
</g>
<g filter="url(#filter3_f_3379_11892)">
<path d="M469.057 520.803C453.124 524.998 378.77 523.599 325.66 497.031C272.551 470.462 256.618 448.438 245.288 426.414C233.957 404.39 256.264 408.935 257.68 403.341C259.096 397.748 267.594 384.813 245.288 370.131C222.981 355.448 230.771 345.66 230.771 336.221C230.771 326.782 235.728 287.978 227.23 281.336C218.733 274.694 214.484 284.482 200.321 278.889" stroke="#0A4EC5" stroke-width="3.63525"/>
</g>
<g filter="url(#filter4_f_3379_11892)">
<path d="M298.92 111.347C305.946 112.793 308.757 117.129 315.081 116.045C321.404 114.961 333.349 106.65 340.375 111.347C347.402 116.045 349.509 117.851 354.779 116.045C360.049 114.238 385.695 117.128 387.451 125.439C389.208 133.749 362.157 151.815 362.859 155.789C363.562 159.764 370.237 159.764 383.938 182.165C397.64 204.567 394.478 211.044 394.126 217.548C393.775 224.051 348.456 253.318 340.375 250.066C332.295 246.814 321.053 246.092 319.296 250.066C317.54 254.041 305.595 287.643 298.92 294.147C292.245 300.65 268.707 301.373 260.978 314.38C253.249 327.388 250.088 364.268 263.789 361.739C277.49 359.21 294.353 338.254 312.621 336.447C330.89 334.641 332.646 338.615 336.511 346.203C340.375 353.79 409.233 391.728 410.638 399.677C412.043 407.626 390.964 467.605 400.801 480.612" stroke="#0A4EC5" stroke-width="3.63525"/>
</g>
<path d="M218.421 169.406C213.643 174.184 212.778 180.824 212.943 183.547C211.49 187.031 207.952 194.771 205.423 197.863C202.261 201.727 201.558 207.7 200.153 217.888C198.748 228.076 192.849 239.767 190.038 248.901C187.228 258.035 186.174 272.79 200.226 278.411C214.279 284.032 218.495 274.196 226.926 280.871C235.358 287.546 230.439 326.542 230.439 336.027C230.439 345.512 222.71 355.349 244.843 370.104C266.976 384.86 258.544 397.858 257.139 403.479C255.734 409.1 233.601 404.533 244.843 426.666C256.085 448.799 271.894 470.932 324.592 497.632C377.289 524.331 451.065 525.737 466.874 521.521C482.683 517.305 477.062 500.091 472.143 497.632C467.225 495.172 459.847 500.091 453.172 500.091C446.498 500.091 411.366 479.363 401.529 466.716C391.692 454.069 412.771 395.75 411.366 388.021C409.961 380.293 341.103 343.405 337.239 336.027C333.374 328.649 331.618 324.785 313.349 326.542C295.081 328.298 278.218 348.674 264.517 351.133C250.816 353.593 253.977 321.974 261.706 309.327C269.435 296.68 292.973 295.977 299.648 289.654C306.323 283.33 318.268 250.658 320.024 246.793C321.781 242.929 333.023 243.631 341.103 246.793C349.184 249.955 394.503 221.499 394.854 215.175C395.206 208.851 398.367 198.312 384.666 176.53C370.965 154.749 364.29 154.749 363.587 150.884C362.885 147.02 389.936 129.454 388.179 121.374C386.423 113.294 360.777 110.483 355.507 112.24C350.237 113.996 348.13 112.24 341.103 107.673C334.077 103.106 322.132 111.186 315.809 112.24C309.485 113.294 306.674 109.078 299.648 107.673C292.622 106.267 276.037 114.953 267.605 118.466C259.174 121.979 249.337 137.437 242.311 141.652C235.284 145.868 224.394 163.434 218.421 169.406Z" fill="url(#paint4_linear_3379_11892)"/>
<g filter="url(#filter5_f_3379_11892)">
<path d="M298.92 107.698C305.946 109.129 308.757 113.423 315.081 112.349C321.404 111.276 333.349 103.047 340.375 107.698C347.402 112.349 349.509 114.138 354.779 112.349C360.049 110.56 385.695 113.422 387.451 121.651C389.208 129.88 362.157 147.769 362.859 151.704C363.562 155.64 370.237 155.64 383.938 177.822C397.64 200.003 394.478 206.417 394.126 212.857C393.775 219.297 348.456 248.277 340.375 245.057C332.295 241.837 321.053 241.121 319.296 245.057C317.54 248.992 305.595 282.265 298.92 288.705C292.245 295.145 268.707 295.86 260.978 308.74C253.249 321.62 250.088 358.139 263.789 355.634C277.49 353.13 294.353 332.379 312.621 330.59C330.89 328.802 332.646 332.737 336.511 340.25C340.375 347.763 409.233 385.33 410.638 393.201C412.043 401.072 390.964 460.462 400.801 473.342" stroke="url(#paint5_linear_3379_11892)" stroke-opacity="0.4" stroke-width="3.63525"/>
</g>
</g>
<g style="mix-blend-mode:hard-light" filter="url(#filter6_f_3379_11892)">
<ellipse cx="534.146" cy="132.719" rx="17.5025" ry="11.4751" fill="url(#paint6_linear_3379_11892)"/>
</g>
<g filter="url(#filter7_f_3379_11892)">
<ellipse cx="539.663" cy="114.719" rx="23.0194" ry="15.0922" fill="url(#paint7_linear_3379_11892)"/>
</g>
<g filter="url(#filter8_f_3379_11892)">
<path d="M483.429 200.801C455.326 187.418 435.948 169.108 440.606 160.989C449.837 144.895 463.371 153.628 485.77 153.628C503.167 153.628 515.851 148.994 526.921 155.636C544.474 166.168 531.553 187.938 519.226 192.102C512.893 194.241 502.463 209.865 483.429 200.801Z" fill="url(#paint8_linear_3379_11892)"/>
</g>
<g filter="url(#filter9_f_3379_11892)">
<path d="M483.429 171.719C455.326 158.336 435.948 140.026 440.606 131.907C449.837 115.813 463.371 124.546 485.77 124.546C503.167 124.546 515.851 119.912 526.921 126.554C544.474 137.086 531.553 158.856 519.226 163.02C512.893 165.159 502.463 180.783 483.429 171.719Z" fill="url(#paint9_linear_3379_11892)"/>
</g>
<mask id="mask1_3379_11892" style="mask-type:alpha" maskUnits="userSpaceOnUse" x="439" y="122" width="97" height="53">
<path d="M483.431 171.718C455.328 158.336 435.95 140.025 440.607 131.906C449.839 115.813 463.373 124.546 485.772 124.546C503.169 124.546 515.853 119.911 526.923 126.553C544.476 137.086 531.555 158.855 519.228 163.02C512.895 165.159 502.465 180.783 483.431 171.718Z" fill="#CCDAE2"/>
</mask>
<g mask="url(#mask1_3379_11892)">
<g filter="url(#filter10_f_3379_11892)">
<path fill-rule="evenodd" clip-rule="evenodd" d="M440.972 131.289C445.195 140.54 461.706 153.831 483.433 164.178C497.697 170.97 507.129 163.898 513.626 159.027C515.799 157.398 517.643 156.015 519.23 155.479C526.164 153.136 533.286 145.224 535.066 136.874C537.603 147.479 528.257 159.97 519.23 163.019C517.643 163.555 515.799 164.938 513.626 166.567C507.129 171.438 497.697 178.511 483.433 171.718C455.33 158.335 435.952 140.025 440.609 131.906C440.73 131.696 440.851 131.49 440.972 131.289Z" fill="#91A4C8"/>
</g>
</g>
<g style="mix-blend-mode:hard-light" filter="url(#filter11_f_3379_11892)">
<path d="M271.623 309.761C248.558 266.509 241.155 225.181 254.652 219.258C281.407 207.516 290.373 231.244 318.741 252.21C340.774 268.493 361.176 274.495 368.978 293.268C381.351 323.037 344.611 338.514 325.101 332.249C315.079 329.031 287.246 339.056 271.623 309.761Z" fill="url(#paint10_linear_3379_11892)"/>
</g>
<g filter="url(#filter12_f_3379_11892)">
<path d="M291.574 287.471C268.509 244.219 261.106 202.891 274.603 196.968C301.358 185.226 310.325 208.954 338.692 229.92C360.725 246.203 381.127 252.205 388.93 270.978C401.303 300.747 364.562 316.224 345.052 309.959C335.03 306.741 307.197 316.766 291.574 287.471Z" fill="url(#paint11_linear_3379_11892)"/>
</g>
<mask id="mask2_3379_11892" style="mask-type:alpha" maskUnits="userSpaceOnUse" x="267" y="193" width="125" height="119">
<path d="M291.575 287.47C268.51 244.218 261.107 202.891 274.604 196.967C301.359 185.226 310.326 208.954 338.693 229.919C360.726 246.202 381.128 252.204 388.931 270.978C401.304 300.746 364.563 316.224 345.053 309.959C335.031 306.74 307.198 316.766 291.575 287.47Z" fill="#CCDAE2"/>
</mask>
<g mask="url(#mask2_3379_11892)">
<g filter="url(#filter13_f_3379_11892)">
<path fill-rule="evenodd" clip-rule="evenodd" d="M275.64 196.526C272.328 212.193 280.799 244.482 298.632 277.922C310.339 299.876 328.904 299.748 341.692 299.659C345.968 299.629 349.598 299.604 352.109 300.411C363.083 303.934 379.509 300.579 389.579 291.672C382.864 307.475 359.339 314.546 345.052 309.959C342.54 309.152 338.91 309.177 334.634 309.207C321.847 309.296 303.282 309.425 291.574 287.47C268.509 244.218 261.106 202.891 274.603 196.967C274.952 196.814 275.298 196.667 275.64 196.526Z" fill="#91A4C8"/>
</g>
</g>
<g style="mix-blend-mode:hard-light" filter="url(#filter14_f_3379_11892)">
<path d="M575.197 266.25C578.216 283.158 608.768 283.048 608.768 283.048C608.768 283.048 611.793 293.898 618.435 299.936C626.738 307.484 640.57 303.327 645.099 292.741C651.037 278.862 635.987 249.511 630.568 246.468C625.148 243.425 614.34 241.381 597.734 241.381C581.128 241.381 572.178 249.343 575.197 266.25Z" fill="url(#paint12_linear_3379_11892)"/>
</g>
<g filter="url(#filter15_f_3379_11892)">
<path d="M589.738 251.709C592.757 268.617 623.309 268.507 623.309 268.507C623.309 268.507 626.334 279.357 632.976 285.395C641.279 292.943 655.111 288.786 659.64 278.2C665.578 264.321 650.528 234.97 645.109 231.927C639.689 228.884 628.881 226.84 612.275 226.84C595.669 226.84 586.719 234.802 589.738 251.709Z" fill="url(#paint13_linear_3379_11892)"/>
</g>
<mask id="mask3_3379_11892" style="mask-type:alpha" maskUnits="userSpaceOnUse" x="589" y="226" width="73" height="64">
<path d="M589.738 251.708C592.757 268.616 623.309 268.506 623.309 268.506C623.309 268.506 626.334 279.356 632.976 285.394C641.279 292.942 655.111 288.785 659.64 278.199C665.578 264.32 650.528 234.969 645.109 231.926C639.689 228.883 628.881 226.839 612.275 226.839C595.669 226.839 586.719 234.801 589.738 251.708Z" fill="url(#paint14_linear_3379_11892)"/>
</mask>
<g mask="url(#mask3_3379_11892)">
<g filter="url(#filter16_f_3379_11892)">
<ellipse cx="617.051" cy="237.698" rx="24.5782" ry="15.5066" fill="white"/>
</g>
<g filter="url(#filter17_f_3379_11892)">
<ellipse cx="649.014" cy="258.042" rx="15.7503" ry="12.925" transform="rotate(57.82 649.014 258.042)" fill="white"/>
</g>
</g>
<g style="mix-blend-mode:hard-light" filter="url(#filter18_f_3379_11892)">
<path d="M388.711 451.017C370.753 447.842 337.673 447.842 337.673 447.842C337.673 447.842 312.765 447.842 312.765 455.708C312.765 460.372 315.124 469.827 335.549 475.588C352.972 480.502 370.572 499.149 374.416 502.839C380 508.2 383.683 513.243 408.591 510.434C438.3 507.083 483.198 508.87 480.294 493.681C478.658 485.124 440.31 481.172 419.313 471.567C407.749 466.277 402.887 453.523 388.711 451.017Z" fill="url(#paint15_linear_3379_11892)"/>
</g>
<g filter="url(#filter19_f_3379_11892)">
<path d="M395.982 443.746C378.024 440.571 344.944 440.571 344.944 440.571C344.944 440.571 320.035 440.571 320.035 448.437C320.035 453.101 322.395 462.557 342.819 468.317C360.242 473.232 377.842 491.879 381.686 495.569C387.27 500.93 390.953 505.973 415.862 503.163C445.57 499.813 490.468 501.6 487.565 486.411C485.929 477.854 447.581 473.902 426.584 464.297C415.019 459.006 410.157 446.253 395.982 443.746Z" fill="url(#paint16_linear_3379_11892)"/>
</g>
<g style="mix-blend-mode:hard-light" filter="url(#filter20_f_3379_11892)">
<path d="M644.646 377.732C638.011 391.949 603.653 360.536 593.463 377.732C587.424 387.922 598.657 389.035 604.836 398.584C615.262 414.698 622.227 405.335 632.653 407.231C643.08 409.126 657.916 377.732 656.968 372.045C656.02 366.358 651.281 363.514 644.646 377.732Z" fill="url(#paint17_linear_3379_11892)"/>
</g>
<g filter="url(#filter21_f_3379_11892)">
<path d="M660.641 398.089C654.006 412.307 619.648 380.893 609.458 398.089C603.419 408.279 614.652 409.392 620.831 418.942C631.257 435.055 638.222 425.692 648.649 427.588C659.075 429.484 673.911 398.089 672.963 392.402C672.015 386.715 667.276 383.872 660.641 398.089Z" fill="url(#paint18_linear_3379_11892)"/>
</g>
<g style="mix-blend-mode:hard-light" filter="url(#filter22_f_3379_11892)">
<path d="M207.515 342.321C207.515 342.321 202.585 352.296 205.702 373.769C208.324 391.83 231.183 400.275 246.257 401.162C265.101 402.271 251.307 353.774 228.979 362.623C211.603 328.527 207.515 342.321 207.515 342.321Z" fill="url(#paint19_linear_3379_11892)"/>
</g>
<g filter="url(#filter23_f_3379_11892)">
<path d="M155.357 331.766C155.357 331.766 149.542 343.53 153.218 368.854C156.31 390.153 183.268 400.113 201.046 401.159C223.269 402.466 207.001 345.273 180.669 355.708C160.178 315.499 155.357 331.766 155.357 331.766Z" fill="url(#paint20_linear_3379_11892)"/>
</g>
<g filter="url(#filter24_f_3379_11892)">
<path d="M157.695 333.284C146.259 341.403 155.433 344.912 157.694 370.402C159.792 394.038 175.229 399.79 193.007 400.836C215.23 402.143 182.55 353.776 181.243 365.219C179.935 376.662 160.036 331.622 157.695 333.284Z" fill="url(#paint21_linear_3379_11892)"/>
</g>
<defs>
<filter id="filter0_f_3379_11892" x="0.70752" y="0.70752" width="851.585" height="804.585" filterUnits="userSpaceOnUse" color-interpolation-filters="sRGB">
<feFlood flood-opacity="0" result="BackgroundImageFix"/>
<feBlend mode="normal" in="SourceGraphic" in2="BackgroundImageFix" result="shape"/>
<feGaussianBlur stdDeviation="110.146" result="effect1_foregroundBlur_3379_11892"/>
</filter>
<filter id="filter1_f_3379_11892" x="528.214" y="91.6279" width="136.425" height="419.608" filterUnits="userSpaceOnUse" color-interpolation-filters="sRGB">
<feFlood flood-opacity="0" result="BackgroundImageFix"/>
<feBlend mode="normal" in="SourceGraphic" in2="BackgroundImageFix" result="shape"/>
<feGaussianBlur stdDeviation="3.63525" result="effect1_foregroundBlur_3379_11892"/>
</filter>
<filter id="filter2_f_3379_11892" x="536.211" y="96.7173" width="127.7" height="410.884" filterUnits="userSpaceOnUse" color-interpolation-filters="sRGB">
<feFlood flood-opacity="0" result="BackgroundImageFix"/>
<feBlend mode="normal" in="SourceGraphic" in2="BackgroundImageFix" result="shape"/>
<feGaussianBlur stdDeviation="1.4541" result="effect1_foregroundBlur_3379_11892"/>
</filter>
<filter id="filter3_f_3379_11892" x="185.839" y="263.291" width="297.494" height="274.937" filterUnits="userSpaceOnUse" color-interpolation-filters="sRGB">
<feFlood flood-opacity="0" result="BackgroundImageFix"/>
<feBlend mode="normal" in="SourceGraphic" in2="BackgroundImageFix" result="shape"/>
<feGaussianBlur stdDeviation="6.90698" result="effect1_foregroundBlur_3379_11892"/>
</filter>
<filter id="filter4_f_3379_11892" x="238.715" y="94.2891" width="187.622" height="401.233" filterUnits="userSpaceOnUse" color-interpolation-filters="sRGB">
<feFlood flood-opacity="0" result="BackgroundImageFix"/>
<feBlend mode="normal" in="SourceGraphic" in2="BackgroundImageFix" result="shape"/>
<feGaussianBlur stdDeviation="6.90698" result="effect1_foregroundBlur_3379_11892"/>
</filter>
<filter id="filter5_f_3379_11892" x="246.713" y="98.6514" width="171.627" height="381.61" filterUnits="userSpaceOnUse" color-interpolation-filters="sRGB">
<feFlood flood-opacity="0" result="BackgroundImageFix"/>
<feBlend mode="normal" in="SourceGraphic" in2="BackgroundImageFix" result="shape"/>
<feGaussianBlur stdDeviation="2.9082" result="effect1_foregroundBlur_3379_11892"/>
</filter>
<filter id="filter6_f_3379_11892" x="491.924" y="96.5244" width="84.4443" height="72.3896" filterUnits="userSpaceOnUse" color-interpolation-filters="sRGB">
<feFlood flood-opacity="0" result="BackgroundImageFix"/>
<feBlend mode="normal" in="SourceGraphic" in2="BackgroundImageFix" result="shape"/>
<feGaussianBlur stdDeviation="12.3599" result="effect1_foregroundBlur_3379_11892"/>
</filter>
<filter id="filter7_f_3379_11892" x="513.008" y="95.9917" width="53.3096" height="37.4546" filterUnits="userSpaceOnUse" color-interpolation-filters="sRGB">
<feFlood flood-opacity="0" result="BackgroundImageFix"/>
<feBlend mode="normal" in="SourceGraphic" in2="BackgroundImageFix" result="shape"/>
<feGaussianBlur stdDeviation="1.81763" result="effect1_foregroundBlur_3379_11892"/>
</filter>
<filter id="filter8_f_3379_11892" x="415.194" y="126.543" width="145.01" height="101.782" filterUnits="userSpaceOnUse" color-interpolation-filters="sRGB">
<feFlood flood-opacity="0" result="BackgroundImageFix"/>
<feBlend mode="normal" in="SourceGraphic" in2="BackgroundImageFix" result="shape"/>
<feGaussianBlur stdDeviation="12.3599" result="effect1_foregroundBlur_3379_11892"/>
</filter>
<filter id="filter9_f_3379_11892" x="437.914" y="120.181" width="99.5703" height="56.3423" filterUnits="userSpaceOnUse" color-interpolation-filters="sRGB">
<feFlood flood-opacity="0" result="BackgroundImageFix"/>
<feBlend mode="normal" in="SourceGraphic" in2="BackgroundImageFix" result="shape"/>
<feGaussianBlur stdDeviation="1" result="effect1_foregroundBlur_3379_11892"/>
</filter>
<filter id="filter10_f_3379_11892" x="426.104" y="117.475" width="123.198" height="70.8608" filterUnits="userSpaceOnUse" color-interpolation-filters="sRGB">
<feFlood flood-opacity="0" result="BackgroundImageFix"/>
<feBlend mode="normal" in="SourceGraphic" in2="BackgroundImageFix" result="shape"/>
<feGaussianBlur stdDeviation="6.90698" result="effect1_foregroundBlur_3379_11892"/>
</filter>
<filter id="filter11_f_3379_11892" x="223.207" y="191.421" width="172.982" height="166.925" filterUnits="userSpaceOnUse" color-interpolation-filters="sRGB">
<feFlood flood-opacity="0" result="BackgroundImageFix"/>
<feBlend mode="normal" in="SourceGraphic" in2="BackgroundImageFix" result="shape"/>
<feGaussianBlur stdDeviation="12.3599" result="effect1_foregroundBlur_3379_11892"/>
</filter>
<filter id="filter12_f_3379_11892" x="264.243" y="190.215" width="130.813" height="124.756" filterUnits="userSpaceOnUse" color-interpolation-filters="sRGB">
<feFlood flood-opacity="0" result="BackgroundImageFix"/>
<feBlend mode="normal" in="SourceGraphic" in2="BackgroundImageFix" result="shape"/>
<feGaussianBlur stdDeviation="1.81763" result="effect1_foregroundBlur_3379_11892"/>
</filter>
<filter id="filter13_f_3379_11892" x="254.064" y="182.712" width="149.329" height="142.437" filterUnits="userSpaceOnUse" color-interpolation-filters="sRGB">
<feFlood flood-opacity="0" result="BackgroundImageFix"/>
<feBlend mode="normal" in="SourceGraphic" in2="BackgroundImageFix" result="shape"/>
<feGaussianBlur stdDeviation="6.90698" result="effect1_foregroundBlur_3379_11892"/>
</filter>
<filter id="filter14_f_3379_11892" x="549.897" y="216.662" width="121.285" height="111.844" filterUnits="userSpaceOnUse" color-interpolation-filters="sRGB">
<feFlood flood-opacity="0" result="BackgroundImageFix"/>
<feBlend mode="normal" in="SourceGraphic" in2="BackgroundImageFix" result="shape"/>
<feGaussianBlur stdDeviation="12.3599" result="effect1_foregroundBlur_3379_11892"/>
</filter>
<filter id="filter15_f_3379_11892" x="584.069" y="221.751" width="82.0244" height="72.5835" filterUnits="userSpaceOnUse" color-interpolation-filters="sRGB">
<feFlood flood-opacity="0" result="BackgroundImageFix"/>
<feBlend mode="normal" in="SourceGraphic" in2="BackgroundImageFix" result="shape"/>
<feGaussianBlur stdDeviation="2.54468" result="effect1_foregroundBlur_3379_11892"/>
</filter>
<filter id="filter16_f_3379_11892" x="577.932" y="207.65" width="78.2383" height="60.0952" filterUnits="userSpaceOnUse" color-interpolation-filters="sRGB">
<feFlood flood-opacity="0" result="BackgroundImageFix"/>
<feBlend mode="normal" in="SourceGraphic" in2="BackgroundImageFix" result="shape"/>
<feGaussianBlur stdDeviation="7.2705" result="effect1_foregroundBlur_3379_11892"/>
</filter>
<filter id="filter17_f_3379_11892" x="620.688" y="228.495" width="56.6543" height="59.0947" filterUnits="userSpaceOnUse" color-interpolation-filters="sRGB">
<feFlood flood-opacity="0" result="BackgroundImageFix"/>
<feBlend mode="normal" in="SourceGraphic" in2="BackgroundImageFix" result="shape"/>
<feGaussianBlur stdDeviation="7.2705" result="effect1_foregroundBlur_3379_11892"/>
</filter>
<filter id="filter18_f_3379_11892" x="288.045" y="423.122" width="217.103" height="112.835" filterUnits="userSpaceOnUse" color-interpolation-filters="sRGB">
<feFlood flood-opacity="0" result="BackgroundImageFix"/>
<feBlend mode="normal" in="SourceGraphic" in2="BackgroundImageFix" result="shape"/>
<feGaussianBlur stdDeviation="12.3599" result="effect1_foregroundBlur_3379_11892"/>
</filter>
<filter id="filter19_f_3379_11892" x="316.4" y="436.936" width="174.934" height="70.6665" filterUnits="userSpaceOnUse" color-interpolation-filters="sRGB">
<feFlood flood-opacity="0" result="BackgroundImageFix"/>
<feBlend mode="normal" in="SourceGraphic" in2="BackgroundImageFix" result="shape"/>
<feGaussianBlur stdDeviation="1.81763" result="effect1_foregroundBlur_3379_11892"/>
</filter>
<filter id="filter20_f_3379_11892" x="567.014" y="342.666" width="114.718" height="90.2964" filterUnits="userSpaceOnUse" color-interpolation-filters="sRGB">
<feFlood flood-opacity="0" result="BackgroundImageFix"/>
<feBlend mode="normal" in="SourceGraphic" in2="BackgroundImageFix" result="shape"/>
<feGaussianBlur stdDeviation="12.3599" result="effect1_foregroundBlur_3379_11892"/>
</filter>
<filter id="filter21_f_3379_11892" x="604.093" y="384.107" width="72.5488" height="48.1274" filterUnits="userSpaceOnUse" color-interpolation-filters="sRGB">
<feFlood flood-opacity="0" result="BackgroundImageFix"/>
<feBlend mode="normal" in="SourceGraphic" in2="BackgroundImageFix" result="shape"/>
<feGaussianBlur stdDeviation="1.81763" result="effect1_foregroundBlur_3379_11892"/>
</filter>
<filter id="filter22_f_3379_11892" x="190.128" y="325.021" width="79.5293" height="90.7012" filterUnits="userSpaceOnUse" color-interpolation-filters="sRGB">
<feFlood flood-opacity="0" result="BackgroundImageFix"/>
<feBlend mode="normal" in="SourceGraphic" in2="BackgroundImageFix" result="shape"/>
<feGaussianBlur stdDeviation="7.2705" result="effect1_foregroundBlur_3379_11892"/>
</filter>
<filter id="filter23_f_3379_11892" x="148.365" y="324.877" width="66.7637" height="79.9394" filterUnits="userSpaceOnUse" color-interpolation-filters="sRGB">
<feFlood flood-opacity="0" result="BackgroundImageFix"/>
<feBlend mode="normal" in="SourceGraphic" in2="BackgroundImageFix" result="shape"/>
<feGaussianBlur stdDeviation="1.81763" result="effect1_foregroundBlur_3379_11892"/>
</filter>
<filter id="filter24_f_3379_11892" x="142.62" y="323.788" width="67.5605" height="86.5259" filterUnits="userSpaceOnUse" color-interpolation-filters="sRGB">
<feFlood flood-opacity="0" result="BackgroundImageFix"/>
<feBlend mode="normal" in="SourceGraphic" in2="BackgroundImageFix" result="shape"/>
<feGaussianBlur stdDeviation="4.72583" result="effect1_foregroundBlur_3379_11892"/>
</filter>
<linearGradient id="paint0_linear_3379_11892" x1="303.863" y1="175.705" x2="235.212" y2="549.906" gradientUnits="userSpaceOnUse">
<stop stop-color="#6F94B3"/>
<stop offset="1" stop-color="#2C2879"/>
</linearGradient>
<linearGradient id="paint1_linear_3379_11892" x1="414.203" y1="90.4227" x2="430.834" y2="562.421" gradientUnits="userSpaceOnUse">
<stop stop-color="#BAD4F0"/>
<stop offset="0.397566" stop-color="#3896DD"/>
<stop offset="1" stop-color="#1F5FCF"/>
</linearGradient>
<linearGradient id="paint2_linear_3379_11892" x1="414.205" y1="90.4227" x2="430.836" y2="562.421" gradientUnits="userSpaceOnUse">
<stop stop-color="#BAD4F0"/>
<stop offset="0.397566" stop-color="#3896DD"/>
<stop offset="1" stop-color="#1F5FCF"/>
</linearGradient>
<linearGradient id="paint3_linear_3379_11892" x1="602.46" y1="111.918" x2="620.5" y2="442.48" gradientUnits="userSpaceOnUse">
<stop stop-color="#B7F17B"/>
<stop offset="1" stop-color="#3EA927"/>
</linearGradient>
<linearGradient id="paint4_linear_3379_11892" x1="314.101" y1="118.84" x2="323.053" y2="457.228" gradientUnits="userSpaceOnUse">
<stop stop-color="#B7F17B"/>
<stop offset="1" stop-color="#3EA927"/>
</linearGradient>
<linearGradient id="paint5_linear_3379_11892" x1="355.458" y1="163.899" x2="367.36" y2="372.183" gradientUnits="userSpaceOnUse">
<stop stop-color="#C8FF90"/>
<stop offset="0.561758" stop-color="#55B72C"/>
<stop offset="1" stop-color="#90EB57"/>
</linearGradient>
<linearGradient id="paint6_linear_3379_11892" x1="534.146" y1="139.502" x2="514.753" y2="118.883" gradientUnits="userSpaceOnUse">
<stop stop-color="#083EC1"/>
<stop offset="1" stop-color="#1C7ED5" stop-opacity="0"/>
</linearGradient>
<linearGradient id="paint7_linear_3379_11892" x1="539.663" y1="99.627" x2="539.663" y2="129.811" gradientUnits="userSpaceOnUse">
<stop stop-color="#F8FCFF"/>
<stop offset="1" stop-color="#CCDAE2"/>
</linearGradient>
<linearGradient id="paint8_linear_3379_11892" x1="487.699" y1="192.905" x2="444.646" y2="138.104" gradientUnits="userSpaceOnUse">
<stop stop-color="#083EC1"/>
<stop offset="1" stop-color="#1C7ED5" stop-opacity="0"/>
</linearGradient>
<linearGradient id="paint9_linear_3379_11892" x1="487.699" y1="122.181" x2="487.699" y2="174.523" gradientUnits="userSpaceOnUse">
<stop stop-color="#F8FCFF"/>
<stop offset="1" stop-color="#CCDAE2"/>
</linearGradient>
<linearGradient id="paint10_linear_3379_11892" x1="284.423" y1="303.757" x2="281.189" y2="194.057" gradientUnits="userSpaceOnUse">
<stop stop-color="#083EC1"/>
<stop offset="1" stop-color="#1C7ED5" stop-opacity="0"/>
</linearGradient>
<linearGradient id="paint11_linear_3379_11892" x1="343.35" y1="228.729" x2="294.358" y2="295.019" gradientUnits="userSpaceOnUse">
<stop stop-color="#F8FCFF"/>
<stop offset="1" stop-color="#CCDAE2"/>
</linearGradient>
<linearGradient id="paint12_linear_3379_11892" x1="610.54" y1="291.028" x2="558.961" y2="249.633" gradientUnits="userSpaceOnUse">
<stop stop-color="#083EC1"/>
<stop offset="1" stop-color="#1C7ED5" stop-opacity="0"/>
</linearGradient>
<linearGradient id="paint13_linear_3379_11892" x1="640.15" y1="222.621" x2="628.262" y2="269.14" gradientUnits="userSpaceOnUse">
<stop stop-color="#F8FCFF"/>
<stop offset="1" stop-color="#9CAFBA"/>
</linearGradient>
<linearGradient id="paint14_linear_3379_11892" x1="625.081" y1="226.839" x2="625.081" y2="289.244" gradientUnits="userSpaceOnUse">
<stop stop-color="#F8FCFF"/>
<stop offset="1" stop-color="#CCDAE2"/>
</linearGradient>
<linearGradient id="paint15_linear_3379_11892" x1="396.596" y1="498.277" x2="351.61" y2="415.338" gradientUnits="userSpaceOnUse">
<stop stop-color="#083EC1"/>
<stop offset="1" stop-color="#1C7ED5" stop-opacity="0"/>
</linearGradient>
<linearGradient id="paint16_linear_3379_11892" x1="403.867" y1="440.571" x2="394.64" y2="472.269" gradientUnits="userSpaceOnUse">
<stop stop-color="#F0F6FC"/>
<stop offset="1" stop-color="#BEC8DD"/>
</linearGradient>
<linearGradient id="paint17_linear_3379_11892" x1="624.372" y1="399.89" x2="589.983" y2="361.587" gradientUnits="userSpaceOnUse">
<stop stop-color="#083EC1"/>
<stop offset="1" stop-color="#1C7ED5" stop-opacity="0"/>
</linearGradient>
<linearGradient id="paint18_linear_3379_11892" x1="640.368" y1="387.743" x2="631.702" y2="405.727" gradientUnits="userSpaceOnUse">
<stop stop-color="#F0F6FC"/>
<stop offset="1" stop-color="#BEC8DD"/>
</linearGradient>
<linearGradient id="paint19_linear_3379_11892" x1="211.507" y1="411.164" x2="87.6074" y2="335.429" gradientUnits="userSpaceOnUse">
<stop stop-color="#083EC1"/>
<stop offset="1" stop-color="#1C7ED5" stop-opacity="0"/>
</linearGradient>
<linearGradient id="paint20_linear_3379_11892" x1="136.462" y1="361.653" x2="168.411" y2="361.653" gradientUnits="userSpaceOnUse">
<stop stop-color="#F8FCFF"/>
<stop offset="1" stop-color="#B8D1DF"/>
</linearGradient>
<linearGradient id="paint21_linear_3379_11892" x1="175.975" y1="331.486" x2="175.975" y2="400.861" gradientUnits="userSpaceOnUse">
<stop stop-color="#F8FCFF"/>
<stop offset="1" stop-color="#CCDAE2"/>
</linearGradient>
</defs>
</svg>
