<svg class="full-package-svg" width="80" height="80" viewBox="0 0 80 80" fill="none" xmlns="http://www.w3.org/2000/svg" style="">
<path fill="url(#paint0_linear_403_2861)" fill-opacity="0.1" stroke="url(#paint1_linear_403_2861)" stroke-linejoin="round" d="M0.5,40A39.5,39.5 0,1,1 79.5,40A39.5,39.5 0,1,1 0.5,40" class="ricFKWDf_0"></path>
<g clip-path="url(#clip0_403_2861)">
<path fill-rule="evenodd" clip-rule="evenodd" d="M19.3398 53.8533L38.4703 21L47.9451 37.2715C44.8252 37.7408 41.8792 39.5215 40.0786 42.6137C37.8911 46.3704 38.2359 50.6164 40.243 53.8533H19.3398Z" fill="#102FC9" class="ricFKWDf_1"></path>
<path stroke="#0D0D0D" stroke-width="1.35714" d="M38.6786,48.0312A10.3214,10.3214 0,1,1 59.3214,48.0312A10.3214,10.3214 0,1,1 38.6786,48.0312" class="ricFKWDf_2"></path>
</g>
<defs>
<linearGradient id="paint0_linear_403_2861" x1="40" y1="0" x2="40" y2="80" gradientUnits="userSpaceOnUse">
<stop stop-color="#102FC9"></stop>
<stop offset="1" stop-color="#FC5602"></stop>
</linearGradient>
<linearGradient id="paint1_linear_403_2861" x1="40" y1="0" x2="40" y2="80" gradientUnits="userSpaceOnUse">
<stop stop-color="#102FC9"></stop>
<stop offset="1" stop-color="#FC5602"></stop>
</linearGradient>
<clipPath id="clip0_403_2861">
<path width="42" height="38.0625" fill="white" transform="translate(19 21)" d="M0 0 L42 0 L42 38.0625 L0 38.0625 Z" class="ricFKWDf_3"></path>
</clipPath>
</defs>
<style data-made-with="vivus-instant"></style></svg>
