<svg width="121" height="23" viewBox="0 0 121 23" fill="none" xmlns="http://www.w3.org/2000/svg">
<path fill-rule="evenodd" clip-rule="evenodd" d="M15.5888 7.8161C15.573 7.8161 15.5573 7.8161 15.5416 7.8161C15.5337 7.8161 15.5258 7.8161 15.518 7.8161C15.4865 7.8161 15.455 7.8161 15.4235 7.8161C13.6057 7.8161 12.205 8.99647 11.3316 10.4601L6.7832 18.4158C6.13793 19.4467 4.99691 20.1392 3.69063 20.1392C2.80141 20.1392 1.98302 19.8165 1.35349 19.2893C0.527233 18.6047 0 17.5738 0 16.4171C0 15.7246 0.188859 15.0793 0.519363 14.5206L7.38912 2.67755C8.01866 1.50505 9.25411 0.702393 10.6784 0.702393C12.0319 0.702393 13.2202 1.42635 13.8733 2.5123L16.2262 6.57277C16.3127 6.69868 16.3678 6.85606 16.3678 7.02131C16.3678 7.45412 16.0216 7.80823 15.5888 7.8161Z" fill="#5ACEFB"/>
<path fill-rule="evenodd" clip-rule="evenodd" d="M19.6359 19.6513C17.9991 20.5956 15.9059 20.0369 14.9616 18.4002L12.4435 14.0328C11.4992 12.396 12.0579 10.3028 13.6947 9.35851C15.3314 8.41421 17.4246 8.97292 18.3689 10.6097L20.8871 14.9692C21.8314 16.6139 21.2726 18.707 19.6359 19.6513Z" fill="#FD3A5C"/>
<path d="M10.216 14.977C10.5189 14.4524 11.2761 14.4524 11.579 14.977L13.862 18.9312C14.1648 19.4559 13.7862 20.1116 13.1805 20.1116H8.61451C8.00874 20.1116 7.63014 19.4559 7.93302 18.9312L10.216 14.977Z" fill="#FFE16B"/>
<path d="M37.6466 4.77068H33.3063L27.4648 19.9999H31.2613L32.4143 16.8017H38.4625L39.6156 19.9999H43.4881L37.6466 4.77068ZM35.4384 8.38218L37.2877 13.5166H33.5892L35.4384 8.38218Z" fill="#0D0D0D"/>
<path d="M51.7563 9.32856H48.7648V8.57798C48.7648 7.65335 49.1347 7.22911 49.8852 7.22911C50.5379 7.22911 51.0383 7.43579 51.5496 7.69686L53.029 5.18405C52.1914 4.55312 51.0927 4.05273 49.4284 4.05273C46.9373 4.05273 45.36 5.63004 45.36 8.50183V9.32856H43.5216V12.3418H45.36V19.9999H48.7648V12.3418H51.7563V9.32856Z" fill="#0D0D0D"/>
<path d="M61.5696 9.32856H57.9254V6.21746H54.5206V9.32856H52.53V12.3418H54.5206V15.8989C54.5206 18.5749 55.8151 20.2827 58.676 20.2827C60.3947 20.2827 61.4608 19.7932 62.4616 19.097L61.2867 16.4428C60.7537 16.7582 60.0684 17.1063 59.4375 17.1063C58.5781 17.1063 57.9254 16.693 57.9254 15.4638V12.3418H61.5696V9.32856Z" fill="#0D0D0D"/>
<path d="M68.4292 9.03486C65.1875 9.03486 62.9575 11.3627 62.9575 14.724C62.9575 18.0527 65.231 20.2827 68.5815 20.2827C70.5504 20.2827 72.1712 19.6409 73.2807 18.5313L71.0834 16.4863C70.409 17.0955 69.5496 17.4218 68.7555 17.4218C67.5807 17.4218 66.754 16.8779 66.4711 15.7139H73.705C73.7485 15.4855 73.7703 15.0069 73.7703 14.6588C73.7594 11.3192 71.5947 9.03486 68.4292 9.03486ZM68.44 11.9284C69.4299 11.9284 70.0935 12.4941 70.3654 13.5601H66.482C66.7431 12.5049 67.3849 11.9284 68.44 11.9284Z" fill="#0D0D0D"/>
<path d="M81.7697 9.03486C80.4643 9.03486 79.4744 9.52437 78.8544 10.5578V9.32856H75.591V19.9999H78.9958V14.2345C78.9958 12.9074 79.7355 12.3091 80.9429 12.3091C81.5521 12.3091 82.1939 12.4397 82.6508 12.592L82.9662 9.19803C82.7052 9.12188 82.2701 9.03486 81.7697 9.03486Z" fill="#0D0D0D"/>
<path d="M97.024 6.10868C94.7179 4.83595 92.9339 4.49873 90.8779 4.49873C87.3208 4.49873 84.7971 6.36975 84.7428 9.32856C84.6884 12.0698 86.3853 13.484 89.5182 13.9735L90.2797 14.0931C92.2703 14.3977 93.2929 14.6588 93.2929 15.5725C93.2929 16.5189 92.2486 16.9867 90.8779 16.9867C88.735 16.9867 87.125 16.1817 85.9611 15.3876L84.1445 18.3464C85.8306 19.6191 88.3107 20.2827 90.8453 20.2827C94.1087 20.2827 97.2307 18.7707 97.2307 15.1483C97.2307 12.6572 95.3706 11.2757 92.4117 10.7645L91.7808 10.6557C90.0947 10.362 88.648 10.1335 88.648 9.17627C88.648 8.2734 89.6596 7.80564 91.0411 7.80564C92.8251 7.80564 94.3154 8.43657 95.4032 9.08925L97.024 6.10868Z" fill="#0D0D0D"/>
<path d="M104.271 9.03486C101.03 9.03486 98.7997 11.3627 98.7997 14.724C98.7997 18.0527 101.073 20.2827 104.424 20.2827C106.393 20.2827 108.013 19.6409 109.123 18.5313L106.926 16.4863C106.251 17.0955 105.392 17.4218 104.598 17.4218C103.423 17.4218 102.596 16.8779 102.313 15.7139H109.547C109.591 15.4855 109.612 15.0069 109.612 14.6588C109.602 11.3192 107.437 9.03486 104.271 9.03486ZM104.282 11.9284C105.272 11.9284 105.936 12.4941 106.208 13.5601H102.324C102.585 12.5049 103.227 11.9284 104.282 11.9284Z" fill="#0D0D0D"/>
<path d="M114.838 4.33556H111.433V19.9999H114.838V4.33556Z" fill="#0D0D0D"/>
<path d="M120.617 4.33556H117.212V19.9999H120.617V4.33556Z" fill="#0D0D0D"/>
</svg>
