<svg width="260" height="200" viewBox="0 0 260 200" fill="none" xmlns="http://www.w3.org/2000/svg">
<path d="M231.866 5.2H232.846V15H231.866V10.422H226.546V15H225.566V5.2H226.546V9.498H231.866V5.2ZM235.88 6.32C235.749 6.45067 235.591 6.516 235.404 6.516C235.217 6.516 235.059 6.45067 234.928 6.32C234.797 6.18933 234.732 6.03067 234.732 5.844C234.732 5.65733 234.797 5.49867 234.928 5.368C235.059 5.23733 235.217 5.172 235.404 5.172C235.591 5.172 235.749 5.23733 235.88 5.368C236.011 5.49867 236.076 5.65733 236.076 5.844C236.076 6.03067 236.011 6.18933 235.88 6.32ZM234.942 15V8H235.866V15H234.942ZM243.847 8H244.771V14.72C244.771 15.728 244.425 16.5213 243.735 17.1C243.044 17.6787 242.218 17.968 241.257 17.968C239.614 17.968 238.508 17.3987 237.939 16.26L238.751 15.798C239.171 16.6473 240.006 17.072 241.257 17.072C242.059 17.072 242.689 16.8573 243.147 16.428C243.613 16.008 243.847 15.4387 243.847 14.72V13.628C243.203 14.6547 242.26 15.168 241.019 15.168C240.02 15.168 239.166 14.8133 238.457 14.104C237.757 13.3947 237.407 12.5267 237.407 11.5C237.407 10.4733 237.757 9.60533 238.457 8.896C239.166 8.18667 240.02 7.832 241.019 7.832C242.26 7.832 243.203 8.34533 243.847 9.372V8ZM239.129 13.474C239.661 14.006 240.314 14.272 241.089 14.272C241.863 14.272 242.517 14.006 243.049 13.474C243.581 12.9327 243.847 12.2747 243.847 11.5C243.847 10.7253 243.581 10.072 243.049 9.54C242.517 8.99867 241.863 8.728 241.089 8.728C240.314 8.728 239.661 8.99867 239.129 9.54C238.597 10.072 238.331 10.7253 238.331 11.5C238.331 12.2747 238.597 12.9327 239.129 13.474ZM250.003 7.832C250.852 7.832 251.52 8.09333 252.005 8.616C252.5 9.12933 252.747 9.82467 252.747 10.702V15H251.823V10.702C251.823 10.0767 251.655 9.59133 251.319 9.246C250.992 8.90067 250.526 8.728 249.919 8.728C249.247 8.728 248.701 8.94267 248.281 9.372C247.861 9.792 247.651 10.4453 247.651 11.332V15H246.727V5.2H247.651V9.092C248.174 8.252 248.958 7.832 250.003 7.832Z" fill="#0D0D0D"/>
<path d="M228.026 104L224.414 94.2H225.478L228.53 102.698L231.582 94.2H232.646L229.034 104H228.026ZM238.958 97H239.882V104H238.958V102.628C238.314 103.655 237.371 104.168 236.13 104.168C235.131 104.168 234.277 103.813 233.568 103.104C232.868 102.395 232.518 101.527 232.518 100.5C232.518 99.4733 232.868 98.6053 233.568 97.896C234.277 97.1867 235.131 96.832 236.13 96.832C237.371 96.832 238.314 97.3453 238.958 98.372V97ZM234.24 102.474C234.772 103.006 235.425 103.272 236.2 103.272C236.975 103.272 237.628 103.006 238.16 102.474C238.692 101.933 238.958 101.275 238.958 100.5C238.958 99.7253 238.692 99.072 238.16 98.54C237.628 97.9987 236.975 97.728 236.2 97.728C235.425 97.728 234.772 97.9987 234.24 98.54C233.708 99.072 233.442 99.7253 233.442 100.5C233.442 101.275 233.708 101.933 234.24 102.474ZM241.838 104V93.78H242.762V104H241.838ZM249.651 97H250.575V104H249.651V102.908C249.128 103.748 248.344 104.168 247.299 104.168C246.45 104.168 245.778 103.911 245.283 103.398C244.798 102.875 244.555 102.175 244.555 101.298V97H245.479V101.298C245.479 101.923 245.642 102.409 245.969 102.754C246.305 103.099 246.776 103.272 247.383 103.272C248.055 103.272 248.601 103.062 249.021 102.642C249.441 102.213 249.651 101.555 249.651 100.668V97ZM255.764 96.832C256.8 96.832 257.635 97.2007 258.27 97.938C258.914 98.666 259.236 99.5293 259.236 100.528C259.236 100.631 259.226 100.775 259.208 100.962H253.062C253.155 101.671 253.454 102.236 253.958 102.656C254.471 103.067 255.101 103.272 255.848 103.272C256.38 103.272 256.837 103.165 257.22 102.95C257.612 102.726 257.906 102.437 258.102 102.082L258.914 102.558C258.606 103.053 258.186 103.445 257.654 103.734C257.122 104.023 256.515 104.168 255.834 104.168C254.732 104.168 253.836 103.823 253.146 103.132C252.455 102.441 252.11 101.564 252.11 100.5C252.11 99.4547 252.45 98.582 253.132 97.882C253.813 97.182 254.69 96.832 255.764 96.832ZM255.764 97.728C255.036 97.728 254.424 97.9473 253.93 98.386C253.444 98.8153 253.155 99.3753 253.062 100.066H258.284C258.19 99.3287 257.906 98.7547 257.43 98.344C256.954 97.9333 256.398 97.728 255.764 97.728Z" fill="#0D0D0D"/>
<path d="M0 0H220V200H0V0Z" fill="url(#paint0_linear_1923_5197)" fill-opacity="0.1"/>
<circle opacity="0.1" cx="36" cy="48" r="14" fill="url(#paint1_linear_1923_5197)"/>
<circle opacity="0.2" cx="36" cy="48" r="12" fill="url(#paint2_linear_1923_5197)"/>
<path opacity="0.8" d="M38.9506 47.5504C39.9319 48.1157 40.4226 48.9691 40.4226 50.1104C40.4226 51.0597 40.0866 51.8384 39.4146 52.4464C38.7426 53.0544 37.9159 53.3584 36.9346 53.3584H32.1826V42.1584H36.5986C37.5586 42.1584 38.3639 42.4571 39.0146 43.0544C39.6759 43.6411 40.0066 44.3931 40.0066 45.3104C40.0066 46.2384 39.6546 46.9851 38.9506 47.5504ZM36.5986 44.2224H34.3906V46.6864H36.5986C36.9399 46.6864 37.2226 46.5691 37.4466 46.3344C37.6812 46.0997 37.7986 45.8064 37.7986 45.4544C37.7986 45.1024 37.6866 44.8091 37.4626 44.5744C37.2386 44.3397 36.9506 44.2224 36.5986 44.2224ZM36.9346 51.2944C37.3079 51.2944 37.6172 51.1717 37.8626 50.9264C38.1079 50.6704 38.2306 50.3504 38.2306 49.9664C38.2306 49.5931 38.1079 49.2837 37.8626 49.0384C37.6172 48.7824 37.3079 48.6544 36.9346 48.6544H34.3906V51.2944H36.9346Z" fill="#0D0D0D"/>
<circle opacity="0.1" cx="133" cy="77" r="14" fill="url(#paint3_linear_1923_5197)"/>
<circle opacity="0.2" cx="133" cy="77" r="12" fill="url(#paint4_linear_1923_5197)"/>
<path opacity="0.8" d="M136.396 82.3584L135.724 80.3424H131.26L130.588 82.3584H128.204L132.124 71.1584H134.86L138.796 82.3584H136.396ZM131.964 78.2784H135.036L133.5 73.7024L131.964 78.2784Z" fill="#0D0D0D"/>
<circle opacity="0.1" cx="171" cy="150" r="14" fill="url(#paint5_linear_1923_5197)"/>
<circle opacity="0.2" cx="171" cy="150" r="12" fill="url(#paint6_linear_1923_5197)"/>
<path opacity="0.8" d="M171.547 155.582C169.862 155.582 168.47 155.022 167.371 153.902C166.273 152.782 165.723 151.401 165.723 149.758C165.723 148.105 166.273 146.724 167.371 145.614C168.47 144.494 169.862 143.934 171.547 143.934C172.561 143.934 173.494 144.174 174.347 144.654C175.211 145.124 175.883 145.764 176.363 146.574L174.459 147.678C174.182 147.177 173.787 146.788 173.275 146.51C172.763 146.222 172.187 146.078 171.547 146.078C170.459 146.078 169.579 146.42 168.907 147.102C168.246 147.785 167.915 148.67 167.915 149.758C167.915 150.836 168.246 151.716 168.907 152.398C169.579 153.081 170.459 153.422 171.547 153.422C172.187 153.422 172.763 153.284 173.275 153.006C173.798 152.718 174.193 152.329 174.459 151.838L176.363 152.942C175.883 153.753 175.217 154.398 174.363 154.878C173.51 155.348 172.571 155.582 171.547 155.582Z" fill="#0D0D0D"/>
<line x1="108.5" y1="16" x2="108.5" y2="184" stroke="white"/>
<line x1="16" y1="99.5" x2="204" y2="99.5" stroke="white"/>
<defs>
<linearGradient id="paint0_linear_1923_5197" x1="0" y1="199.992" x2="220" y2="199.992" gradientUnits="userSpaceOnUse">
<stop stop-color="#102FC9"/>
<stop offset="1" stop-color="#FC5602"/>
</linearGradient>
<linearGradient id="paint1_linear_1923_5197" x1="22" y1="61.9989" x2="50" y2="61.9989" gradientUnits="userSpaceOnUse">
<stop stop-color="#102FC9"/>
<stop offset="1" stop-color="#FC5602"/>
</linearGradient>
<linearGradient id="paint2_linear_1923_5197" x1="24" y1="59.9991" x2="48" y2="59.9991" gradientUnits="userSpaceOnUse">
<stop stop-color="#102FC9"/>
<stop offset="1" stop-color="#FC5602"/>
</linearGradient>
<linearGradient id="paint3_linear_1923_5197" x1="119" y1="90.9989" x2="147" y2="90.9989" gradientUnits="userSpaceOnUse">
<stop stop-color="#102FC9"/>
<stop offset="1" stop-color="#FC5602"/>
</linearGradient>
<linearGradient id="paint4_linear_1923_5197" x1="121" y1="88.9991" x2="145" y2="88.9991" gradientUnits="userSpaceOnUse">
<stop stop-color="#102FC9"/>
<stop offset="1" stop-color="#FC5602"/>
</linearGradient>
<linearGradient id="paint5_linear_1923_5197" x1="157" y1="163.999" x2="185" y2="163.999" gradientUnits="userSpaceOnUse">
<stop stop-color="#102FC9"/>
<stop offset="1" stop-color="#FC5602"/>
</linearGradient>
<linearGradient id="paint6_linear_1923_5197" x1="159" y1="161.999" x2="183" y2="161.999" gradientUnits="userSpaceOnUse">
<stop stop-color="#102FC9"/>
<stop offset="1" stop-color="#FC5602"/>
</linearGradient>
</defs>
</svg>
