<svg width="13" height="18" viewBox="0 0 13 18" fill="none" xmlns="http://www.w3.org/2000/svg">
<path fill-rule="evenodd" clip-rule="evenodd" d="M10.9011 16.6688C11.3703 16.2331 11.442 15.5163 11.0682 14.9963L7.68763 10.2928L5.60001 13.1974C5.55272 13.2631 5.49991 13.3224 5.44269 13.375L9.19547 16.69C9.68495 17.1224 10.4225 17.1132 10.9011 16.6688ZM1.00889 9.44324C1.01803 9.46115 1.03065 9.47774 1.04677 9.49197L4.66416 12.6873C4.71406 12.6862 4.76305 12.6626 4.79472 12.6186L7.07698 9.44324L4.79472 6.26793C4.76305 6.22387 4.71406 6.20028 4.66416 6.19914L1.04677 9.39451C1.03065 9.40875 1.01803 9.42533 1.00889 9.44324ZM0.00160732 9.44324C-0.0208574 9.09476 0.113304 8.73814 0.403224 8.48963L3.90754 5.48593C3.98655 5.41822 4.07185 5.3631 4.16109 5.32031L8.53892 1.45323C9.41047 0.683355 10.7237 0.699673 11.5759 1.49096C12.4114 2.26679 12.539 3.54315 11.8735 4.46899L8.29828 9.44324L11.8735 14.4175C12.539 15.3433 12.4114 16.6197 11.5759 17.3955C10.7237 18.1868 9.41047 18.2031 8.53892 17.4333L4.16109 13.5662C4.07185 13.5234 3.98655 13.4683 3.90754 13.4005L0.403224 10.3968C0.113304 10.1483 -0.0208575 9.79172 0.00160732 9.44324ZM7.68763 8.59364L11.0682 3.89019C11.442 3.37022 11.3703 2.6534 10.9011 2.21768C10.4225 1.77328 9.68495 1.76412 9.19547 2.19649L5.44269 5.51144C5.49991 5.56406 5.55272 5.62333 5.60001 5.68913L7.68763 8.59364Z" fill="white"/>
</svg>
