<svg width="13" height="18" viewBox="0 0 13 18" fill="none" xmlns="http://www.w3.org/2000/svg">
<path fill-rule="evenodd" clip-rule="evenodd" d="M1.69657 16.6688C1.22734 16.2331 1.1557 15.5163 1.52942 14.9963L4.91003 10.2928L6.99765 13.1974C7.04494 13.2631 7.09775 13.3224 7.15496 13.375L3.40219 16.69C2.91271 17.1224 2.17516 17.1132 1.69657 16.6688ZM11.5888 9.44324C11.5796 9.46115 11.567 9.47774 11.5509 9.49197L7.93349 12.6873C7.8836 12.6862 7.8346 12.6626 7.80294 12.6186L5.52068 9.44324L7.80294 6.26793C7.8346 6.22387 7.8836 6.20028 7.93349 6.19914L11.5509 9.39451C11.567 9.40875 11.5796 9.42533 11.5888 9.44324ZM12.596 9.44324C12.6185 9.09476 12.4844 8.73814 12.1944 8.48963L8.69012 5.48593C8.61111 5.41822 8.52581 5.3631 8.43657 5.32031L4.05873 1.45323C3.18718 0.683355 1.87392 0.699673 1.02176 1.49096C0.186251 2.26679 0.0586903 3.54315 0.724135 4.46899L4.29938 9.44324L0.724135 14.4175C0.05869 15.3433 0.186251 16.6197 1.02176 17.3955C1.87392 18.1868 3.18718 18.2031 4.05873 17.4333L8.43657 13.5662C8.52581 13.5234 8.61111 13.4683 8.69012 13.4005L12.1944 10.3968C12.4844 10.1483 12.6185 9.79172 12.596 9.44324ZM4.91003 8.59364L1.52942 3.89019C1.1557 3.37022 1.22734 2.6534 1.69657 2.21768C2.17516 1.77328 2.91271 1.76412 3.40219 2.19649L7.15496 5.51144C7.09775 5.56406 7.04494 5.62333 6.99765 5.68913L4.91003 8.59364Z" fill="white"/>
</svg>
