<svg width="14" height="19" viewBox="0 0 14 19" fill="none" xmlns="http://www.w3.org/2000/svg">
<path fill-rule="evenodd" clip-rule="evenodd" d="M2.35074 17.6379C1.83877 17.1625 1.7606 16.3804 2.16837 15.813L5.7969 10.7646L8.07514 13.9343C8.12202 13.9996 8.17432 14.0584 8.23096 14.1107L4.21171 17.661C3.67765 18.1328 2.87292 18.1228 2.35074 17.6379ZM12.9666 9.91503C12.9578 9.93091 12.9461 9.94563 12.9316 9.95845L9.00804 13.4242C8.95917 13.4223 8.91147 13.3987 8.88042 13.3555L6.40755 9.91503L8.88042 6.47452C8.91147 6.43132 8.95917 6.40781 9.00805 6.40583L12.9316 9.87162C12.9461 9.88443 12.9578 9.89915 12.9666 9.91503ZM13.9764 9.91503C14.0006 9.56486 13.8665 9.20588 13.5751 8.95611L9.7676 5.69253C9.68666 5.62314 9.5991 5.56699 9.50747 5.52377L4.86826 1.4258C3.95212 0.616548 2.57168 0.633699 1.67593 1.46546C0.797679 2.28098 0.663594 3.62264 1.36308 4.59583L5.18625 9.91503L1.36308 15.2342C0.663594 16.2074 0.797679 17.5491 1.67593 18.3646C2.57168 19.1964 3.95212 19.2135 4.86826 18.4043L9.50747 14.3063C9.5991 14.2631 9.68666 14.2069 9.7676 14.1375L13.5751 10.874C13.8665 10.6242 14.0006 10.2652 13.9764 9.91503ZM5.7969 9.06543L2.16837 4.01703C1.7606 3.44971 1.83877 2.66759 2.35074 2.19219C2.87292 1.70731 3.67765 1.69731 4.21171 2.16906L8.23096 5.7194C8.17432 5.77168 8.12202 5.83049 8.07514 5.89572L5.7969 9.06543Z" fill="#102FC9"/>
</svg>
