<svg width="13" height="18" viewBox="0 0 13 18" fill="none" xmlns="http://www.w3.org/2000/svg">
<path fill-rule="evenodd" clip-rule="evenodd" d="M11.6023 16.6688C12.0715 16.2331 12.1431 15.5163 11.7694 14.9963L8.3888 10.2928L6.30118 13.1974C6.25389 13.2631 6.20108 13.3224 6.14386 13.375L9.89664 16.69C10.3861 17.1224 11.1237 17.1132 11.6023 16.6688ZM1.71006 9.44324C1.7192 9.46115 1.73182 9.47774 1.74794 9.49197L5.36533 12.6873C5.41523 12.6862 5.46422 12.6626 5.49589 12.6186L7.77815 9.44324L5.49589 6.26793C5.46423 6.22387 5.41523 6.20028 5.36534 6.19914L1.74794 9.39451C1.73182 9.40875 1.7192 9.42533 1.71006 9.44324ZM0.702779 9.44324C0.680314 9.09476 0.814475 8.73814 1.1044 8.48963L4.60871 5.48593C4.68772 5.41822 4.77302 5.3631 4.86226 5.32031L9.24009 1.45323C10.1116 0.683355 11.4249 0.699673 12.2771 1.49096C13.1126 2.26679 13.2401 3.54315 12.5747 4.46899L8.99945 9.44324L12.5747 14.4175C13.2401 15.3433 13.1126 16.6197 12.2771 17.3955C11.4249 18.1868 10.1116 18.2031 9.24009 17.4333L4.86226 13.5662C4.77302 13.5234 4.68772 13.4683 4.60871 13.4005L1.1044 10.3968C0.814475 10.1483 0.680314 9.79172 0.702779 9.44324ZM8.3888 8.59364L11.7694 3.89019C12.1431 3.37022 12.0715 2.6534 11.6023 2.21768C11.1237 1.77328 10.3861 1.76412 9.89664 2.19649L6.14387 5.51144C6.20108 5.56406 6.25389 5.62333 6.30118 5.68913L8.3888 8.59364Z" fill="#0D0D0D"/>
</svg>
