<svg width="88" height="88" viewBox="0 0 88 88" fill="none" xmlns="http://www.w3.org/2000/svg">
<circle cx="44" cy="44" r="29" fill="white"/>
<path d="M9 20.3992L9.5 19.6992L13.9 22.9992L16 20.2991L16.6 20.7991L14 24.1992L9 20.3992Z" fill="white"/>
<path d="M16.0964 16.5989C14.8964 15.0989 14.9964 13.2989 16.3964 11.9989C17.7964 10.7989 19.5964 10.9989 20.8964 12.3989C22.1964 13.8989 22.0964 15.6989 20.5964 16.8989C19.1964 18.1989 17.3964 17.9989 16.0964 16.5989ZM20.1964 12.9989C19.2964 11.8989 17.9964 11.7989 16.8964 12.6989C15.7964 13.5989 15.7964 14.8989 16.6964 15.9989C17.6964 17.1989 19.0964 17.2989 20.0964 16.3989C21.1964 15.4989 21.1964 14.0989 20.1964 12.9989Z" fill="white"/>
<path d="M24.6016 6.69922L25.5016 6.19922L30.8016 10.5993L30.0016 10.9993L28.7016 9.89922L25.7016 11.3993L25.8016 13.1993L25.0016 13.5993L24.6016 6.69922ZM28.0016 9.29922L25.5016 7.19922L25.7016 10.4993L28.0016 9.29922Z" fill="white"/>
<path d="M32.2969 3.49844L34.6969 2.99844C36.5969 2.59844 38.0969 3.39844 38.4969 5.39844C38.8969 7.29844 37.8969 8.79844 35.9969 9.19844L33.5969 9.69844L32.2969 3.49844ZM35.8969 8.39844C37.2969 8.09844 37.9969 6.99844 37.5969 5.49844C37.2969 3.99844 36.1969 3.39844 34.7969 3.69844L33.2969 3.99844L34.2969 8.59844L35.8969 8.39844Z" fill="white"/>
<path d="M48.1 2L49.4 2.2L50.6 7.8L53.8 3L55.1 3.2L54 9.4L53.2 9.3L54.1 4.2L51 8.9L50.1 8.7L48.8 3.2L47.9 8.3L47 8.2L48.1 2Z" fill="white"/>
<path d="M58.4009 7.6002C59.2009 5.9002 61.0009 5.3002 62.7009 6.1002C64.4009 6.9002 65.0009 8.7002 64.1009 10.4002C63.2009 12.2002 61.5009 12.8002 59.8009 12.0002C58.1009 11.1002 57.5009 9.4002 58.4009 7.6002ZM63.3009 10.0002C63.9009 8.7002 63.5009 7.4002 62.3009 6.9002C61.0009 6.3002 59.8009 6.7002 59.2009 8.0002C58.5009 9.4002 58.9009 10.7002 60.2009 11.3002C61.4009 11.8002 62.7009 11.3002 63.3009 10.0002Z" fill="white"/>
<path d="M69.4 10.3008L71.5 12.1008C72.6 13.0008 72.7 14.0008 71.9 14.9008C71.4 15.5008 70.8 15.7008 70.2 15.4008C70.5 15.8008 70.5 16.2008 70.2 16.7008C69.7 17.5008 69.4 17.7008 69.3 18.2008L68.6 17.6008C68.7 17.2008 69.1 16.8008 69.4 16.3008C69.9 15.6008 69.8 15.3008 69.1 14.7008L67.7 13.5008L66.1 15.5008L65.5 15.0008L69.4 10.3008ZM69.6 14.2008C70.3 14.8008 70.9 14.8008 71.3 14.2008C71.7 13.7008 71.7 13.1008 70.9 12.5008L69.5 11.4008L68.1 13.0008L69.6 14.2008Z" fill="white"/>
<path d="M76.5 16.8984L79.3 20.4984L78.6 20.9984L76.3 17.9984L74.8 19.0984L76.9 21.7984L76.3 22.2984L74.2 19.5984L72.6 20.7984L74.9 23.7984L74.3 24.2984L71.5 20.5984L76.5 16.8984Z" fill="white"/>
<path d="M79 67.6008L78.5 68.3008L74.1 65.0008L72 67.7009L71.4 67.2009L74 63.8008L79 67.6008Z" fill="white"/>
<path d="M71.9036 71.4011C73.1036 72.9011 73.0036 74.7011 71.6036 76.0011C70.2036 77.2011 68.4036 77.0011 67.1036 75.6011C65.8036 74.1011 65.9036 72.3011 67.4036 71.1011C68.8036 69.8011 70.6036 70.0011 71.9036 71.4011ZM67.8036 75.0011C68.7036 76.1011 70.0036 76.2011 71.1036 75.3011C72.2036 74.4011 72.2036 73.1011 71.3036 72.0011C70.3036 70.8011 68.9036 70.7011 67.9036 71.6011C66.8036 72.5011 66.8036 73.9011 67.8036 75.0011Z" fill="white"/>
<path d="M63.3984 81.2988L62.4984 81.7988L57.1984 77.3988L57.9984 76.9988L59.2984 78.0988L62.2984 76.5988L62.1984 74.7988L62.9984 74.3988L63.3984 81.2988ZM59.9984 78.6988L62.4984 80.7988L62.2984 77.4988L59.9984 78.6988Z" fill="white"/>
<path d="M55.7031 84.4996L53.3031 84.9996C51.4031 85.3996 49.9031 84.5996 49.5031 82.5996C49.1031 80.6996 50.1031 79.1996 52.0031 78.7996L54.4031 78.2996L55.7031 84.4996ZM52.1031 79.5996C50.7031 79.8996 50.0031 80.9996 50.4031 82.4996C50.7031 83.9996 51.8031 84.5996 53.2031 84.2996L54.7031 83.9996L53.7031 79.3996L52.1031 79.5996Z" fill="white"/>
<path d="M39.9 86L38.6 85.8L37.4 80.2L34.2 85L32.9 84.8L34 78.6L34.8 78.7L33.9 83.8L37 79.1L37.9 79.3L39.2 84.8L40.1 79.7L41 79.8L39.9 86Z" fill="white"/>
<path d="M29.5991 80.3998C28.7991 82.0998 26.9991 82.6998 25.2991 81.8998C23.5991 81.0998 22.9991 79.2998 23.8991 77.5998C24.7991 75.7998 26.4991 75.1998 28.1991 75.9998C29.8991 76.8998 30.4991 78.5998 29.5991 80.3998ZM24.6991 77.9998C24.0991 79.2998 24.4991 80.5998 25.6991 81.0998C26.9991 81.6998 28.1991 81.2998 28.7991 79.9998C29.4991 78.5998 29.0991 77.2998 27.7991 76.6998C26.5991 76.1998 25.2991 76.6998 24.6991 77.9998Z" fill="white"/>
<path d="M18.6 77.6992L16.5 75.8992C15.4 74.9992 15.3 73.9992 16.1 73.0992C16.6 72.4992 17.2 72.2992 17.8 72.5992C17.5 72.1992 17.5 71.7992 17.8 71.2992C18.3 70.4992 18.6 70.2992 18.7 69.7992L19.4 70.3992C19.3 70.7992 18.9 71.1992 18.6 71.6992C18.1 72.3992 18.2 72.6992 18.9 73.2992L20.3 74.4992L21.9 72.4992L22.5 72.9992L18.6 77.6992ZM18.4 73.7992C17.7 73.1992 17.1 73.1992 16.7 73.7992C16.3 74.2992 16.3 74.8992 17.1 75.4992L18.5 76.5992L19.9 74.9992L18.4 73.7992Z" fill="white"/>
<path d="M11.5 71.1016L8.7 67.5016L9.4 67.0016L11.7 70.0016L13.2 68.9016L11.1 66.2016L11.7 65.7016L13.8 68.4016L15.4 67.2016L13.1 64.2016L13.7 63.7016L16.5 67.4016L11.5 71.1016Z" fill="white"/>
<g clip-path="url(#clip0_4738_17129)">
<path d="M59.6767 43.0512C59.6725 42.9612 59.6504 42.8729 59.6118 42.7915C59.5731 42.7101 59.5187 42.6371 59.4516 42.5769C59.3845 42.5168 59.3062 42.4705 59.2211 42.4409C59.136 42.4112 59.0458 42.3988 58.9559 42.4043C58.8659 42.4098 58.778 42.4331 58.6971 42.4729C58.6163 42.5127 58.5441 42.5682 58.4849 42.6361C58.4257 42.704 58.3805 42.783 58.3521 42.8685C58.3236 42.954 58.3125 43.0444 58.3193 43.1342C58.8013 51.014 52.8176 57.7775 44.9379 58.2595C37.0581 58.7416 30.2946 52.7579 29.8126 44.8781C29.3305 36.9984 35.3142 30.2349 43.194 29.7528C47.418 29.4944 48.5664 30.0071 51.0664 32.0071L48.9145 34.1718C48.8244 34.176 48.7362 34.1981 48.6548 34.2367C48.5733 34.2754 48.5004 34.3298 48.4402 34.3969C48.38 34.4639 48.3338 34.5423 48.3041 34.6274C48.2745 34.7125 48.2621 34.8027 48.2676 34.8926C48.2731 34.9826 48.2964 35.0705 48.3362 35.1514C48.376 35.2322 48.4315 35.3044 48.4994 35.3636C48.5673 35.4228 48.6463 35.468 48.7318 35.4964C48.8173 35.5248 48.9076 35.536 48.9975 35.5292L55.7848 35.114C55.9648 35.103 56.1331 35.0209 56.2526 34.8858C56.3721 34.7508 56.433 34.5738 56.422 34.3938L56.0068 27.6064C56.0026 27.5164 55.9805 27.4281 55.9419 27.3467C55.9032 27.2653 55.8488 27.1924 55.7817 27.1322C55.7146 27.072 55.6363 27.0258 55.5512 26.9961C55.4661 26.9665 55.3759 26.9541 55.286 26.9596C55.196 26.9651 55.1081 26.9884 55.0272 27.0282C54.9463 27.068 54.8742 27.1234 54.815 27.1914C54.7557 27.2593 54.7106 27.3383 54.6822 27.4238C54.6537 27.5093 54.6426 27.5996 54.6493 27.6895L52.5664 30.5071C50.0664 28.5071 47.681 28.1158 43.1109 28.3954C34.4975 28.9223 27.9282 36.3477 28.4551 44.9612C28.982 53.5746 36.4075 60.1439 45.0209 59.617C53.6343 59.0901 60.2037 51.6646 59.6767 43.0512Z" fill="black"/>
</g>
<defs>
<clipPath id="clip0_4738_17129">
<rect width="34" height="34" fill="white" transform="translate(60 26) rotate(86.4993)"/>
</clipPath>
</defs>
</svg>
