<svg width="74" height="44" viewBox="0 0 74 44" fill="none" xmlns="http://www.w3.org/2000/svg">
<rect width="56" height="32" fill="#FFE9DF"/>
<path d="M64.5769 12.0024C67.0468 11.9448 69.4248 12.9375 71.1206 14.7342C72.8653 16.5554 73.7383 19.1731 73.7383 22.5867H73.7377C73.7217 26.912 72.4916 31.1456 70.1883 34.8068C67.9642 38.5445 64.8798 41.6968 61.1906 44L56.6594 41.0884C58.3334 39.5159 59.8008 37.7376 61.0269 35.796C62.4384 33.762 63.3719 31.4358 63.7592 28.991C61.6916 28.8478 59.7471 27.9584 58.2871 26.488C56.7603 25.0131 55.9238 22.9654 55.9803 20.844C55.9084 18.466 56.8373 16.1667 58.5403 14.5053C60.1299 12.8872 62.3089 11.984 64.5768 12.0022L64.5769 12.0024ZM38.6233 12.0024C41.0932 11.9448 43.4712 12.9375 45.167 14.7342C46.9226 16.5554 47.8006 19.1731 47.8006 22.5867C47.7846 26.912 46.5545 31.1456 44.2506 34.8068C42.0271 38.5445 38.9421 41.6968 35.2535 44L30.7056 41.0884C32.3796 39.5159 33.8471 37.7376 35.0731 35.796C36.4841 33.762 37.4181 31.4358 37.8049 28.991C35.7378 28.8478 33.7927 27.9584 32.3333 26.488C30.7979 25.0177 29.9518 22.9694 30.002 20.844C29.9301 18.466 30.859 16.1667 32.562 14.5053C34.1579 12.8809 36.3465 11.9771 38.623 12.0022L38.6233 12.0024Z" fill="#102FC9"/>
</svg>
