<svg width="36" height="36" viewBox="0 0 36 36" fill="none" xmlns="http://www.w3.org/2000/svg">
<path d="M34.3527 17.631C34.3513 18.868 33.8589 20.0539 32.9837 20.9281C32.1085 21.8023 30.9221 22.2934 29.6851 22.2934H22.218V29.7622C22.218 31.0001 21.7262 32.1874 20.8509 33.0627C19.9755 33.938 18.7883 34.4298 17.5504 34.4298C16.3125 34.4298 15.1253 33.938 14.2499 33.0627C13.3746 32.1874 12.8828 31.0001 12.8828 29.7622V17.631C12.8828 16.393 13.3746 15.2058 14.2499 14.3305C15.1253 13.4551 16.3125 12.9634 17.5504 12.9634H29.6851C30.923 12.9634 32.1102 13.4551 32.9856 14.3305C33.8609 15.2058 34.3527 16.393 34.3527 17.631V17.631Z" stroke="#0D0D0D" stroke-width="2" stroke-miterlimit="10"/>
<path d="M22.5592 5.66758V17.8023C22.5579 19.0393 22.0655 20.2252 21.1903 21.0994C20.3151 21.9737 19.1287 22.4647 17.8917 22.4647H5.75697C5.13661 22.4766 4.5201 22.3647 3.9435 22.1355C3.3669 21.9063 2.84179 21.5644 2.39886 21.1299C1.95593 20.6954 1.60409 20.1769 1.3639 19.6048C1.12371 19.0327 1 18.4185 1 17.798C1 17.1775 1.12371 16.5633 1.3639 15.9912C1.60409 15.419 1.95593 14.9006 2.39886 14.4661C2.84179 14.0315 3.3669 13.6897 3.9435 13.4605C4.5201 13.2313 5.13661 13.1194 5.75697 13.1313H13.2172V5.66758C13.2172 4.42966 13.709 3.24244 14.5843 2.3671C15.4597 1.49176 16.6469 1 17.8848 1C19.1227 1 20.31 1.49176 21.1853 2.3671C22.0606 3.24244 22.5524 4.42966 22.5524 5.66758H22.5592Z" stroke="#0D0D0D" stroke-width="2" stroke-miterlimit="10"/>
</svg>
