<svg width="9" height="9" viewBox="0 0 9 9" fill="none" xmlns="http://www.w3.org/2000/svg">
<path fill-rule="evenodd" clip-rule="evenodd" d="M7.942 3.89525L7.45103 7.28186C7.3759 7.80014 6.92005 8.17703 6.39688 8.15343C5.88393 8.13029 5.46837 7.72903 5.42728 7.2172L5.12819 3.49111L1.49757 2.58608C0.999347 2.46188 0.671413 1.98631 0.732435 1.47648C0.794672 0.956485 1.24101 0.568383 1.76461 0.578979L5.18154 0.648125C5.22258 0.633277 5.26696 0.625264 5.31337 0.625511L7.9754 0.639698C8.11122 0.640422 8.22829 0.711478 8.29516 0.816358C8.37874 0.899395 8.42351 1.02026 8.40313 1.14743L7.98198 3.77597C7.97509 3.81897 7.96132 3.85903 7.942 3.89525Z" fill="#102FC9"/>
</svg>
