<svg width="13" height="18" viewBox="0 0 13 18" fill="none" xmlns="http://www.w3.org/2000/svg">
<path fill-rule="evenodd" clip-rule="evenodd" d="M1.39701 16.6688C0.927778 16.2331 0.856138 15.5163 1.22986 14.9963L4.61047 10.2928L6.69809 13.1974C6.74538 13.2631 6.79819 13.3224 6.8554 13.375L3.10262 16.69C2.61315 17.1224 1.8756 17.1132 1.39701 16.6688ZM11.2892 9.44324C11.2801 9.46115 11.2674 9.47774 11.2513 9.49197L7.63393 12.6873C7.58404 12.6862 7.53504 12.6626 7.50338 12.6186L5.22112 9.44324L7.50337 6.26793C7.53504 6.22387 7.58404 6.20028 7.63393 6.19914L11.2513 9.39451C11.2674 9.40875 11.2801 9.42533 11.2892 9.44324ZM12.2965 9.44324C12.319 9.09476 12.1848 8.73814 11.8949 8.48963L8.39055 5.48593C8.31155 5.41822 8.22625 5.3631 8.13701 5.32031L3.75917 1.45323C2.88762 0.683355 1.57435 0.699673 0.7222 1.49096C-0.11331 2.26679 -0.24087 3.54315 0.424575 4.46899L3.99982 9.44324L0.424574 14.4175C-0.240871 15.3433 -0.11331 16.6197 0.7222 17.3955C1.57436 18.1868 2.88762 18.2031 3.75917 17.4333L8.13701 13.5662C8.22625 13.5234 8.31155 13.4683 8.39056 13.4005L11.8949 10.3968C12.1848 10.1483 12.319 9.79172 12.2965 9.44324ZM4.61047 8.59364L1.22986 3.89019C0.856138 3.37022 0.927778 2.6534 1.39701 2.21768C1.8756 1.77328 2.61315 1.76412 3.10263 2.19649L6.8554 5.51144C6.79819 5.56406 6.74538 5.62333 6.69809 5.68913L4.61047 8.59364Z" fill="#0D0D0D"/>
</svg>
