<svg width="48" height="48" viewBox="0 0 48 48" fill="none" xmlns="http://www.w3.org/2000/svg">
<g filter="url(#filter0_b_538_2012)">
<circle r="24" transform="matrix(-1 0 0 1 24 24)" fill="#0D0D0D" fill-opacity="0.1"/>
<circle r="23.5" transform="matrix(-1 0 0 1 24 24)" stroke="#0D0D0D"/>
</g>
<path fill-rule="evenodd" clip-rule="evenodd" d="M20.3977 16.3312C19.9285 16.7669 19.8569 17.4837 20.2306 18.0037L23.6112 22.7072L25.6988 19.8026C25.7461 19.7368 25.7989 19.6776 25.8561 19.625L22.1034 16.31C21.6139 15.8776 20.8763 15.8868 20.3977 16.3312ZM30.2899 23.5568C30.2808 23.5388 30.2682 23.5223 30.2521 23.508L26.6347 20.3127C26.5848 20.3138 26.5358 20.3374 26.5041 20.3814L24.2219 23.5568L26.5041 26.7321C26.5358 26.7761 26.5848 26.7997 26.6347 26.8009L30.2521 23.6055C30.2682 23.5913 30.2808 23.5747 30.2899 23.5568ZM31.2972 23.5568C31.3197 23.9052 31.1855 24.2619 30.8956 24.5104L27.3913 27.5141C27.3123 27.5818 27.227 27.6369 27.1377 27.6797L22.7599 31.5468C21.8884 32.3166 20.5751 32.3003 19.7229 31.509C18.8874 30.7332 18.7599 29.4568 19.4253 28.531L23.0006 23.5568L19.4253 18.5825C18.7599 17.6567 18.8874 16.3803 19.7229 15.6045C20.5751 14.8132 21.8884 14.7969 22.7599 15.5667L27.1377 19.4338C27.227 19.4766 27.3123 19.5317 27.3913 19.5995L30.8956 22.6032C31.1855 22.8517 31.3197 23.2083 31.2972 23.5568ZM23.6112 24.4064L20.2306 29.1098C19.8569 29.6298 19.9285 30.3466 20.3977 30.7823C20.8763 31.2267 21.6139 31.2359 22.1034 30.8035L25.8561 27.4886C25.7989 27.4359 25.7461 27.3767 25.6988 27.3109L23.6112 24.4064Z" fill="#0D0D0D"/>
<defs>
<filter id="filter0_b_538_2012" x="-16" y="-16" width="80" height="80" filterUnits="userSpaceOnUse" color-interpolation-filters="sRGB">
<feFlood flood-opacity="0" result="BackgroundImageFix"/>
<feGaussianBlur in="BackgroundImage" stdDeviation="8"/>
<feComposite in2="SourceAlpha" operator="in" result="effect1_backgroundBlur_538_2012"/>
<feBlend mode="normal" in="SourceGraphic" in2="effect1_backgroundBlur_538_2012" result="shape"/>
</filter>
</defs>
</svg>
