<svg width="15" height="21" viewBox="0 0 15 21" fill="none" xmlns="http://www.w3.org/2000/svg">
<path fill-rule="evenodd" clip-rule="evenodd" d="M1.968 18.6805C1.41136 18.1636 1.32638 17.3133 1.76971 16.6965L5.65717 11.2879L8.13473 14.7349C8.18112 14.7994 8.23281 14.8577 8.28876 14.9096L3.9913 18.7057C3.41065 19.2186 2.53572 19.2077 1.968 18.6805ZM13.3397 10.4383C13.3313 10.4519 13.3207 10.4647 13.308 10.4759L9.06417 14.2246C9.01651 14.2217 8.97033 14.1983 8.94002 14.1561L6.26781 10.4383L8.94002 6.72041C8.97033 6.67824 9.01651 6.65483 9.06417 6.6519L13.308 10.4006C13.3207 10.4119 13.3313 10.4246 13.3397 10.4383ZM14.3524 10.4383C14.3785 10.0863 14.2445 9.72471 13.9515 9.47357L9.8272 5.93842C9.74396 5.86707 9.65373 5.80971 9.55927 5.76602L4.64785 1.4276C3.68512 0.577194 2.23448 0.59522 1.29319 1.46928C0.370275 2.32627 0.229371 3.73615 0.964426 4.75883L5.04652 10.4383L0.964426 16.1177C0.229371 17.1404 0.370275 18.5503 1.29319 19.4072C2.23448 20.2813 3.68512 20.2993 4.64785 19.4489L9.55927 15.1105C9.65373 15.0668 9.74396 15.0095 9.8272 14.9381L13.9515 11.403C14.2445 11.1518 14.3785 10.7903 14.3524 10.4383ZM5.65717 9.58866L1.76971 4.18003C1.32638 3.56322 1.41136 2.71288 1.968 2.196C2.53572 1.66883 3.41065 1.65796 3.9913 2.17086L8.28876 5.96696C8.23281 6.01882 8.18112 6.07708 8.13473 6.14161L5.65717 9.58866Z" fill="white"/>
</svg>
