<svg width="48" height="48" viewBox="0 0 48 48" fill="none" xmlns="http://www.w3.org/2000/svg">
<g filter="url(#filter0_b_538_2012)">
<circle cx="24" cy="24" r="24" fill="#0D0D0D" fill-opacity="0.1"/>
<circle cx="24" cy="24" r="23.5" stroke="#0D0D0D"/>
</g>
<path fill-rule="evenodd" clip-rule="evenodd" d="M27.6023 16.3312C28.0715 16.7669 28.1431 17.4837 27.7694 18.0037L24.3888 22.7072L22.3012 19.8026C22.2539 19.7368 22.2011 19.6776 22.1439 19.625L25.8966 16.31C26.3861 15.8776 27.1237 15.8868 27.6023 16.3312ZM17.7101 23.5568C17.7192 23.5388 17.7318 23.5223 17.7479 23.508L21.3653 20.3127C21.4152 20.3138 21.4642 20.3374 21.4959 20.3814L23.7781 23.5568L21.4959 26.7321C21.4642 26.7761 21.4152 26.7997 21.3653 26.8009L17.7479 23.6055C17.7318 23.5913 17.7192 23.5747 17.7101 23.5568ZM16.7028 23.5568C16.6803 23.9052 16.8145 24.2619 17.1044 24.5104L20.6087 27.5141C20.6877 27.5818 20.773 27.6369 20.8623 27.6797L25.2401 31.5468C26.1116 32.3166 27.4249 32.3003 28.2771 31.509C29.1126 30.7332 29.2401 29.4568 28.5747 28.531L24.9994 23.5568L28.5747 18.5825C29.2401 17.6567 29.1126 16.3803 28.2771 15.6045C27.4249 14.8132 26.1116 14.7969 25.2401 15.5667L20.8623 19.4338C20.773 19.4766 20.6877 19.5317 20.6087 19.5995L17.1044 22.6032C16.8145 22.8517 16.6803 23.2083 16.7028 23.5568ZM24.3888 24.4064L27.7694 29.1098C28.1431 29.6298 28.0715 30.3466 27.6023 30.7823C27.1237 31.2267 26.3861 31.2359 25.8966 30.8035L22.1439 27.4886C22.2011 27.4359 22.2539 27.3767 22.3012 27.3109L24.3888 24.4064Z" fill="#0D0D0D"/>
<defs>
<filter id="filter0_b_538_2012" x="-16" y="-16" width="80" height="80" filterUnits="userSpaceOnUse" color-interpolation-filters="sRGB">
<feFlood flood-opacity="0" result="BackgroundImageFix"/>
<feGaussianBlur in="BackgroundImage" stdDeviation="8"/>
<feComposite in2="SourceAlpha" operator="in" result="effect1_backgroundBlur_538_2012"/>
<feBlend mode="normal" in="SourceGraphic" in2="effect1_backgroundBlur_538_2012" result="shape"/>
</filter>
</defs>
</svg>
