<svg width="23" height="24" viewBox="0 0 23 24" fill="none" xmlns="http://www.w3.org/2000/svg">
<path fill-rule="evenodd" clip-rule="evenodd" d="M16.5365 21.6182C15.5195 21.5694 14.6978 20.7713 14.6193 19.7562L13.9091 10.5728L19.4274 11.9655C19.5511 11.9967 19.6747 12.0146 19.797 12.0201L18.6318 19.8961C18.4798 20.9233 17.5737 21.668 16.5365 21.6182ZM21.1576 2.69493C21.1652 2.72657 21.167 2.76027 21.1619 2.79472L20.0382 10.3897C19.9768 10.4371 19.895 10.4572 19.8133 10.4366L13.7808 8.91412L13.3015 2.71602C13.2948 2.62995 13.3303 2.55102 13.3899 2.4985L21.0658 2.67621C21.0983 2.67697 21.1292 2.68357 21.1576 2.69493ZM22.37 1.64756C22.0394 1.21031 21.5165 0.921614 20.9171 0.916672L13.5787 0.856175C13.4134 0.854812 13.2533 0.875193 13.1011 0.914556L3.81938 0.699666C1.97087 0.65687 0.391031 2.02252 0.165947 3.85777C-0.0547414 5.65717 1.09817 7.33959 2.85594 7.78321L12.2961 10.1657L13.0472 19.8778C13.187 21.6853 14.65 23.1063 16.4608 23.1932C18.3077 23.2819 19.921 21.956 20.1916 20.1269L21.5491 10.9515C21.6166 10.8046 21.6658 10.646 21.6932 10.4781L22.8753 3.23529C22.9745 2.62763 22.765 2.04894 22.37 1.64756ZM12.1678 8.50703L3.2418 6.25431C2.25461 6.00516 1.60711 5.06029 1.73106 4.04972C1.85747 3.01901 2.74473 2.25205 3.78288 2.27608L11.7385 2.46027C11.7229 2.5829 11.7194 2.70912 11.7294 2.83761L12.1678 8.50703Z" fill="#FC5602"/>
</svg>
