<svg width="404" height="601" viewBox="0 0 404 601" fill="none" xmlns="http://www.w3.org/2000/svg">
<path d="M246.863 287.544C247.962 268.229 251.34 256.623 257.885 247.545C235.477 254.775 200.186 260.958 198.343 273.371C196.039 288.886 226.378 317.241 230.741 324.24C235.103 331.24 225.996 362.856 221.568 370.235C213.475 383.724 240.242 391.146 240.242 370.235C238.407 361.803 249.879 327.513 253.651 318.744C257.422 309.975 245.489 311.688 246.863 287.544Z" fill="url(#paint0_linear_3755_6951)"/>
<path fill-rule="evenodd" clip-rule="evenodd" d="M318.275 227.047C373.247 271.14 326.787 332.742 345.372 375.692C272.81 355.644 272.628 333.044 270.965 284.419C261.503 267.846 251.897 247.711 227.904 243.868C227.856 239.233 238.659 217.113 238.659 217.113C238.659 217.113 263.303 182.955 318.275 227.047Z" fill="url(#paint1_linear_3755_6951)"/>
<path fill-rule="evenodd" clip-rule="evenodd" d="M345.446 302.048C343.005 328.245 336.11 354.285 345.373 375.692C286.786 359.505 275.384 341.654 272.29 309.785C270.634 287.879 271.693 287.358 270.966 284.419C272.097 282.876 278.193 288.746 280.45 305.03C288.063 298.624 286.642 290.627 286.642 290.627C286.642 290.627 295.327 295.373 298.991 311.26C304.672 306.48 309.473 296.715 309.473 296.715C309.473 296.715 313.885 302.775 319.147 313.917C322.741 305.454 324.889 297.488 324.889 297.488C324.889 297.488 331.555 306.43 333.889 314.724C341.081 311.625 341.518 308.398 345.446 302.048Z" fill="url(#paint2_linear_3755_6951)"/>
<path fill-rule="evenodd" clip-rule="evenodd" d="M309.942 323.169C311.184 342.707 326.167 355.076 326.167 355.076C326.167 355.076 307.615 342.443 309.942 323.169Z" fill="#D7674F"/>
<path opacity="0.254325" fill-rule="evenodd" clip-rule="evenodd" d="M340.784 312.507C335.438 335.637 337.686 353.016 337.686 353.016C337.686 353.016 331.894 331.425 340.784 312.507Z" fill="#D7674F"/>
<path opacity="0.254325" fill-rule="evenodd" clip-rule="evenodd" d="M276.621 310.168C278.667 333.127 305.463 356.324 305.463 356.324C305.463 356.324 275.847 338.496 276.621 310.168Z" fill="#D7674F"/>
<path d="M133.792 389.984C134.061 383.461 130.269 367.184 127.948 351.906C124.32 328.031 126.56 308.652 131.225 292.609C140.951 283.574 154.685 298.25 157.181 307.238C160.303 318.474 146.74 327.837 147.252 348.214C147.7 366.101 147.577 369.224 153.656 389.941C156.428 408.009 133.127 406.085 133.792 389.984Z" fill="url(#paint3_linear_3755_6951)"/>
<path d="M153.347 362.377L205.341 406.502L166.737 455.441L113.184 410.7L153.347 362.377Z" fill="#4BB4AD"/>
<circle cx="6.7951" cy="6.7951" r="6.7951" transform="matrix(-0.61932 0.785138 0.785138 0.61932 147.719 421.2)" fill="white"/>
<circle cx="12.4584" cy="12.4584" r="12.4584" transform="matrix(-0.61932 0.785138 0.785138 0.61932 168.976 386.937)" fill="white"/>
<circle cx="4.59068" cy="4.59068" r="4.59068" transform="matrix(-0.61932 0.785138 0.785138 0.61932 141.346 370.434)" fill="white"/>
<circle cx="9.93084" cy="9.93084" r="9.93084" transform="matrix(-0.61932 0.785138 0.785138 0.61932 122.989 393.706)" fill="white"/>
<path d="M96.5595 410.868L144.104 453.093L166.739 455.44L113.032 409.693L96.5595 410.868Z" fill="#339790"/>
<path d="M135.369 366.293L153.347 362.378L113.185 410.7L96.2546 410.904L135.369 366.293Z" fill="#258A86"/>
<path d="M186.798 430.012L134.587 384.952L116.335 388.003" stroke="#FE434C" stroke-width="1.73287" stroke-miterlimit="10" stroke-linecap="round" stroke-linejoin="round"/>
<path d="M143.064 364.617L103.718 410.634L154.366 453.73" stroke="#FE434C" stroke-width="1.73287" stroke-miterlimit="10" stroke-linecap="round" stroke-linejoin="round"/>
<path d="M171.148 377.483L151.09 401.546L131.744 426.072L115.211 428.143" stroke="#FE434C" stroke-width="1.73287" stroke-miterlimit="10" stroke-linecap="round" stroke-linejoin="round"/>
<path d="M124.574 386.461C124.574 386.461 130.977 363.72 119.827 364.737C108.678 365.754 124.574 386.461 124.574 386.461Z" stroke="#FE434C" stroke-width="1.73287" stroke-miterlimit="10" stroke-linecap="round" stroke-linejoin="round"/>
<path d="M124.587 386.471C124.587 386.471 111.295 376.342 109.07 383.686C106.845 391.03 124.587 386.471 124.587 386.471Z" stroke="#FE434C" stroke-width="1.73287" stroke-miterlimit="10" stroke-linecap="round" stroke-linejoin="round"/>
<path d="M192.126 297.567C198.413 272.522 222.022 281.133 249.818 275.823C272.805 271.431 289.605 223.852 271.395 208.679C244.83 186.544 202.931 174.984 157.323 195.401C104.6 219.004 75.9877 257.148 82.9022 294.026C89.8168 330.904 176.785 335.032 192.126 297.567Z" fill="url(#paint4_linear_3755_6951)"/>
<path d="M261.138 293.576C261.861 275.27 264.716 264.306 270.424 255.782C250.565 262.343 224.716 259.715 223.238 271.464C221.392 286.15 243.208 316.564 247.186 323.261C251.163 329.958 238.686 375.764 240.082 382.183C241.479 388.601 265.608 394.026 261.138 373.479C259.393 365.456 264.353 331.528 267.596 323.261C267.596 308.821 260.235 316.459 261.138 293.576Z" fill="url(#paint5_linear_3755_6951)"/>
<path d="M180.138 390.604C180.304 383.999 185.419 367.819 188.916 352.548C194.38 328.685 193.358 308.962 189.554 292.443C179.938 282.654 164.469 296.538 161.221 305.445C157.161 316.578 170.792 326.96 168.849 347.503C167.143 365.536 167.058 368.698 159.23 389.205C155.066 407.261 179.728 406.909 180.138 390.604Z" fill="url(#paint6_linear_3755_6951)"/>
<path fill-rule="evenodd" clip-rule="evenodd" d="M112.753 255.167C113.448 249.211 116.465 243.704 120.415 239.191C122.831 236.431 125.455 233.776 128.49 231.693C130.67 230.196 133.209 227.328 135.908 229.421C139.29 232.044 141.948 236.982 143.875 240.714C148.113 248.919 150.137 258.293 149.436 267.516" fill="url(#paint7_linear_3755_6951)"/>
<path fill-rule="evenodd" clip-rule="evenodd" d="M120.507 255.23C120.89 251.955 122.549 248.925 124.722 246.443C126.05 244.925 127.494 243.465 129.163 242.319C130.362 241.495 131.759 239.918 133.243 241.069C135.103 242.512 136.566 245.228 137.625 247.28C139.956 251.794 141.069 256.949 140.684 262.023" fill="#F7CFB3"/>
<path fill-rule="evenodd" clip-rule="evenodd" d="M80.6315 262.127C75.5967 258.87 62.6091 256.712 56.6143 256.884C52.9479 256.989 49.2299 257.32 45.6909 258.333C43.1478 259.062 39.3205 259.192 39.2154 262.605C39.0838 266.884 41.1972 272.078 42.8474 275.94C46.4752 284.434 52.4127 291.963 59.9689 297.297" fill="url(#paint8_linear_3755_6951)"/>
<path fill-rule="evenodd" clip-rule="evenodd" d="M73.4073 267.011C70.6381 265.219 62.759 264.728 59.4617 264.822C57.4453 264.88 55.3999 265.062 53.453 265.62C52.0546 266.02 49.9492 266.092 49.8916 267.97C49.8193 270.323 50.9819 273.18 51.8891 275.304C53.8846 279.976 57.1506 284.118 61.3069 287.051" fill="#F7CFB3"/>
<path fill-rule="evenodd" clip-rule="evenodd" d="M130.174 341.747C113.559 348.719 93.7507 353 75.6896 350.349C70.3264 349.562 65.1419 347.453 60.8432 344.133C59.8915 343.399 58.9698 342.602 57.8849 342.084C56.8467 341.587 55.7034 341.365 54.6064 341.015C52.2264 340.256 50.0501 338.868 48.3578 337.031C50.2013 336.458 51.9625 335.622 53.5722 334.555C50.7636 334.118 48.1156 332.711 46.1827 330.627C51.0472 328.429 53.9921 323.291 55.2549 318.105C56.5177 312.919 56.4157 307.511 56.9946 302.205C58.9796 284.008 67.7587 267.264 83.4963 257.481C93.2392 251.425 103.45 249.485 114.76 249.617C124.316 249.729 133.134 252.622 140.605 258.571C148.166 264.591 154.266 272.204 161.685 278.386C166.564 282.452 172.671 286 178.933 284.942C178.088 287.458 176.449 289.701 174.308 291.269C176.2 291.98 178.275 292.196 180.272 291.888C180.126 294.316 177.202 295.563 176.205 297.78C175.788 298.705 175.736 299.745 175.588 300.749C174.924 305.246 172.279 309.188 169.434 312.734C159.146 325.559 145.336 335.386 130.174 341.747Z" fill="url(#paint9_linear_3755_6951)"/>
<path d="M130.174 341.747C113.559 348.719 93.7507 353 75.6896 350.349C70.3264 349.562 65.1419 347.453 60.8432 344.133C59.8915 343.399 58.9698 342.602 57.8849 342.084C56.8467 341.587 55.7034 341.365 54.6064 341.015C52.2264 340.256 50.0501 338.868 48.3578 337.031C50.2013 336.458 51.9625 335.622 53.5722 334.555C50.7636 334.118 48.1156 332.711 46.1827 330.627C51.0472 328.429 53.9921 323.291 55.2549 318.105C56.5177 312.919 56.4157 307.511 56.9946 302.205C58.9796 284.008 67.7587 267.264 83.4963 257.481C93.2392 251.425 103.45 249.485 114.76 249.617C124.316 249.729 133.134 252.622 140.605 258.571C148.166 264.591 154.266 272.204 161.685 278.386C166.564 282.452 172.671 286 178.933 284.942C178.088 287.458 176.449 289.701 174.308 291.269C176.2 291.98 178.275 292.196 180.272 291.888C180.126 294.316 177.202 295.563 176.205 297.78C175.788 298.705 175.736 299.745 175.588 300.749C174.924 305.246 172.279 309.188 169.434 312.734C159.146 325.559 145.336 335.386 130.174 341.747" stroke="#F3F3F3" stroke-width="0.879747"/>
<ellipse cx="16.2058" cy="15.647" rx="16.2058" ry="15.647" transform="matrix(-0.99917 0.0407475 0.0407475 0.99917 132.373 308.804)" fill="#FFBD77"/>
<path fill-rule="evenodd" clip-rule="evenodd" d="M55.2551 318.105C56.5179 312.919 56.4159 307.511 56.9948 302.205C58.9798 284.008 67.759 267.264 83.4965 257.481C93.2395 251.425 103.45 249.485 114.76 249.617C124.316 249.728 133.134 252.622 140.605 258.57C148.166 264.591 154.266 272.203 161.685 278.385C164.929 281.089 168.718 283.555 172.732 284.599C170.952 285.058 169.008 285.021 167.181 284.629C164.298 284.01 161.63 282.61 159.005 281.225C155.435 279.343 151.866 277.459 148.297 275.577C144.708 273.684 141.051 271.766 137.092 271.015C131.597 269.971 125.801 271.332 121.221 274.443C115.917 278.045 111.23 284.728 110.755 291.251C110.187 299.059 112.608 306.769 115.55 313.993C113.994 314.997 112.439 316.001 110.884 317.005C111.752 316.444 107.295 306.344 106.794 305.248C105.94 303.373 105.079 301.267 103.873 299.589C103.028 298.413 101.824 297.502 100.87 296.397C96.6881 291.553 91.1039 288.447 84.5499 289.318C80.3456 289.877 76.5346 292.207 73.4929 295.162C70.45 298.116 68.0844 301.686 65.7765 305.243C64.2263 307.634 62.6868 310.038 61.3897 312.574C59.5084 316.251 57.5116 321.541 54.7146 324.544C53.435 325.917 52.0087 326.848 50.5181 327.435C52.8651 324.889 54.4253 321.51 55.2551 318.105Z" fill="url(#paint10_linear_3755_6951)"/>
<path fill-rule="evenodd" clip-rule="evenodd" d="M118.444 328.262C118.191 328.353 117.289 326.725 116.432 324.625C115.573 322.524 115.076 320.73 115.321 320.619C115.566 320.506 116.467 322.135 117.334 324.256C118.2 326.377 118.697 328.171 118.444 328.262Z" fill="#2C2B2B"/>
<path fill-rule="evenodd" clip-rule="evenodd" d="M103 328.01C103.192 327.824 106.611 329.879 109.075 330.793C111.48 331.718 115.323 332.209 119.029 330.821C122.738 329.406 125.22 326.625 126.511 324.464C127.84 322.279 128.56 318.606 128.82 318.656C129.08 318.705 129.313 324.497 128.16 326.985C127.054 329.425 124.467 332.672 120.25 334.286C116.006 335.872 111.701 335.099 109.199 333.818C106.619 332.534 102.808 328.197 103 328.01Z" fill="#6F2D20"/>
<path fill-rule="evenodd" clip-rule="evenodd" d="M129.845 307.116C124.044 307.352 123.677 298.356 129.478 298.119C135.278 297.883 135.645 306.879 129.845 307.116Z" fill="#332056"/>
<path fill-rule="evenodd" clip-rule="evenodd" d="M94.7111 319.294C88.9098 319.53 88.543 310.535 94.3443 310.299C100.146 310.062 100.512 319.057 94.7111 319.294Z" fill="#332056"/>
<path fill-rule="evenodd" clip-rule="evenodd" d="M115.066 323.227C114.377 323.421 113.703 323.468 113.076 323.332C109.387 322.53 101.223 321.237 104.421 315.621C105.889 313.043 109.147 311.557 111.736 310.498C114.556 309.344 120.205 307.846 122.145 311.274C124.277 315.038 119.376 322.012 115.066 323.227Z" fill="#2C2B2B"/>
<path d="M172.686 207.255C162.392 200.046 170.389 191.591 176.842 193.1C181.963 194.297 180.455 197.598 175.334 195.951C172.316 194.981 166.227 189.568 171.265 183.991C176.304 178.413 185.334 183.748 187.015 187.026" stroke="#0D0D0D" stroke-width="1.15525" stroke-linecap="round"/>
<path d="M188.759 186.686C200.244 181.585 204.761 203.778 212.748 203.778" stroke="#0D0D0D" stroke-width="1.15525" stroke-linecap="round"/>
<path d="M188.262 187.194C188.262 187.194 194.528 153.589 213.206 163.54C231.884 173.491 188.262 187.194 188.262 187.194Z" stroke="#0D0D0D" stroke-width="1.15525" stroke-linecap="round"/>
<path d="M188.318 186.687C188.318 186.687 170.395 162.374 162.862 173.582C149.944 192.798 188.318 186.687 188.318 186.687Z" stroke="#0D0D0D" stroke-width="1.15525" stroke-linecap="round"/>
<path d="M186.124 1.5V0.922376H187.28V1.5H186.124ZM186.559 186.26L186.057 186.546L185.982 186.413V186.26H186.559ZM213.573 280.24C213.408 280.512 213.053 280.599 212.78 280.434C212.507 280.268 212.42 279.913 212.585 279.64L213.573 280.24ZM187.28 1.5C187.28 37.6629 187.244 65.7719 187.208 93.8807C187.173 121.989 187.137 150.098 187.137 186.26H185.982C185.982 150.097 186.017 121.988 186.053 93.8792C186.089 65.7705 186.124 37.6621 186.124 1.5H187.28ZM187.061 185.974C193.362 197.041 203.807 214.261 210.771 231.835C214.254 240.624 216.88 249.531 217.677 257.827C218.474 266.123 217.447 273.853 213.573 280.24L212.585 279.64C216.287 273.538 217.309 266.084 216.527 257.938C215.744 249.791 213.16 240.997 209.697 232.261C202.771 214.783 192.381 197.653 186.057 186.546L187.061 185.974Z" fill="#0D0D0D"/>
<path d="M188.319 186.247C193.451 213.909 203.469 273.095 195.057 289.917" stroke="#0D0D0D" stroke-width="1.15525" stroke-linecap="round"/>
<path d="M186.796 186.652C202.192 207.68 212.33 265.884 202.192 282.782" stroke="#0D0D0D" stroke-width="1.15525" stroke-linecap="round"/>
<path d="M193.18 185.902C208.576 207.341 207.825 270.061 197.686 287.289" stroke="#0D0D0D" stroke-width="1.15525" stroke-linecap="round"/>
<g clip-path="url(#clip0_3755_6951)">
<path d="M310.129 484.345L315.652 495.59" stroke="white" stroke-width="1.173" stroke-miterlimit="10" stroke-linecap="round" stroke-linejoin="round"/>
<path d="M306.652 490.49L319.137 489.445" stroke="white" stroke-width="1.173" stroke-miterlimit="10" stroke-linecap="round" stroke-linejoin="round"/>
<path d="M315.818 484.806L309.863 495.319" stroke="white" stroke-width="1.173" stroke-miterlimit="10" stroke-linecap="round" stroke-linejoin="round"/>
<path d="M88.2227 472.279L98.5708 479.342" stroke="white" stroke-width="1.173" stroke-miterlimit="10" stroke-linecap="round" stroke-linejoin="round"/>
<path d="M88.2227 479.342L98.5708 472.279" stroke="white" stroke-width="1.173" stroke-miterlimit="10" stroke-linecap="round" stroke-linejoin="round"/>
<path d="M93.3945 469.878V481.961" stroke="white" stroke-width="1.173" stroke-miterlimit="10" stroke-linecap="round" stroke-linejoin="round"/>
<path d="M169.375 459.381L171.806 469.163" stroke="white" stroke-width="1.173" stroke-miterlimit="10" stroke-linecap="round" stroke-linejoin="round"/>
<path d="M165.594 463.62L175.589 464.921" stroke="white" stroke-width="1.173" stroke-miterlimit="10" stroke-linecap="round" stroke-linejoin="round"/>
<path d="M173.771 460.71L167.301 467.965" stroke="white" stroke-width="1.173" stroke-miterlimit="10" stroke-linecap="round" stroke-linejoin="round"/>
<path d="M39.2969 564.389L43.5684 573.086" stroke="white" stroke-width="1.173" stroke-miterlimit="10" stroke-linecap="round" stroke-linejoin="round"/>
<path d="M36.6016 569.141L46.2573 568.333" stroke="white" stroke-width="1.173" stroke-miterlimit="10" stroke-linecap="round" stroke-linejoin="round"/>
<path d="M43.6917 564.746L39.0859 572.877" stroke="white" stroke-width="1.173" stroke-miterlimit="10" stroke-linecap="round" stroke-linejoin="round"/>
<path d="M353.977 584.195L358.248 592.892" stroke="white" stroke-width="1.173" stroke-miterlimit="10" stroke-linecap="round" stroke-linejoin="round"/>
<path d="M351.281 588.948L360.937 588.14" stroke="white" stroke-width="1.173" stroke-miterlimit="10" stroke-linecap="round" stroke-linejoin="round"/>
<path d="M358.371 584.553L353.766 592.684" stroke="white" stroke-width="1.173" stroke-miterlimit="10" stroke-linecap="round" stroke-linejoin="round"/>
<path d="M175.602 498.074H248.339L250.063 600.695H177.153L175.602 498.074Z" fill="#E1283A"/>
<path d="M265.058 600.696L261.956 488.596L184.22 490.664L175.602 498.076H248.339L250.063 600.696H265.058Z" fill="#FE434C"/>
<path d="M210.422 600.694L211.628 498.074L220.333 489.701" stroke="white" stroke-width="1.173" stroke-miterlimit="10" stroke-linecap="round" stroke-linejoin="round"/>
<path d="M180.252 494.079L256.273 492.73L257.809 599.62" stroke="white" stroke-width="1.173" stroke-miterlimit="10" stroke-linecap="round" stroke-linejoin="round"/>
<path d="M216.715 493.526C216.715 493.526 199.126 493.696 200.816 485.549C202.505 477.402 216.715 493.526 216.715 493.526Z" stroke="white" stroke-width="1.173" stroke-miterlimit="10" stroke-linecap="round" stroke-linejoin="round"/>
<path d="M176.238 539.957L248.967 535.276L262.87 521.515" stroke="white" stroke-width="1.173" stroke-miterlimit="10" stroke-linecap="round" stroke-linejoin="round"/>
<path d="M216.714 493.527C216.346 493.118 201.522 470.883 209.191 466.361C216.859 461.838 216.714 493.527 216.714 493.527Z" stroke="white" stroke-width="1.173" stroke-miterlimit="10" stroke-linecap="round" stroke-linejoin="round"/>
<path d="M216.719 493.527C216.719 493.527 215.438 469.605 224.483 472.013C233.528 474.422 216.719 493.527 216.719 493.527Z" stroke="white" stroke-width="1.173" stroke-miterlimit="10" stroke-linecap="round" stroke-linejoin="round"/>
<path d="M216.713 493.527C216.713 493.527 228.554 476.909 234.653 485.04C239.519 491.529 216.713 493.527 216.713 493.527Z" stroke="white" stroke-width="1.173" stroke-miterlimit="10" stroke-linecap="round" stroke-linejoin="round"/>
<path d="M300.932 552.261H246.127V600.695H300.932V552.261Z" fill="#4BB4AD"/>
<path d="M307.494 600.695V544.029L254.037 545.267L246.127 552.261H300.932V600.695H307.494Z" fill="#258A86"/>
<path d="M274.498 600.696V552.262L282.024 544.62" stroke="white" stroke-width="1.173" stroke-miterlimit="10" stroke-linecap="round" stroke-linejoin="round"/>
<path d="M250.688 548.228L304.587 547.675L304.985 600.695" stroke="white" stroke-width="1.173" stroke-miterlimit="10" stroke-linecap="round" stroke-linejoin="round"/>
<path d="M246.127 567.605H300.932L307.494 563.472" stroke="white" stroke-width="1.173" stroke-miterlimit="10" stroke-linecap="round" stroke-linejoin="round"/>
<path d="M278.749 547.941C278.749 547.941 259.247 541.834 265.94 534.242C272.632 526.65 278.749 547.941 278.749 547.941Z" stroke="white" stroke-width="1.173" stroke-miterlimit="10" stroke-linecap="round" stroke-linejoin="round"/>
<path d="M278.535 547.941C278.535 547.941 276.42 532.989 284.453 534.945C292.486 536.901 278.535 547.941 278.535 547.941Z" stroke="white" stroke-width="1.173" stroke-miterlimit="10" stroke-linecap="round" stroke-linejoin="round"/>
<path d="M278.746 547.941C278.746 547.941 282.719 538.833 289.711 544.03C296.704 549.226 292.009 558.616 287.614 560.114C283.218 561.613 281.123 556.216 285.667 554.619C290.211 553.022 296.604 554.42 298.202 562.212C299.801 570.004 292.508 573.473 290.81 574.186C289.112 574.899 285.516 573.001 289.312 571.003C293.108 569.005 297.303 573.9 295.206 580.493C293.108 587.086 286.305 590.382 286.305 590.382" stroke="white" stroke-width="1.173" stroke-miterlimit="10" stroke-linecap="round" stroke-linejoin="round"/>
<path d="M134.185 495.252C139.355 495.916 143.861 499.182 146.132 503.881C147.25 506.221 147.599 507.845 147.581 510.692C147.564 512.788 147.494 513.365 147.11 514.692C146.865 515.531 146.481 516.421 146.271 516.648C145.433 517.539 143.791 516.91 143.791 515.723C143.791 515.461 143.966 514.605 144.158 513.854C144.63 512.177 144.665 509.348 144.28 507.671C143.512 504.405 141.328 501.505 138.342 499.776C135.827 498.326 132.176 497.82 129.399 498.518C124.281 499.811 120.666 503.828 119.897 509.068C119.199 513.959 122.098 519.373 126.604 521.574C128.683 522.604 129.958 522.901 132.229 522.901C134.604 522.901 136.403 522.447 138.359 521.329C139.809 520.508 140.385 520.404 141.014 520.84C142.114 521.609 141.835 522.727 140.298 523.722C135.757 526.657 129.259 526.726 124.439 523.879C120.945 521.818 118.325 518.343 117.277 514.36C116.788 512.561 116.736 508.824 117.155 507.112C118.483 501.785 122.308 497.628 127.443 495.933C129.853 495.13 131.809 494.938 134.185 495.252Z" fill="#FFC93D"/>
<path d="M152.489 497.924C157.747 498.972 161.52 502.5 162.795 507.548C163.231 509.312 163.196 512.089 162.707 513.853C162.079 516.176 161.1 517.818 159.319 519.6C156.839 522.08 154.463 523.145 151.057 523.302C148.804 523.425 147.547 523.215 145.625 522.464C139.809 520.141 136.56 514.045 137.835 507.845C138.167 506.238 139.128 504.072 139.617 503.81C140.281 503.461 141.171 503.583 141.556 504.072C142.045 504.683 142.01 505.364 141.468 506.447C139.774 509.801 140.473 514.272 143.18 517.154C146.254 520.455 150.778 521.259 154.795 519.233C156.367 518.447 157.258 517.678 158.236 516.316C159.441 514.587 159.948 513.102 160.052 511.006C160.122 509.434 160.087 509.05 159.668 507.757C158.114 502.745 153.241 499.967 147.966 501.085C146.848 501.33 146.708 501.312 146.219 501.033C145.276 500.474 145.241 499.024 146.167 498.518C147.424 497.854 150.586 497.557 152.489 497.924Z" fill="#FFC93D"/>
<path d="M188.264 555.838H121.788V589.674C121.788 595.197 126.265 599.674 131.788 599.674H178.264C183.787 599.674 188.264 595.197 188.264 589.674V555.838Z" fill="white"/>
<path d="M164.627 562.43C166.452 562.665 168.017 563.596 168.996 565.046C171.102 568.143 170.1 572.415 165.99 577.902C163.805 580.832 159.605 584.673 156.464 586.613C154.944 587.544 155.124 587.534 153.874 586.78C147.714 583.037 141.859 576.246 140.361 571.092C139.517 568.172 140.114 565.644 142.062 563.919C143.379 562.763 145.429 562.165 147.264 562.41C150.203 562.812 155.008 566.869 155.008 566.869C155.008 566.869 159.787 562.79 162.747 562.41C163.535 562.312 163.76 562.312 164.627 562.43ZM143.852 565.761C143.683 565.83 143.469 566.085 143.278 566.457C142.377 568.192 142.366 569.818 143.233 572.072C143.785 573.503 144.483 574.669 145.868 576.481C147.793 578.99 148.277 579.382 148.84 578.892C149.223 578.559 149.122 578.284 148.334 577.373C145.068 573.61 143.627 570.426 144.156 568.172C144.258 567.751 144.46 567.173 144.618 566.869C144.989 566.163 144.877 565.859 144.156 565.663C144.145 565.654 144.01 565.703 143.852 565.761Z" fill="#E1283A"/>
<path d="M188.264 551.387C188.264 545.864 183.787 541.387 178.264 541.387H131.788C126.265 541.387 121.788 545.864 121.788 551.387V553.953H188.264V551.387Z" fill="#4BB4AD"/>
<rect width="3.64086" height="9.52281" rx="1.82043" transform="matrix(-1 0 0 1 173.596 537.464)" fill="white"/>
<rect width="3.64086" height="9.52281" rx="1.82043" transform="matrix(-1 0 0 1 140.826 537.464)" fill="white"/>
<path d="M109.173 526.721H90.8923L87.318 555.297C86.3614 562.945 92.3248 569.701 100.033 569.701C107.74 569.701 113.704 562.945 112.747 555.297L109.173 526.721Z" fill="#4FD4CB"/>
<path d="M89.4503 548.727L88.6573 555.066C87.8014 561.91 93.137 567.954 100.033 567.954C106.93 567.954 112.265 561.91 111.409 555.066L110.616 548.727C110.616 548.727 107.131 551.705 100.033 548.727C92.936 545.749 89.4503 548.727 89.4503 548.727Z" fill="#278196"/>
<path d="M100.995 569.701H99.0681C99.0681 569.701 99.0681 592.071 99.0681 595.226C99.0681 598.326 92.4143 599.506 90.6824 599.76C90.4486 599.795 90.2743 599.994 90.2743 600.23C90.2743 600.488 90.4828 600.696 90.7399 600.696H109.323C109.581 600.696 109.789 600.488 109.789 600.23C109.789 599.994 109.615 599.795 109.381 599.76C107.649 599.506 100.995 598.326 100.995 595.226C100.995 591.662 100.995 569.701 100.995 569.701Z" fill="#4FD4CB"/>
<circle cx="0.672003" cy="0.672003" r="0.672003" transform="matrix(-1 0 0 1 106.195 558.868)" fill="#4FD4CB"/>
<circle cx="0.672003" cy="0.672003" r="0.672003" transform="matrix(-1 0 0 1 109.789 554.102)" fill="#4FD4CB"/>
<circle cx="1.20961" cy="1.20961" r="1.20961" transform="matrix(-1 0 0 1 104.178 552.355)" fill="#4FD4CB"/>
<path d="M90.8019 523.983H71.8449L68.1382 553.617C67.1462 561.548 73.3303 568.554 81.3234 568.554C89.3165 568.554 95.5006 561.548 94.5086 553.617L90.8019 523.983Z" fill="#6AE9B3"/>
<path d="M70.3493 546.803L69.527 553.378C68.6394 560.474 74.1725 566.742 81.3241 566.742C88.4758 566.742 94.0089 560.474 93.1213 553.378L92.2989 546.803C92.2989 546.803 88.6842 549.891 81.3241 546.803C73.9641 543.715 70.3493 546.803 70.3493 546.803Z" fill="#278196"/>
<path d="M82.3222 568.554H80.3236C80.3236 568.554 80.3236 591.752 80.3236 595.024C80.3236 598.239 73.4236 599.462 71.6275 599.726C71.3851 599.761 71.2044 599.968 71.2044 600.213C71.2044 600.48 71.4205 600.696 71.6872 600.696H90.9586C91.2252 600.696 91.4414 600.48 91.4414 600.213C91.4414 599.968 91.2606 599.761 91.0182 599.726C89.2222 599.462 82.3222 598.239 82.3222 595.024C82.3222 591.328 82.3222 568.554 82.3222 568.554Z" fill="#6AE9B3"/>
<circle cx="0.696876" cy="0.696876" r="0.696876" transform="matrix(-1 0 0 1 74.4082 546.676)" fill="#6AE9B3"/>
<circle cx="0.696876" cy="0.696876" r="0.696876" transform="matrix(-1 0 0 1 91.4414 552.378)" fill="#6AE9B3"/>
<circle cx="1.25438" cy="1.25438" r="1.25438" transform="matrix(-1 0 0 1 85.6211 550.566)" fill="#6AE9B3"/>
<circle cx="1.25438" cy="1.25438" r="1.25438" transform="matrix(-1 0 0 1 76.916 553.564)" fill="#6AE9B3"/>
</g>
<defs>
<linearGradient id="paint0_linear_3755_6951" x1="305.835" y1="405.52" x2="252.817" y2="271.709" gradientUnits="userSpaceOnUse">
<stop stop-color="#FFA75F"/>
<stop offset="1" stop-color="#BE4044"/>
</linearGradient>
<linearGradient id="paint1_linear_3755_6951" x1="383.122" y1="395.057" x2="231.378" y2="413.124" gradientUnits="userSpaceOnUse">
<stop stop-color="#FFA75F"/>
<stop offset="1" stop-color="#BE4044"/>
</linearGradient>
<linearGradient id="paint2_linear_3755_6951" x1="365.034" y1="408.751" x2="289.245" y2="460.842" gradientUnits="userSpaceOnUse">
<stop stop-color="white"/>
<stop offset="1" stop-color="#D8694F"/>
</linearGradient>
<linearGradient id="paint3_linear_3755_6951" x1="145.524" y1="397.468" x2="141.911" y2="332.547" gradientUnits="userSpaceOnUse">
<stop stop-color="#FFA75F"/>
<stop offset="1" stop-color="#BE4044"/>
</linearGradient>
<linearGradient id="paint4_linear_3755_6951" x1="182.833" y1="184.784" x2="214.258" y2="295.105" gradientUnits="userSpaceOnUse">
<stop stop-color="#FFA75F"/>
<stop offset="1" stop-color="#BE4044"/>
</linearGradient>
<linearGradient id="paint5_linear_3755_6951" x1="264.668" y1="404.469" x2="233.817" y2="223.171" gradientUnits="userSpaceOnUse">
<stop stop-color="#FFA75F"/>
<stop offset="1" stop-color="#BE4044"/>
</linearGradient>
<linearGradient id="paint6_linear_3755_6951" x1="169.189" y1="419.802" x2="182.494" y2="296.594" gradientUnits="userSpaceOnUse">
<stop stop-color="#FFA75F"/>
<stop offset="1" stop-color="#CB554A"/>
</linearGradient>
<linearGradient id="paint7_linear_3755_6951" x1="126.568" y1="227.708" x2="121.867" y2="269.118" gradientUnits="userSpaceOnUse">
<stop stop-color="#F3A77B"/>
<stop offset="1" stop-color="#F95820"/>
</linearGradient>
<linearGradient id="paint8_linear_3755_6951" x1="47.4753" y1="253.304" x2="78.6287" y2="274.658" gradientUnits="userSpaceOnUse">
<stop stop-color="#F3A77B"/>
<stop offset="1" stop-color="#F95820"/>
</linearGradient>
<linearGradient id="paint9_linear_3755_6951" x1="84.6652" y1="307.525" x2="79.5524" y2="271.986" gradientUnits="userSpaceOnUse">
<stop stop-color="#F9F9F9"/>
<stop offset="1" stop-color="#F69272"/>
</linearGradient>
<linearGradient id="paint10_linear_3755_6951" x1="157.789" y1="247.742" x2="160.19" y2="306.629" gradientUnits="userSpaceOnUse">
<stop stop-color="#EC8B60"/>
<stop offset="1" stop-color="#FE872F"/>
</linearGradient>
<clipPath id="clip0_3755_6951">
<rect width="391" height="185" fill="white" transform="translate(0 416)"/>
</clipPath>
</defs>
</svg>
